<svg width="20" height="20" viewBox="0 0 20 20" fill="none" xmlns="http://www.w3.org/2000/svg">
<mask id="mask0_159_833" style="mask-type:alpha" maskUnits="userSpaceOnUse" x="0" y="0" width="20" height="20">
<rect width="20" height="20" fill="#D9D9D9"/>
</mask>
<g mask="url(#mask0_159_833)">
<path d="M2 4.74996V1H5.75V2.24996H3.25V4.74996H2ZM17 4.74996V2.24996H14.5V1H18.25V4.74996H17ZM2.00002 18.9166V15.1667H3.24998V17.6667H5.74998V18.9166H2.00002ZM14.5 18.9166V17.6667H17V15.1667H18.25V18.9166H14.5ZM5.74998 14.9102C5.74998 14.9743 5.77669 15.0331 5.83013 15.0865C5.88354 15.1399 5.94231 15.1667 6.00642 15.1667H14.2436C14.3077 15.1667 14.3665 15.1399 14.4199 15.0865C14.4733 15.0331 14.5 14.9743 14.5 14.9102V5.0064C14.5 4.94228 14.4733 4.88352 14.4199 4.8301C14.3665 4.77667 14.3077 4.74996 14.2436 4.74996H6.00642C5.94231 4.74996 5.88354 4.77667 5.83013 4.8301C5.77669 4.88352 5.74998 4.94228 5.74998 5.0064V14.9102ZM6.00642 16.4166C5.58547 16.4166 5.22917 16.2708 4.93752 15.9791C4.64585 15.6875 4.50002 15.3312 4.50002 14.9102V5.0064C4.50002 4.58545 4.64585 4.22915 4.93752 3.9375C5.22917 3.64583 5.58547 3.5 6.00642 3.5H14.2436C14.6645 3.5 15.0208 3.64583 15.3125 3.9375C15.6041 4.22915 15.75 4.58545 15.75 5.0064V14.9102C15.75 15.3312 15.6041 15.6875 15.3125 15.9791C15.0208 16.2708 14.6645 16.4166 14.2436 16.4166H6.00642ZM7.83335 8.08329H12.4166V6.83333H7.83335V8.08329ZM7.83335 10.5833H12.4166V9.33333H7.83335V10.5833ZM7.83335 13.0833H12.4166V11.8333H7.83335V13.0833ZM5.74998 14.9102V4.74996V15.1667V14.9102Z" fill="white"/>
</g>
</svg>
