<svg width="16" height="16" viewBox="0 0 16 16" fill="none" xmlns="http://www.w3.org/2000/svg">
<g clip-path="url(#clip0_159_849)">
<path d="M12.4751 7.99987H9.33311C8.97949 7.99987 8.64035 7.85939 8.3903 7.60934C8.14025 7.35929 7.99978 7.02016 7.99978 6.66653V3.51587C8.00068 3.20919 7.93105 2.90641 7.79626 2.63094C7.66148 2.35547 7.46514 2.11468 7.22244 1.9272C6.99247 1.74507 6.7237 1.61825 6.43691 1.55652C6.15012 1.4948 5.85298 1.49982 5.56844 1.5712C3.95221 1.97241 2.52133 2.91324 1.51242 4.23811C0.503519 5.56298 -0.0229735 7.19252 0.0200168 8.85724C0.0630071 10.522 0.672905 12.1222 1.74885 13.3932C2.82479 14.6642 4.30233 15.5299 5.93711 15.8472C7.77518 16.199 9.67821 15.8348 11.2565 14.8292C12.8347 13.8235 13.9688 12.2525 14.4264 10.4379C14.4981 10.153 14.5033 9.8554 14.4417 9.56815C14.3801 9.28091 14.2533 9.01166 14.0711 8.7812C13.8814 8.53884 13.6392 8.34262 13.3628 8.20729C13.0864 8.07196 12.7829 8.00105 12.4751 7.99987ZM13.1338 10.1119C12.8785 11.1398 12.3548 12.0814 11.6162 12.8405C10.8776 13.5996 9.95066 14.1489 8.93012 14.4323C7.90959 14.7156 6.83212 14.7227 5.80791 14.453C4.7837 14.1833 3.84952 13.6463 3.10091 12.8971C2.35231 12.1479 1.81614 11.2132 1.54726 10.1888C1.27837 9.16437 1.28642 8.0869 1.57058 7.0666C1.85473 6.04631 2.4048 5.11979 3.16451 4.38183C3.92422 3.64387 4.86632 3.12094 5.89444 2.86653C5.9824 2.84456 6.07428 2.84348 6.16272 2.8634C6.25117 2.88331 6.33372 2.92365 6.40378 2.9812C6.4865 3.04427 6.55359 3.12555 6.59984 3.21874C6.64608 3.31192 6.67024 3.4145 6.67044 3.51853V6.66653C6.67044 7.37378 6.9514 8.05205 7.45149 8.55215C7.95159 9.05225 8.62987 9.3332 9.33711 9.3332H12.4784C12.5834 9.33363 12.6869 9.35785 12.7811 9.40404C12.8753 9.45023 12.9578 9.51718 13.0224 9.59987C13.0791 9.6709 13.1186 9.75408 13.1378 9.8429C13.157 9.93171 13.1561 10.0238 13.1338 10.1119Z" fill="white"/>
<path d="M15.767 4.96328C15.4601 3.83493 14.8639 2.80628 14.0373 1.97913C13.2107 1.15198 12.1825 0.555006 11.0544 0.247279C10.9361 0.215485 10.8142 0.199348 10.6917 0.199279C10.5155 0.197605 10.3408 0.230858 10.1776 0.297114C10.0143 0.363371 9.86585 0.461318 9.7407 0.585296C9.61554 0.709275 9.51619 0.856826 9.44839 1.01942C9.3806 1.18202 9.3457 1.35645 9.3457 1.53261V4.66595C9.3457 5.19638 9.55642 5.70509 9.93149 6.08016C10.3066 6.45523 10.8153 6.66595 11.3457 6.66595H14.4917C14.6975 6.66397 14.9 6.61457 15.0836 6.5216C15.2672 6.42862 15.4269 6.29458 15.5503 6.12987C15.6736 5.96516 15.7574 5.77423 15.795 5.5719C15.8326 5.36958 15.823 5.16131 15.767 4.96328ZM14.1017 5.33261H11.343C11.1662 5.33261 10.9967 5.26237 10.8716 5.13735C10.7466 5.01233 10.6764 4.84276 10.6764 4.66595L10.671 1.53728C10.6759 1.53375 10.6817 1.53167 10.6877 1.53128H10.705C11.6131 1.77867 12.4404 2.25989 13.1044 2.92691C13.7684 3.59393 14.2458 4.42342 14.489 5.33261H14.1017Z" fill="white"/>
</g>
<defs>
<clipPath id="clip0_159_849">
<rect width="16" height="16" fill="white"/>
</clipPath>
</defs>
</svg>
