<svg width="40" height="40" viewBox="0 0 40 40" fill="none" xmlns="http://www.w3.org/2000/svg">
<g clip-path="url(#clip0_1_1439)">
<path d="M38.3333 31.6667V28.3334C38.3273 23.7622 36.6153 19.358 33.5327 15.9827C30.45 12.6075 26.2185 10.5044 21.6667 10.085V7.8717C22.3021 7.50481 22.7988 6.93848 23.0796 6.26056C23.3604 5.58263 23.4097 4.83099 23.2198 4.12221C23.0298 3.41344 22.6114 2.78713 22.0292 2.34043C21.4471 1.89374 20.7338 1.65161 20 1.65161C19.2662 1.65161 18.5529 1.89374 17.9708 2.34043C17.3886 2.78713 16.9702 3.41344 16.7802 4.12221C16.5903 4.83099 16.6396 5.58263 16.9204 6.26056C17.2012 6.93848 17.6979 7.50481 18.3333 7.8717V10.085C13.7815 10.5044 9.55003 12.6075 6.46734 15.9827C3.38466 19.358 1.67272 23.7622 1.66667 28.3334V31.6667C1.22464 31.6667 0.800716 31.8423 0.488155 32.1549C0.175595 32.4674 0 32.8913 0 33.3334C0 33.7754 0.175595 34.1993 0.488155 34.5119C0.800716 34.8244 1.22464 35 1.66667 35H38.3333C38.7754 35 39.1993 34.8244 39.5118 34.5119C39.8244 34.1993 40 33.7754 40 33.3334C40 32.8913 39.8244 32.4674 39.5118 32.1549C39.1993 31.8423 38.7754 31.6667 38.3333 31.6667ZM5 28.3334C5.78833 8.44336 34.2183 8.45836 35 28.3334V31.6667H5V28.3334Z" fill="white"/>
</g>
<defs>
<clipPath id="clip0_1_1439">
<rect width="40" height="40" fill="white"/>
</clipPath>
</defs>
</svg>
