<svg width="40" height="40" viewBox="0 0 40 40" fill="none" xmlns="http://www.w3.org/2000/svg">
<path d="M38.3329 8.33333C38.3329 7.00725 37.8062 5.73548 36.8685 4.7978C35.9308 3.86012 34.659 3.33333 33.3329 3.33333H33.0479C32.702 2.35915 32.0631 1.51585 31.219 0.919072C30.3748 0.322293 29.3667 0.00126125 28.3329 0L11.6663 0C10.6325 0.00126125 9.6244 0.322293 8.78026 0.919072C7.93611 1.51585 7.29725 2.35915 6.95128 3.33333H6.66628C5.65606 3.33999 4.67155 3.65251 3.84244 4.22971C3.01333 4.80692 2.37852 5.62175 2.02162 6.56685C1.66473 7.51195 1.6025 8.54299 1.84312 9.52416C2.08375 10.5053 2.61595 11.3906 3.36961 12.0633L5.94961 32.7C6.20386 34.7144 7.18378 36.567 8.70581 37.9107C10.2279 39.2545 12.1876 39.9973 14.2179 40H25.7813C27.8115 39.997 29.7711 39.254 31.293 37.9103C32.815 36.5666 33.795 34.7142 34.0496 32.7L36.6296 12.0633C37.1626 11.5986 37.5903 11.0255 37.884 10.3823C38.1778 9.73901 38.3308 9.04047 38.3329 8.33333ZM31.8613 23.3333H26.5279C25.0413 14.5217 14.9496 14.5267 13.4646 23.3333H8.13128L6.88128 13.3333H33.1113L31.8613 23.3333ZM23.3329 25C23.1579 31.59 16.8413 31.5883 16.6663 25C16.8413 18.41 23.1663 18.4117 23.3329 25ZM6.66628 6.66667H8.33295C8.77497 6.66667 9.1989 6.49107 9.51146 6.17851C9.82402 5.86595 9.99961 5.44203 9.99961 5C9.99961 4.55797 10.1752 4.13405 10.4878 3.82149C10.8003 3.50893 11.2243 3.33333 11.6663 3.33333H28.3329C28.775 3.33333 29.1989 3.50893 29.5115 3.82149C29.824 4.13405 29.9996 4.55797 29.9996 5C29.9996 5.44203 30.1752 5.86595 30.4878 6.17851C30.8003 6.49107 31.2243 6.66667 31.6663 6.66667H33.3329C33.775 6.66667 34.1989 6.84226 34.5115 7.15482C34.824 7.46738 34.9996 7.89131 34.9996 8.33333C34.9996 8.77536 34.824 9.19928 34.5115 9.51184C34.1989 9.8244 33.775 10 33.3329 10H6.66628C6.22425 10 5.80033 9.8244 5.48777 9.51184C5.17521 9.19928 4.99961 8.77536 4.99961 8.33333C4.99961 7.89131 5.17521 7.46738 5.48777 7.15482C5.80033 6.84226 6.22425 6.66667 6.66628 6.66667ZM30.7413 32.2867C30.5902 33.4957 30.0028 34.608 29.0895 35.4145C28.1761 36.2211 26.9997 36.6663 25.7813 36.6667H14.2179C12.9992 36.6667 11.8224 36.2216 10.9087 35.4151C9.99503 34.6085 9.4074 33.496 9.25628 32.2867L8.55461 26.6667H13.4679C14.9546 35.4783 25.0479 35.4733 26.5313 26.6667H31.4446L30.7413 32.2867Z" fill="white"/>
</svg>
