<svg width="40" height="40" viewBox="0 0 40 40" fill="none" xmlns="http://www.w3.org/2000/svg">
<g clip-path="url(#clip0_1_1397)">
<path d="M19.9975 26.6667C20.7736 26.6682 21.5393 26.489 22.2341 26.1433L25.5675 24.4767C27.2665 23.6331 28.3382 21.8969 28.3309 20V15.055C28.3367 13.1598 27.2652 11.4259 25.5675 10.5834L22.2341 8.91676C20.8258 8.21676 19.1709 8.21676 17.7625 8.91676L14.4292 10.5834C12.7309 11.4254 11.6586 13.1595 11.6641 15.055V20C11.6581 21.8957 12.7295 23.6303 14.4275 24.4734L17.7609 26.14C18.4554 26.4868 19.2212 26.6671 19.9975 26.6667ZM14.9975 20V15.055C15.0002 14.885 15.0288 14.7164 15.0825 14.555L18.7159 16.3717C19.5227 16.775 20.4724 16.775 21.2792 16.3717L24.9126 14.555C24.9663 14.7164 24.9949 14.885 24.9976 15.055V20C25.0002 20.6324 24.6427 21.2111 24.0759 21.4917L20.7426 23.1583C20.2726 23.3909 19.7209 23.3909 19.2509 23.1583L15.9176 21.4917C15.3514 21.2107 14.9945 20.6321 14.9975 20ZM31.6642 36.6667H27.1491L32.9608 31.2967C40.1206 24.1371 40.1207 12.5292 32.9612 5.36941C25.8017 -1.79035 14.1938 -1.79043 7.03399 5.36902C-0.125771 12.5285 -0.125928 24.1366 7.0336 31.2963C7.04931 31.312 12.8459 36.6667 12.8459 36.6667H8.33087C7.4104 36.6667 6.66423 37.4128 6.66423 38.3333C6.66423 39.2538 7.4104 40 8.33087 40H31.6642C32.5847 40 33.3309 39.2538 33.3309 38.3333C33.3309 37.4129 32.5846 36.6667 31.6642 36.6667ZM9.39087 7.72668C15.2359 1.85543 24.7338 1.83418 30.605 7.67918C36.4763 13.5242 36.4975 23.0221 30.6525 28.8933L24.0109 35.0283C21.744 37.165 18.201 37.1525 15.9492 35L9.39087 28.94C3.54204 23.0783 3.54212 13.5884 9.39087 7.72668Z" fill="white"/>
</g>
<defs>
<clipPath id="clip0_1_1397">
<rect width="40" height="40" fill="white"/>
</clipPath>
</defs>
</svg>
