<svg width="40" height="40" viewBox="0 0 40 40" fill="none" xmlns="http://www.w3.org/2000/svg">
<g clip-path="url(#clip0_1_1385)">
<path d="M39.7265 7.84169C38.4549 2.65335 31.3099 -0.0899806 26.9332 2.70169C25.0402 0.968322 22.5666 0.00689697 19.9999 0.00689697C17.4331 0.00689697 14.9595 0.968322 13.0665 2.70169C2.3482 -2.76331 -5.97847 12.8834 5.54319 17.855C5.85487 17.9449 6.13068 18.1299 6.33208 18.3842C6.53348 18.6385 6.65041 18.9494 6.66653 19.2734V32.5C6.66653 34.4891 7.4567 36.3968 8.86323 37.8033C10.2698 39.2098 12.1774 40 14.1665 40H25.8332C26.8181 40 27.7934 39.806 28.7033 39.4291C29.6133 39.0522 30.4401 38.4998 31.1365 37.8033C31.8329 37.1069 32.3854 36.2801 32.7623 35.3701C33.1392 34.4602 33.3332 33.4849 33.3332 32.5V19.2734C33.3493 18.9494 33.4662 18.6385 33.6676 18.3842C33.869 18.1299 34.1449 17.9449 34.4565 17.855C36.4299 17.1499 38.0666 15.7296 39.0426 13.8752C40.0185 12.0208 40.2626 9.8675 39.7265 7.84169ZM29.9999 32.5C29.9999 33.6051 29.5609 34.6649 28.7795 35.4463C27.9981 36.2277 26.9383 36.6667 25.8332 36.6667H14.1665C13.5498 36.6536 12.943 36.5084 12.3872 36.2408C11.8313 35.9732 11.3394 35.5896 10.9444 35.1157C10.5495 34.6417 10.2608 34.0886 10.0979 33.4937C9.93495 32.8987 9.90152 32.2757 9.99986 31.6667H29.9999V32.5ZM33.3332 14.7134C32.3712 15.0305 31.5326 15.6407 30.9348 16.4585C30.3371 17.2762 30.0101 18.2605 29.9999 19.2734V28.3334H9.99986V19.2734C9.98958 18.2605 9.66266 17.2762 9.0649 16.4585C8.46714 15.6407 7.62851 15.0305 6.66653 14.7134C5.47718 14.2854 4.4918 13.4266 3.90538 12.3068C3.31897 11.1871 3.17425 9.88803 3.49986 8.66669C4.47653 5.16669 9.71486 3.70169 12.1382 6.16669C12.312 6.34159 12.5223 6.47599 12.7541 6.56031C12.9858 6.64463 13.2333 6.6768 13.4789 6.65451C13.7245 6.63223 13.9621 6.55605 14.1749 6.4314C14.3877 6.30674 14.5703 6.13669 14.7099 5.93335C16.7882 2.46669 23.2015 2.46669 25.2799 5.93335C25.4196 6.13644 25.6023 6.30626 25.8151 6.43074C26.0279 6.55522 26.2654 6.6313 26.5109 6.65357C26.7564 6.67585 27.0038 6.64377 27.2355 6.55962C27.4672 6.47547 27.6775 6.34131 27.8515 6.16669C28.5085 5.6072 29.2926 5.21727 30.1352 5.03103C30.9778 4.84478 31.8533 4.8679 32.6849 5.09835C33.7442 5.3332 34.699 5.90487 35.4063 6.72777C36.1136 7.55067 36.5353 8.58053 36.6083 9.66316C36.6813 10.7458 36.4017 11.8229 35.8113 12.7333C35.2209 13.6437 34.3514 14.3384 33.3332 14.7134Z" fill="white"/>
</g>
<defs>
<clipPath id="clip0_1_1385">
<rect width="40" height="40" fill="white"/>
</clipPath>
</defs>
</svg>
