<svg width="40" height="40" viewBox="0 0 40 40" fill="none" xmlns="http://www.w3.org/2000/svg">
<g clip-path="url(#clip0_1_1427)">
<path d="M33.3333 16.6667H33.1417C33.3729 15.9055 33.4252 15.1012 33.2946 14.3165C33.164 13.5317 32.8539 12.7878 32.3885 12.1425C31.9232 11.4973 31.3151 10.9683 30.6117 10.5966C29.9083 10.225 29.1286 10.0208 28.3333 10H5C-4.085 10.62 1.66667 24.4183 4.01833 28.1867C5.07294 29.7842 6.51087 31.0922 8.20088 31.9912C9.8909 32.8902 11.7792 33.3516 13.6933 33.3333H19.6383C21.5216 33.3506 23.38 32.9033 25.0492 32.0312C26.7184 31.1591 28.1469 29.889 29.2083 28.3333H33.3333C41.3567 28.1783 42.9317 16.37 33.3333 16.6667ZM19.6383 30H13.6933C12.3336 30.0183 10.991 29.6955 9.78827 29.0611C8.58551 28.4267 7.56097 27.5009 6.80833 26.3683C5.90167 25.5 0.823333 13.3333 5 13.3333H28.3333C28.5626 13.3326 28.7895 13.3805 28.9989 13.4738C29.2084 13.5672 29.3956 13.7039 29.5483 13.875C29.7108 14.054 29.8335 14.2653 29.9085 14.4951C29.9835 14.7249 30.009 14.968 29.9833 15.2083C29.045 22.3067 27.28 29.685 19.6383 30ZM33.3333 25H30.98C31.6651 23.3867 32.1975 21.7127 32.57 20C34.585 19.865 36.8133 20.36 36.6667 21.905C36.6125 22.7494 36.2368 23.541 35.6167 24.1167C34.9966 24.6924 34.1794 25.0086 33.3333 25ZM15.0417 5V1.66667C15.0417 1.22464 15.2173 0.800716 15.5298 0.488155C15.8424 0.175595 16.2663 0 16.7083 0C17.1504 0 17.5743 0.175595 17.8868 0.488155C18.1994 0.800716 18.375 1.22464 18.375 1.66667V5C18.375 5.44203 18.1994 5.86595 17.8868 6.17851C17.5743 6.49107 17.1504 6.66667 16.7083 6.66667C16.2663 6.66667 15.8424 6.49107 15.5298 6.17851C15.2173 5.86595 15.0417 5.44203 15.0417 5ZM21.7083 5V1.66667C21.7083 1.22464 21.8839 0.800716 22.1965 0.488155C22.509 0.175595 22.933 0 23.375 0C23.817 0 24.241 0.175595 24.5535 0.488155C24.8661 0.800716 25.0417 1.22464 25.0417 1.66667V5C25.0417 5.44203 24.8661 5.86595 24.5535 6.17851C24.241 6.49107 23.817 6.66667 23.375 6.66667C22.933 6.66667 22.509 6.49107 22.1965 6.17851C21.8839 5.86595 21.7083 5.44203 21.7083 5ZM8.375 5V1.66667C8.375 1.22464 8.55059 0.800716 8.86315 0.488155C9.17572 0.175595 9.59964 0 10.0417 0C10.4837 0 10.9076 0.175595 11.2202 0.488155C11.5327 0.800716 11.7083 1.22464 11.7083 1.66667V5C11.7083 5.44203 11.5327 5.86595 11.2202 6.17851C10.9076 6.49107 10.4837 6.66667 10.0417 6.66667C9.59964 6.66667 9.17572 6.49107 8.86315 6.17851C8.55059 5.86595 8.375 5.44203 8.375 5ZM33.3333 38.3333C33.3333 38.7754 33.1577 39.1993 32.8452 39.5118C32.5326 39.8244 32.1087 40 31.6667 40H1.66667C1.22464 40 0.800716 39.8244 0.488155 39.5118C0.175595 39.1993 0 38.7754 0 38.3333C0 37.8913 0.175595 37.4674 0.488155 37.1548C0.800716 36.8423 1.22464 36.6667 1.66667 36.6667H31.6667C32.1087 36.6667 32.5326 36.8423 32.8452 37.1548C33.1577 37.4674 33.3333 37.8913 33.3333 38.3333Z" fill="white"/>
</g>
<defs>
<clipPath id="clip0_1_1427">
<rect width="40" height="40" fill="white"/>
</clipPath>
</defs>
</svg>
