<svg width="32" height="33" viewBox="0 0 32 33" fill="none" xmlns="http://www.w3.org/2000/svg">
<path d="M22.6667 18.099H14.6667V10.099C14.6667 7.89363 12.872 6.09896 10.6667 6.09896H5.33333C2.392 6.09896 0 8.49096 0 11.4323V27.4323C0 30.3736 2.392 32.7656 5.33333 32.7656H21.3333C24.2747 32.7656 26.6667 30.3736 26.6667 27.4323V22.099C26.6667 19.8936 24.872 18.099 22.6667 18.099ZM2.66667 11.4323C2.66667 9.96163 3.86267 8.76562 5.33333 8.76562H10.6667C11.4013 8.76562 12 9.36296 12 10.099V18.099H8.95333C9.19067 17.3163 9.33333 16.5363 9.33333 16.099C9.33333 14.995 8.43733 14.099 7.33333 14.099C6.22933 14.099 5.33333 14.995 5.33333 16.099C5.33333 16.5363 5.47467 17.3163 5.71333 18.099H2.66667V11.4323ZM12 30.099H5.33333C3.86267 30.099 2.66667 28.903 2.66667 27.4323V20.7656H12V23.8123C11.2173 23.575 10.4373 23.4323 10 23.4323C8.896 23.4323 8 24.3283 8 25.4323C8 26.5363 8.896 27.4323 10 27.4323C10.4373 27.4323 11.2173 27.291 12 27.0523V30.099ZM24 27.4323C24 28.903 22.804 30.099 21.3333 30.099H14.6667V20.7656H17.7133C17.476 21.5483 17.3333 22.3283 17.3333 22.7656C17.3333 23.8696 18.2293 24.7656 19.3333 24.7656C20.4373 24.7656 21.3333 23.8696 21.3333 22.7656C21.3333 22.3283 21.192 21.5483 20.9533 20.7656H22.6667C23.4013 20.7656 24 21.363 24 22.099V27.4323ZM32 6.09896V10.7656C32 11.8696 31.104 12.7656 30 12.7656H27.62C27.8573 13.5483 28 14.3283 28 14.7656C28 15.8696 27.104 16.7656 26 16.7656C24.896 16.7656 24 15.8696 24 14.7656C24 14.3283 24.1413 13.5483 24.38 12.7656H22C20.896 12.7656 20 11.8696 20 10.7656V8.38563C20.7827 8.62296 21.5627 8.76562 22 8.76562C23.104 8.76562 24 7.86963 24 6.76562C24 5.66162 23.104 4.76562 22 4.76562C21.5627 4.76562 20.7827 4.90696 20 5.14563V2.76562C20 1.66163 20.896 0.765625 22 0.765625H26.6667C29.612 0.765625 32 3.15363 32 6.09896Z" fill="#FF6137"/>
</svg>
