<svg width="25" height="33" viewBox="0 0 25 33" fill="none" xmlns="http://www.w3.org/2000/svg">
<path d="M20.9919 3.81537C18.4479 1.54337 15.0319 0.460699 11.6079 0.846033C6.20521 1.4567 1.78655 5.81003 1.09988 11.1967C0.601214 15.1047 1.95855 18.8767 4.82388 21.5447C6.65721 23.25 7.66655 25.4114 7.66655 27.6327V27.8474C7.66655 30.5607 9.87321 32.7674 12.5865 32.7674H13.4119C16.1252 32.7674 18.3319 30.5607 18.3319 27.8474V27.1154C18.3319 25.134 19.2479 23.2407 20.9079 21.7847C23.5079 19.5074 24.9985 16.2207 24.9985 12.7674C24.9985 9.35403 23.5385 6.09137 20.9919 3.81537ZM13.4119 30.1007H12.5865C11.3439 30.1007 10.3332 29.09 10.3332 27.8474V27.6327C10.3332 27.566 10.3319 27.4994 10.3305 27.434H15.6665V27.8474C15.6665 29.09 14.6545 30.1007 13.4132 30.1007H13.4119ZM19.1505 19.7794C17.5812 21.1554 16.4865 22.8994 15.9825 24.7674H9.91855C9.35855 22.8594 8.24121 21.0807 6.64121 19.5927C4.41321 17.518 3.35721 14.5807 3.74655 11.5354C4.27855 7.35137 7.71188 3.97137 11.9079 3.4967C12.2785 3.45537 12.6465 3.43403 13.0119 3.43403C15.3119 3.43403 17.4825 4.2567 19.2145 5.8047C21.1959 7.57537 22.3332 10.1127 22.3332 12.7674C22.3332 15.4514 21.1732 18.0074 19.1505 19.7794ZM18.3332 16.7674C18.3332 18.9727 16.5385 20.7674 14.3332 20.7674V22.1007C14.3332 22.8367 13.7372 23.434 12.9999 23.434C12.2625 23.434 11.6665 22.8367 11.6665 22.1007V20.7674H11.3092C9.88655 20.7674 8.55855 20.002 7.84521 18.7687C7.47588 18.1314 7.69455 17.3167 8.33055 16.9474C8.96921 16.5767 9.78388 16.7967 10.1519 17.434C10.3905 17.8447 10.8332 18.1007 11.3079 18.1007H14.3319C15.0679 18.1007 15.6652 17.502 15.6652 16.7674C15.6652 16.2634 15.3039 15.8367 14.8065 15.754L10.7519 15.078C8.96255 14.7807 7.66521 13.2474 7.66521 11.434C7.66521 9.2287 9.45988 7.43403 11.6652 7.43403V6.1007C11.6652 5.3647 12.2612 4.76737 12.9985 4.76737C13.7359 4.76737 14.3319 5.3647 14.3319 6.1007V7.43403H14.6892C16.1119 7.43403 17.4399 8.2007 18.1532 9.43403C18.5225 10.0714 18.3039 10.886 17.6679 11.2554C17.0279 11.6234 16.2132 11.406 15.8465 10.7687C15.6079 10.3567 15.1652 10.102 14.6905 10.102H11.6665C10.9305 10.102 10.3332 10.7007 10.3332 11.4354C10.3332 11.9394 10.6945 12.366 11.1919 12.4487L15.2465 13.1247C17.0359 13.422 18.3332 14.9554 18.3332 16.7687V16.7674Z" fill="#FF6137"/>
</svg>
