<svg width="32" height="33" viewBox="0 0 32 33" fill="none" xmlns="http://www.w3.org/2000/svg">
<path d="M11.9533 32.7656H5.33333C3.91885 32.7656 2.56229 32.2037 1.5621 31.2035C0.561903 30.2033 0 28.8468 0 27.4323V20.7656C0 19.3511 0.561903 17.9946 1.5621 16.9944C2.56229 15.9942 3.91885 15.4323 5.33333 15.4323H17.1427C17.8643 15.4326 18.5736 15.6192 19.2019 15.9741C19.8303 16.3289 20.3564 16.8399 20.7293 17.4576L25.0187 12.7443C25.3735 12.3541 25.8017 12.0377 26.2788 11.8132C26.7559 11.5886 27.2726 11.4603 27.7994 11.4355C28.3262 11.4107 28.8526 11.49 29.3487 11.6688C29.8448 11.8477 30.3008 12.1225 30.6907 12.4776C31.4685 13.1922 31.9346 14.1836 31.9887 15.2385C32.0429 16.2933 31.6806 17.3272 30.98 18.1176L21.9133 28.3003C20.6615 29.7043 19.127 30.8279 17.4106 31.5975C15.6941 32.367 13.8344 32.7651 11.9533 32.7656ZM5.33333 18.099C4.62609 18.099 3.94781 18.3799 3.44772 18.88C2.94762 19.3801 2.66667 20.0584 2.66667 20.7656V27.4323C2.66667 28.1395 2.94762 28.8178 3.44772 29.3179C3.94781 29.818 4.62609 30.099 5.33333 30.099H11.9533C13.4572 30.0984 14.944 29.7799 16.3163 29.1646C17.6885 28.5492 18.9152 27.6509 19.916 26.5283L28.9893 16.3443C29.2249 16.0789 29.3468 15.7317 29.3289 15.3773C29.3109 15.0229 29.1545 14.6898 28.8933 14.4496C28.6278 14.2109 28.2795 14.0851 27.9227 14.099C27.7458 14.1064 27.5721 14.1491 27.4119 14.2244C27.2516 14.2997 27.108 14.4062 26.9893 14.5376L21.088 21.0323C20.8289 21.7493 20.38 22.3825 19.7892 22.8644C19.1984 23.3463 18.4878 23.6587 17.7333 23.7683L10.852 24.7523C10.5019 24.8025 10.1462 24.7116 9.86316 24.4996C9.58011 24.2875 9.39288 23.9717 9.34267 23.6216C9.29245 23.2715 9.38337 22.9158 9.59541 22.6328C9.80745 22.3497 10.1232 22.1625 10.4733 22.1123L17.356 21.1296C17.738 21.0762 18.0856 20.8798 18.3284 20.58C18.5712 20.2803 18.6912 19.8995 18.6641 19.5147C18.637 19.1299 18.4649 18.7697 18.1825 18.5069C17.9001 18.2441 17.5284 18.0983 17.1427 18.099H5.33333ZM14.6667 12.8643C14.0623 12.8659 13.4757 12.6608 13.004 12.283C10.7213 10.451 8 7.69896 8 5.03229C7.96726 3.93678 8.36971 2.87288 9.11931 2.07331C9.86891 1.27374 10.9047 0.803561 12 0.765625C12.9965 0.769506 13.9525 1.16005 14.6667 1.85496C15.3808 1.16005 16.3369 0.769506 17.3333 0.765625C18.4287 0.803561 19.4644 1.27374 20.214 2.07331C20.9636 2.87288 21.3661 3.93678 21.3333 5.03229C21.3333 7.69896 18.612 10.451 16.328 12.2843C15.8565 12.6614 15.2704 12.866 14.6667 12.8643ZM12 3.43229C11.6125 3.47118 11.2557 3.66058 11.0063 3.95979C10.757 4.259 10.635 4.6441 10.6667 5.03229C10.6667 6.23229 12.2013 8.21896 14.6747 10.2043C17.132 8.21896 18.6667 6.23229 18.6667 5.03229C18.6983 4.6441 18.5763 4.259 18.327 3.95979C18.0777 3.66058 17.7209 3.47118 17.3333 3.43229C16.9458 3.47118 16.589 3.66058 16.3397 3.95979C16.0903 4.259 15.9684 4.6441 16 5.03229C16 5.38591 15.8595 5.72505 15.6095 5.9751C15.3594 6.22515 15.0203 6.36562 14.6667 6.36562C14.313 6.36562 13.9739 6.22515 13.7239 5.9751C13.4738 5.72505 13.3333 5.38591 13.3333 5.03229C13.365 4.6441 13.243 4.259 12.9937 3.95979C12.7443 3.66058 12.3875 3.47118 12 3.43229Z" fill="#FF6137"/>
</svg>
