<svg width="32" height="33" viewBox="0 0 32 33" fill="none" xmlns="http://www.w3.org/2000/svg">
<path d="M16 32.7656C7.17333 32.7656 0 25.5923 0 16.7656C0 7.93896 7.17333 0.765625 16 0.765625C24.8267 0.765625 32 7.93896 32 16.7656C32 25.5923 24.8267 32.7656 16 32.7656ZM16 3.43229C8.65333 3.43229 2.66667 9.41896 2.66667 16.7656C2.66667 24.1123 8.65333 30.099 16 30.099C23.3467 30.099 29.3333 24.1123 29.3333 16.7656C29.3333 9.41896 23.3467 3.43229 16 3.43229ZM16 24.5523C15.3333 24.5523 14.68 24.339 14.1333 23.899C11.3333 21.6456 8 18.299 8 15.099C8 12.339 10.0933 10.099 12.6667 10.099C13.9733 10.099 15.1467 10.6723 16 11.6056C16.8533 10.6723 18.0267 10.099 19.3333 10.099C21.9067 10.099 24 12.339 24 15.099C24 18.3123 20.6667 21.659 17.8667 23.899C17.32 24.339 16.6667 24.5523 16 24.5523ZM12.6667 12.7656C11.56 12.7656 10.6667 13.819 10.6667 15.099C10.6667 16.699 12.64 19.2856 15.8 21.819C15.92 21.9123 16.08 21.9123 16.2 21.819C19.36 19.2723 21.3333 16.699 21.3333 15.099C21.3333 13.819 20.44 12.7656 19.3333 12.7656C18.2267 12.7656 17.3333 13.819 17.3333 15.099C17.3333 15.8323 16.7333 16.4323 16 16.4323C15.2667 16.4323 14.6667 15.8323 14.6667 15.099C14.6667 13.819 13.7733 12.7656 12.6667 12.7656Z" fill="#FF6137"/>
</svg>
