<svg width="24" height="24" viewBox="0 0 24 24" fill="none" xmlns="http://www.w3.org/2000/svg">
<path d="M12 21.25C12.1989 21.25 12.3897 21.329 12.5303 21.4697C12.671 21.6103 12.75 21.8011 12.75 22C12.75 22.1989 12.671 22.3897 12.5303 22.5303C12.3897 22.671 12.1989 22.75 12 22.75H4C3.271 22.75 2.571 22.46 2.055 21.945C1.5398 21.4288 1.25031 20.7293 1.25 20V4C1.25 3.271 1.54 2.571 2.055 2.055C2.57122 1.5398 3.27067 1.25031 4 1.25H12.586C13.05 1.25 13.495 1.434 13.823 1.763L18.237 6.177C18.566 6.505 18.75 6.95 18.75 7.414V11C18.75 11.1989 18.671 11.3897 18.5303 11.5303C18.3897 11.671 18.1989 11.75 18 11.75C17.8011 11.75 17.6103 11.671 17.4697 11.5303C17.329 11.3897 17.25 11.1989 17.25 11V7.414C17.2501 7.38115 17.2436 7.34861 17.2311 7.31823C17.2186 7.28786 17.2002 7.26026 17.177 7.237L12.763 2.823C12.7397 2.7998 12.7121 2.78141 12.6818 2.76888C12.6514 2.75636 12.6189 2.74994 12.586 2.75H4C3.66864 2.75053 3.35101 2.88239 3.1167 3.1167C2.88239 3.35101 2.75053 3.66864 2.75 4V20C2.75053 20.3314 2.88239 20.649 3.1167 20.8833C3.35101 21.1176 3.66864 21.2495 4 21.25H12Z" fill="#FF6137"/>
<path d="M12.25 2.5C12.25 2.30109 12.329 2.11032 12.4697 1.96967C12.6103 1.82902 12.8011 1.75 13 1.75C13.1989 1.75 13.3897 1.82902 13.5303 1.96967C13.671 2.11032 13.75 2.30109 13.75 2.5V6C13.75 6.138 13.862 6.25 14 6.25H17.5C17.6989 6.25 17.8897 6.32902 18.0303 6.46967C18.171 6.61032 18.25 6.80109 18.25 7C18.25 7.19891 18.171 7.38968 18.0303 7.53033C17.8897 7.67098 17.6989 7.75 17.5 7.75H14C13.5359 7.75 13.0908 7.56563 12.7626 7.23744C12.4344 6.90925 12.25 6.46413 12.25 6V2.5ZM6 11.25C5.80109 11.25 5.61032 11.171 5.46967 11.0303C5.32902 10.8897 5.25 10.6989 5.25 10.5C5.25 10.3011 5.32902 10.1103 5.46967 9.96967C5.61032 9.82902 5.80109 9.75 6 9.75H14C14.1989 9.75 14.3897 9.82902 14.5303 9.96967C14.671 10.1103 14.75 10.3011 14.75 10.5C14.75 10.6989 14.671 10.8897 14.5303 11.0303C14.3897 11.171 14.1989 11.25 14 11.25H6ZM6 14.75C5.80109 14.75 5.61032 14.671 5.46967 14.5303C5.32902 14.3897 5.25 14.1989 5.25 14C5.25 13.8011 5.32902 13.6103 5.46967 13.4697C5.61032 13.329 5.80109 13.25 6 13.25H10.5C10.6989 13.25 10.8897 13.329 11.0303 13.4697C11.171 13.6103 11.25 13.8011 11.25 14C11.25 14.1989 11.171 14.3897 11.0303 14.5303C10.8897 14.671 10.6989 14.75 10.5 14.75H6ZM6 18.25C5.80109 18.25 5.61032 18.171 5.46967 18.0303C5.32902 17.8897 5.25 17.6989 5.25 17.5C5.25 17.3011 5.32902 17.1103 5.46967 16.9697C5.61032 16.829 5.80109 16.75 6 16.75H10.5C10.6989 16.75 10.8897 16.829 11.0303 16.9697C11.171 17.1103 11.25 17.3011 11.25 17.5C11.25 17.6989 11.171 17.8897 11.0303 18.0303C10.8897 18.171 10.6989 18.25 10.5 18.25H6Z" fill="#FF6137"/>
<path d="M17.8613 19.125C18.6898 19.125 19.3613 18.4534 19.3613 17.625C19.3613 16.7966 18.6898 16.125 17.8613 16.125C17.0329 16.125 16.3613 16.7966 16.3613 17.625C16.3613 18.4534 17.0329 19.125 17.8613 19.125Z" fill="#FF6137"/>
<path d="M19.3969 13.044L19.7509 13.899C19.8859 13.967 20.0169 14.043 20.1439 14.125L21.0619 14.005C21.1844 13.9893 21.3088 14.0039 21.4243 14.0477C21.5397 14.0915 21.6426 14.163 21.7239 14.256C22.1599 14.756 22.4949 15.337 22.7109 15.965C22.7508 16.082 22.7612 16.207 22.7411 16.3289C22.7211 16.4509 22.6712 16.566 22.5959 16.664L22.0339 17.398C22.0419 17.549 22.0419 17.701 22.0339 17.851L22.5959 18.586C22.6712 18.684 22.7211 18.7991 22.7411 18.9211C22.7612 19.043 22.7508 19.168 22.7109 19.285C22.4952 19.913 22.16 20.4933 21.7239 20.994C21.6426 21.087 21.5397 21.1585 21.4243 21.2023C21.3088 21.2461 21.1844 21.2607 21.0619 21.245C21.0619 21.245 20.1439 21.125 20.1449 21.124C20.0181 21.2067 19.8869 21.2825 19.7519 21.351L19.3969 22.206C19.3496 22.3201 19.2749 22.4207 19.1792 22.4989C19.0836 22.5771 18.9701 22.6304 18.8489 22.654C18.1971 22.782 17.5267 22.782 16.8749 22.654C16.7537 22.6304 16.6402 22.5771 16.5446 22.4989C16.4489 22.4207 16.3742 22.3201 16.3269 22.206L15.9729 21.351C15.8379 21.2829 15.7067 21.2075 15.5799 21.125L14.6619 21.245C14.5394 21.2608 14.4149 21.2462 14.2995 21.2024C14.184 21.1586 14.0811 21.087 13.9999 20.994C13.5631 20.4938 13.2278 19.9133 13.0129 19.285C12.973 19.1681 12.9626 19.0431 12.9825 18.9212C13.0023 18.7993 13.052 18.6842 13.1269 18.586L13.6899 17.852C13.6819 17.7011 13.6819 17.5499 13.6899 17.399L13.1269 16.664C13.052 16.5658 13.0023 16.4507 12.9825 16.3288C12.9626 16.2068 12.973 16.0819 13.0129 15.965C13.2279 15.337 13.5629 14.756 13.9999 14.256C14.0811 14.163 14.184 14.0914 14.2995 14.0476C14.4149 14.0038 14.5394 13.9892 14.6619 14.005C14.6619 14.005 15.5799 14.125 15.5789 14.126C15.7059 14.043 15.8369 13.967 15.9719 13.899L16.3269 13.044C16.3742 12.9299 16.4489 12.8292 16.5446 12.7511C16.6402 12.6729 16.7537 12.6196 16.8749 12.596C17.5267 12.468 18.1971 12.468 18.8489 12.596C18.9701 12.6196 19.0836 12.6729 19.1792 12.7511C19.2749 12.8292 19.3496 12.9299 19.3969 13.044ZM18.1749 14.014C17.9666 13.9955 17.7572 13.9955 17.5489 14.014L17.2449 14.745C17.1686 14.9284 17.0225 15.0741 16.8389 15.15C16.6212 15.2399 16.4164 15.3582 16.2299 15.502C16.0721 15.6228 15.873 15.6764 15.6759 15.651L14.8909 15.548C14.7709 15.72 14.6659 15.901 14.5779 16.091L15.0589 16.719C15.1797 16.8771 15.233 17.0767 15.2069 17.274C15.1759 17.507 15.1759 17.743 15.2069 17.976C15.233 18.1733 15.1797 18.3729 15.0589 18.531L14.5779 19.16C14.6659 19.349 14.7709 19.531 14.8909 19.702L15.6759 19.599C15.873 19.5736 16.0721 19.6272 16.2299 19.748C16.4169 19.892 16.6209 20.01 16.8389 20.1C17.0225 20.1759 17.1686 20.3215 17.2449 20.505L17.5489 21.236C17.7569 21.255 17.9669 21.255 18.1749 21.236L18.4789 20.505C18.5552 20.3215 18.7013 20.1759 18.8849 20.1C19.1019 20.01 19.3069 19.892 19.4939 19.748C19.6517 19.6272 19.8508 19.5736 20.0479 19.599L20.8329 19.702C20.9529 19.53 21.0579 19.349 21.1459 19.159L20.6649 18.531C20.5441 18.3729 20.4909 18.1733 20.5169 17.976C20.5469 17.743 20.5469 17.507 20.5169 17.274C20.4909 17.0767 20.5441 16.8771 20.6649 16.719L21.1459 16.09C21.0573 15.9007 20.9526 15.7194 20.8329 15.548L20.0479 15.651C19.8508 15.6764 19.6517 15.6228 19.4939 15.502C19.3072 15.3584 19.1025 15.2401 18.8849 15.15C18.7013 15.0741 18.5552 14.9284 18.4789 14.745L18.1749 14.014Z" fill="#FF6137"/>
</svg>
