<svg width="24" height="24" viewBox="0 0 24 24" fill="none" xmlns="http://www.w3.org/2000/svg">
<g clip-path="url(#clip0_1075_11751)">
<path d="M23.2969 9.75L9.75 23.2969L9.35555 22.8942C8.33386 21.8513 6.65738 21.8426 5.625 22.875L1.125 18.375C2.15738 17.3426 2.14875 15.6661 1.10578 14.6445L0.703125 14.25L14.25 0.703125L14.6445 1.10578C15.6661 2.14875 17.3426 2.15738 18.375 1.125L22.875 5.625C21.8426 6.65738 21.8513 8.33386 22.8942 9.35555L23.2969 9.75Z" stroke="#FF6137" stroke-width="1.40625" stroke-miterlimit="10" stroke-linecap="round" stroke-linejoin="round"/>
<path d="M15.3052 5.62711C15.3052 5.62711 14.5411 5.65795 14.1131 6.45516C13.72 7.18711 14.35 8.09648 15.0321 8.01403C15.4237 7.96669 15.8955 7.77797 16.4979 7.4902C17.8462 6.84614 18.8829 8.61928 17.8763 9.63937C17.4835 10.0374 17.2735 10.1972 16.6989 10.3174M18.375 10.125L17.8765 9.63947M14.3521 6.11508L13.875 5.625M7.875 7.125L9.375 8.625M15.375 14.625L16.875 16.125M11.625 10.875L13.125 12.375M5.25 16.5L9 12.75M7.5 18.75L9.375 16.875M3 0.703125V1.5M0.703125 3H1.5M3 5.25V4.5M5.25 3H4.5M21 18.75V19.5M18.75 21H19.5M21 23.2969V22.5M23.2969 21H22.5" stroke="#FF6137" stroke-width="1.40625" stroke-miterlimit="10" stroke-linecap="round" stroke-linejoin="round"/>
</g>
<defs>
<clipPath id="clip0_1075_11751">
<rect width="24" height="24" fill="white"/>
</clipPath>
</defs>
</svg>
