<svg width="32" height="33" viewBox="0 0 32 33" fill="none" xmlns="http://www.w3.org/2000/svg">
<mask id="mask0_468_5038" style="mask-type:alpha" maskUnits="userSpaceOnUse" x="0" y="0" width="32" height="33">
<rect y="0.128906" width="32" height="32" fill="#D9D9D9"/>
</mask>
<g mask="url(#mask0_468_5038)">
<path d="M15.9996 28.1289C14.5329 28.1289 13.2774 27.6067 12.2329 26.5622C11.1885 25.5178 10.6663 24.2622 10.6663 22.7956C10.6663 21.3289 11.1885 20.0734 12.2329 19.0289C13.2774 17.9845 14.5329 17.4622 15.9996 17.4622C17.4663 17.4622 18.7218 17.9845 19.7663 19.0289C20.8107 20.0734 21.3329 21.3289 21.3329 22.7956C21.3329 24.2622 20.8107 25.5178 19.7663 26.5622C18.7218 27.6067 17.4663 28.1289 15.9996 28.1289ZM15.9996 25.4622C16.7329 25.4622 17.3607 25.2011 17.8829 24.6789C18.4052 24.1567 18.6663 23.5289 18.6663 22.7956C18.6663 22.0622 18.4052 21.4345 17.8829 20.9122C17.3607 20.39 16.7329 20.1289 15.9996 20.1289C15.2663 20.1289 14.6385 20.39 14.1163 20.9122C13.5941 21.4345 13.3329 22.0622 13.3329 22.7956C13.3329 23.5289 13.5941 24.1567 14.1163 24.6789C14.6385 25.2011 15.2663 25.4622 15.9996 25.4622ZM4.06628 11.5956L2.09961 9.76224C3.89961 8.00668 5.9885 6.62891 8.36628 5.62891C10.7441 4.62891 13.2885 4.12891 15.9996 4.12891C18.7107 4.12891 21.2552 4.62891 23.6329 5.62891C26.0107 6.62891 28.0996 8.00668 29.8996 9.76224L27.9329 11.5956C26.3552 10.1067 24.5552 8.93446 22.5329 8.07891C20.5107 7.22335 18.3329 6.79557 15.9996 6.79557C13.6663 6.79557 11.4885 7.22335 9.46628 8.07891C7.44405 8.93446 5.64405 10.1067 4.06628 11.5956ZM23.0663 16.1622C22.1329 15.3178 21.0663 14.6567 19.8663 14.1789C18.6663 13.7011 17.3774 13.4622 15.9996 13.4622C14.6218 13.4622 13.3385 13.7011 12.1496 14.1789C10.9607 14.6567 9.8885 15.3178 8.93294 16.1622L6.96628 14.3289C8.16628 13.2178 9.5385 12.3511 11.0829 11.7289C12.6274 11.1067 14.2663 10.7956 15.9996 10.7956C17.7329 10.7956 19.3663 11.1067 20.8996 11.7289C22.4329 12.3511 23.7996 13.2178 24.9996 14.3289L23.0663 16.1622Z" fill="#FF6137"/>
</g>
</svg>
