<svg width="32" height="33" viewBox="0 0 32 33" fill="none" xmlns="http://www.w3.org/2000/svg">
<mask id="mask0_468_5022" style="mask-type:alpha" maskUnits="userSpaceOnUse" x="0" y="0" width="32" height="33">
<rect y="0.128906" width="32" height="32" fill="#D9D9D9"/>
</mask>
<g mask="url(#mask0_468_5022)">
<path d="M14.7993 25.4635H17.1327V23.7969C18.2438 23.5969 19.1993 23.1635 19.9993 22.4969C20.7993 21.8302 21.1993 20.8413 21.1993 19.5302C21.1993 18.5969 20.9327 17.7413 20.3993 16.9635C19.866 16.1858 18.7993 15.508 17.1993 14.9302C15.866 14.4858 14.9438 14.0969 14.4327 13.7635C13.9216 13.4302 13.666 12.9747 13.666 12.3969C13.666 11.8191 13.8716 11.3635 14.2827 11.0302C14.6938 10.6969 15.2882 10.5302 16.066 10.5302C16.7771 10.5302 17.3327 10.7024 17.7327 11.0469C18.1327 11.3913 18.4216 11.8191 18.5993 12.3302L20.7327 11.4635C20.4882 10.6858 20.0382 10.008 19.3827 9.43021C18.7271 8.85243 17.9993 8.53021 17.1993 8.46354V6.79687H14.866V8.46354C13.7549 8.70799 12.8882 9.19687 12.266 9.93021C11.6438 10.6635 11.3327 11.4858 11.3327 12.3969C11.3327 13.4413 11.6382 14.2858 12.2493 14.9302C12.8605 15.5747 13.8216 16.1302 15.1327 16.5969C16.5327 17.108 17.5049 17.5635 18.0493 17.9635C18.5938 18.3635 18.866 18.8858 18.866 19.5302C18.866 20.2635 18.6049 20.8024 18.0827 21.1469C17.5605 21.4913 16.9327 21.6635 16.1993 21.6635C15.466 21.6635 14.816 21.4358 14.2493 20.9802C13.6827 20.5247 13.266 19.8413 12.9993 18.9302L10.7993 19.7969C11.1105 20.8635 11.5938 21.7247 12.2493 22.3802C12.9049 23.0358 13.7549 23.4858 14.7993 23.7302V25.4635ZM15.9993 29.4635C14.1549 29.4635 12.4216 29.1135 10.7993 28.4135C9.17713 27.7135 7.76602 26.7635 6.56602 25.5635C5.36602 24.3635 4.41602 22.9524 3.71602 21.3302C3.01602 19.708 2.66602 17.9747 2.66602 16.1302C2.66602 14.2858 3.01602 12.5524 3.71602 10.9302C4.41602 9.30799 5.36602 7.89687 6.56602 6.69687C7.76602 5.49687 9.17713 4.54688 10.7993 3.84687C12.4216 3.14687 14.1549 2.79688 15.9993 2.79688C17.8438 2.79688 19.5771 3.14687 21.1993 3.84687C22.8216 4.54688 24.2327 5.49687 25.4327 6.69687C26.6327 7.89687 27.5827 9.30799 28.2827 10.9302C28.9827 12.5524 29.3327 14.2858 29.3327 16.1302C29.3327 17.9747 28.9827 19.708 28.2827 21.3302C27.5827 22.9524 26.6327 24.3635 25.4327 25.5635C24.2327 26.7635 22.8216 27.7135 21.1993 28.4135C19.5771 29.1135 17.8438 29.4635 15.9993 29.4635ZM15.9993 26.7969C18.9771 26.7969 21.4993 25.7635 23.566 23.6969C25.6327 21.6302 26.666 19.108 26.666 16.1302C26.666 13.1524 25.6327 10.6302 23.566 8.56354C21.4993 6.49688 18.9771 5.46354 15.9993 5.46354C13.0216 5.46354 10.4993 6.49688 8.43268 8.56354C6.36602 10.6302 5.33268 13.1524 5.33268 16.1302C5.33268 19.108 6.36602 21.6302 8.43268 23.6969C10.4993 25.7635 13.0216 26.7969 15.9993 26.7969Z" fill="#FF6137"/>
</g>
</svg>
