<svg width="32" height="33" viewBox="0 0 32 33" fill="none" xmlns="http://www.w3.org/2000/svg">
<mask id="mask0_468_5030" style="mask-type:alpha" maskUnits="userSpaceOnUse" x="0" y="0" width="32" height="33">
<rect y="0.128906" width="32" height="32" fill="#D9D9D9"/>
</mask>
<g mask="url(#mask0_468_5030)">
<path d="M26.3652 30.2609L24.8652 28.7609C24.5319 29.0054 24.1763 29.1832 23.7986 29.2943C23.4208 29.4054 23.043 29.4609 22.6652 29.4609H14.6319C14.0763 29.4609 13.5486 29.3498 13.0486 29.1276C12.5486 28.9054 12.1097 28.5943 11.7319 28.1943L2.66523 18.6276L4.19857 17.1609C4.42079 16.9609 4.6819 16.8443 4.9819 16.8109C5.2819 16.7776 5.57635 16.8387 5.86523 16.9943L9.3319 18.9609V13.2276L1.86523 5.76094L3.7319 3.86094L28.2652 28.3943L26.3652 30.2609ZM14.6652 26.7943H22.6652C22.7097 26.7943 22.743 26.7887 22.7652 26.7776C22.7875 26.7665 22.8208 26.7609 22.8652 26.7609L11.9986 15.8943V21.4609H9.16524L13.6652 26.3276C13.7763 26.4832 13.9208 26.5998 14.0986 26.6776C14.2763 26.7554 14.4652 26.7943 14.6652 26.7943ZM26.6652 23.0276L23.9986 20.3609V17.4609H21.0986L18.4319 14.7943H18.6652V4.46094C18.6652 4.01649 18.8263 3.6276 19.1486 3.29427C19.4708 2.96094 19.8652 2.79427 20.3319 2.79427C20.7763 2.79427 21.1652 2.96094 21.4986 3.29427C21.8319 3.6276 21.9986 4.01649 21.9986 4.46094V14.7943H23.3319V7.1276C23.3319 6.68316 23.493 6.29427 23.8152 5.96094C24.1375 5.6276 24.5319 5.46094 24.9986 5.46094C25.443 5.46094 25.8319 5.6276 26.1652 5.96094C26.4986 6.29427 26.6652 6.68316 26.6652 7.1276V23.0276ZM17.3319 13.6943L13.9986 10.3609V3.1276C13.9986 2.68316 14.1597 2.29427 14.4819 1.96094C14.8041 1.6276 15.1986 1.46094 15.6652 1.46094C16.1097 1.46094 16.4986 1.6276 16.8319 1.96094C17.1652 2.29427 17.3319 2.68316 17.3319 3.1276V13.6943ZM12.6652 9.0276L9.3319 5.69427C9.37635 5.24983 9.55412 4.8776 9.86524 4.5776C10.1763 4.2776 10.5541 4.1276 10.9986 4.1276C11.443 4.1276 11.8319 4.29427 12.1652 4.6276C12.4986 4.96094 12.6652 5.34983 12.6652 5.79427V9.0276Z" fill="#FF6137"/>
</g>
</svg>
