<svg width="24" height="24" viewBox="0 0 24 24" fill="none" xmlns="http://www.w3.org/2000/svg">
<g clip-path="url(#clip0_1075_11743)">
<path d="M4.125 3.75H19.875M4.125 6.75H19.875M4.125 9.75H9.375M15 19.5H12.8438L12 17.25L11.1562 19.5H9L10.6235 20.9206L9.75 23.2969L12 22.125L14.25 23.2969L13.3765 20.9206L15 19.5ZM6.75 19.5H4.59375L3.75 17.25L2.90625 19.5H0.703125L2.37352 20.9206L1.5 23.2969L3.75 22.125L6 23.2969L5.12648 20.9206L6.75 19.5ZM23.2969 19.5H21.0938L20.25 17.25L19.4062 19.5H17.25L18.8735 20.9206L18 23.2969L20.25 22.125L22.5 23.2969L21.6265 20.9206L23.2969 19.5ZM0.703125 2.10938V11.3438C0.703125 12.1204 1.3327 12.75 2.10938 12.75H10.125L12 14.625L13.875 12.75H21.8906C22.6673 12.75 23.2969 12.1204 23.2969 11.3438V2.10938C23.2969 1.3327 22.6673 0.703125 21.8906 0.703125H2.10938C1.3327 0.703125 0.703125 1.3327 0.703125 2.10938Z" stroke="#FF6137" stroke-width="1.40625" stroke-miterlimit="10" stroke-linecap="round" stroke-linejoin="round"/>
</g>
<defs>
<clipPath id="clip0_1075_11743">
<rect width="24" height="24" fill="white"/>
</clipPath>
</defs>
</svg>
