<svg width="24" height="24" viewBox="0 0 24 24" fill="none" xmlns="http://www.w3.org/2000/svg">
<path d="M8.39922 7.16562V6.12162C8.39922 5.50962 8.98722 5.20242 9.52242 5.20242C9.53603 5.20395 9.5498 5.20239 9.56273 5.19786C9.57565 5.19334 9.58739 5.18596 9.59707 5.17628C9.60676 5.16659 9.61414 5.15485 9.61866 5.14193C9.62319 5.129 9.62474 5.11523 9.62322 5.10162V2.42322C9.62812 2.10136 9.75767 1.79395 9.98461 1.56566C10.2116 1.33738 10.5182 1.20602 10.84 1.19922H13.1344C13.2952 1.19922 13.4543 1.23088 13.6028 1.29239C13.7513 1.3539 13.8863 1.44406 13.9999 1.55772C14.1136 1.67138 14.2037 1.80631 14.2652 1.95481C14.3268 2.10332 14.3584 2.26248 14.3584 2.42322V5.10162C14.3601 5.1278 14.3713 5.15246 14.3898 5.17101C14.4084 5.18956 14.433 5.20072 14.4592 5.20242C15.0208 5.20242 15.5824 5.50962 15.5824 6.12162V7.16562C15.5858 7.21861 15.6084 7.26855 15.6459 7.3061C15.6835 7.34364 15.7334 7.36623 15.7864 7.36962H19.816C20.6059 7.37528 21.3617 7.69173 21.92 8.25048C22.4784 8.80923 22.7942 9.56535 22.7992 10.3552V19.816C22.7942 20.6057 22.4783 21.3615 21.9199 21.9199C21.3615 22.4783 20.6057 22.7942 19.816 22.7992H4.18242C3.39278 22.7942 2.63691 22.4783 2.07854 21.9199C1.52017 21.3615 1.20425 20.6057 1.19922 19.816V10.3552C1.20425 9.56535 1.52008 8.80923 2.07839 8.25048C2.63669 7.69173 3.39256 7.37528 4.18242 7.36962H8.18562C8.23861 7.36623 8.28855 7.34364 8.3261 7.3061C8.36364 7.26855 8.38623 7.21861 8.38962 7.16562H8.39922ZM10.864 18.2608C10.864 17.596 10.6864 17.0608 10.0984 16.6792C10.0473 16.6333 9.98351 16.604 9.91541 16.595C9.84732 16.586 9.7781 16.5978 9.71682 16.6288C9.25428 16.8306 8.75506 16.9348 8.25042 16.9348C7.74577 16.9348 7.24656 16.8306 6.78402 16.6288C6.72274 16.5978 6.65352 16.586 6.58542 16.595C6.51733 16.604 6.45354 16.6333 6.40242 16.6792C5.81442 17.0608 5.63682 17.596 5.63682 18.2608C5.6365 18.2877 5.64155 18.3144 5.65169 18.3393C5.66183 18.3642 5.67684 18.3868 5.69585 18.4058C5.71486 18.4248 5.73748 18.4398 5.76237 18.4499C5.78727 18.4601 5.81394 18.4651 5.84082 18.4648H10.66C10.6875 18.4674 10.7151 18.4639 10.7411 18.4546C10.767 18.4452 10.7905 18.4303 10.81 18.4108C10.8295 18.3913 10.8445 18.3678 10.8538 18.3419C10.8631 18.3159 10.8666 18.2883 10.864 18.2608ZM4.62402 18.2608C4.62402 16.984 5.13282 16.1176 6.30402 15.5824C6.41526 15.5248 6.53872 15.4947 6.66402 15.4947C6.78931 15.4947 6.91278 15.5248 7.02402 15.5824C7.89042 16.0408 8.62962 16.0168 9.49602 15.5824C9.60726 15.5248 9.73072 15.4947 9.85602 15.4947C9.98131 15.4947 10.1048 15.5248 10.216 15.5824C11.416 16.1176 11.9248 16.984 11.9248 18.2608C11.9222 18.2883 11.9257 18.3159 11.9351 18.3419C11.9444 18.3678 11.9593 18.3913 11.9788 18.4108C11.9983 18.4303 12.0219 18.4452 12.0478 18.4546C12.0737 18.4639 12.1014 18.4674 12.1288 18.4648H12.5608C13.2256 18.4648 13.2256 19.5088 12.5608 19.5088H3.97842C3.84609 19.4998 3.72211 19.4409 3.63156 19.344C3.541 19.2471 3.49063 19.1194 3.49063 18.9868C3.49063 18.8542 3.541 18.7265 3.63156 18.6296C3.72211 18.5327 3.84609 18.4738 3.97842 18.4648H4.41282C4.4397 18.4651 4.46637 18.4601 4.49127 18.4499C4.51616 18.4398 4.53878 18.4248 4.55779 18.4058C4.57679 18.3868 4.59181 18.3642 4.60195 18.3393C4.61208 18.3144 4.61714 18.2877 4.61682 18.2608H4.62402ZM7.83042 12.1144C7.90557 11.9986 8.02362 11.9174 8.15863 11.8886C8.29363 11.8598 8.43455 11.8858 8.55042 11.9608C8.60802 11.9981 8.65733 12.0468 8.69526 12.104C8.73318 12.1612 8.75892 12.2255 8.77085 12.2931C8.78279 12.3607 8.78067 12.43 8.76463 12.4967C8.74859 12.5634 8.71897 12.6261 8.67762 12.6808C8.50991 12.9462 8.28135 13.1679 8.01089 13.3273C7.74043 13.4867 7.43585 13.5794 7.12242 13.5976C7.1042 13.5966 7.08609 13.601 7.07031 13.6102C7.05454 13.6193 7.04178 13.6329 7.03362 13.6492C7.02546 13.6655 7.02225 13.6839 7.02438 13.702C7.02651 13.7201 7.0339 13.7372 7.04562 13.7512C7.15918 13.9773 7.33436 14.1667 7.55093 14.2975C7.76751 14.4283 8.01665 14.4952 8.26962 14.4904C8.63777 14.486 8.98922 14.3361 9.2473 14.0736C9.50539 13.811 9.64915 13.457 9.64722 13.0888C9.64817 12.9076 9.61319 12.7281 9.5443 12.5605C9.47541 12.3929 9.37397 12.2407 9.24586 12.1126C9.11774 11.9845 8.9655 11.883 8.79793 11.8141C8.63036 11.7452 8.45079 11.7103 8.26962 11.7112C8.01882 11.7055 7.77142 11.7699 7.55519 11.8971C7.33897 12.0243 7.1625 12.2093 7.04562 12.4312C6.99522 12.484 7.07202 12.5848 7.14882 12.5584C7.28973 12.5465 7.42576 12.501 7.54557 12.4259C7.66537 12.3507 7.7655 12.2481 7.83762 12.1264L7.83042 12.1144ZM8.26242 10.66C8.74194 10.6595 9.21083 10.8013 9.60977 11.0674C10.0087 11.3334 10.3198 11.7118 10.5036 12.1547C10.6874 12.5976 10.7358 13.0851 10.6425 13.5554C10.5493 14.0258 10.3186 14.458 9.97969 14.7972C9.64079 15.1364 9.20888 15.3675 8.7386 15.4613C8.26833 15.555 7.78082 15.5071 7.33775 15.3237C6.89468 15.1403 6.51596 14.8296 6.2495 14.431C5.98304 14.0323 5.84082 13.5635 5.84082 13.084C5.83987 12.7656 5.90184 12.4502 6.02317 12.1558C6.1445 11.8615 6.3228 11.594 6.54783 11.3687C6.77285 11.1435 7.04016 10.9649 7.33441 10.8433C7.62865 10.7217 7.94403 10.6594 8.26242 10.66ZM19.9192 11.5528C20.584 11.5528 20.584 12.5992 19.9192 12.5992H14.3992C13.7368 12.5992 13.7368 11.5528 14.3992 11.5528H19.9192ZM17.2792 16.0912C17.3491 16.0864 17.4193 16.096 17.4853 16.1195C17.5514 16.143 17.6119 16.1797 17.6631 16.2276C17.7143 16.2754 17.7552 16.3332 17.7831 16.3975C17.811 16.4618 17.8254 16.5311 17.8254 16.6012C17.8254 16.6713 17.811 16.7406 17.7831 16.8049C17.7552 16.8692 17.7143 16.927 17.6631 16.9749C17.6119 17.0227 17.5514 17.0595 17.4853 17.0829C17.4193 17.1064 17.3491 17.116 17.2792 17.1112H14.536C14.4661 17.116 14.3959 17.1064 14.3299 17.0829C14.2639 17.0595 14.2034 17.0227 14.1521 16.9749C14.1009 16.927 14.0601 16.8692 14.0321 16.8049C14.0042 16.7406 13.9898 16.6713 13.9898 16.6012C13.9898 16.5311 14.0042 16.4618 14.0321 16.3975C14.0601 16.3332 14.1009 16.2754 14.1521 16.2276C14.2034 16.1797 14.2639 16.143 14.3299 16.1195C14.3959 16.096 14.4661 16.0864 14.536 16.0912H17.2792ZM20.02 13.8232C20.6824 13.8232 20.6824 14.8432 20.02 14.8432H14.536C14.4661 14.848 14.3959 14.8384 14.3299 14.8149C14.2639 14.7915 14.2034 14.7547 14.1521 14.7069C14.1009 14.659 14.0601 14.6012 14.0321 14.5369C14.0042 14.4726 13.9898 14.4033 13.9898 14.3332C13.9898 14.2631 14.0042 14.1938 14.0321 14.1295C14.0601 14.0652 14.1009 14.0074 14.1521 13.9596C14.2034 13.9117 14.2639 13.875 14.3299 13.8515C14.3959 13.828 14.4661 13.8184 14.536 13.8232H20.02ZM14.5624 7.36962V6.32562C14.5587 6.30125 14.5463 6.27904 14.5276 6.26299C14.5089 6.24693 14.4851 6.23811 14.4604 6.23811C14.4358 6.23811 14.4119 6.24693 14.3932 6.26299C14.3745 6.27904 14.3622 6.30125 14.3584 6.32562V7.16562C14.3618 7.21861 14.3844 7.26855 14.4219 7.3061C14.4595 7.34364 14.5094 7.36623 14.5624 7.36962ZM14.3584 8.59362C14.3423 8.90621 14.2059 9.20045 13.9778 9.41474C13.7496 9.62902 13.4474 9.74673 13.1344 9.74322H10.84C10.5303 9.74349 10.2325 9.624 10.0088 9.40975C9.78517 9.19549 9.65303 8.90306 9.64002 8.59362C9.63134 8.53639 9.60227 8.48423 9.55817 8.44674C9.51406 8.40925 9.4579 8.38896 9.40002 8.38962H4.18242C3.66288 8.39463 3.16608 8.60341 2.79892 8.97101C2.43176 9.33862 2.2236 9.83568 2.21922 10.3552V19.816C2.22422 20.3351 2.43267 20.8316 2.79976 21.1987C3.16685 21.5658 3.6633 21.7742 4.18242 21.7792H19.816C20.3325 21.7735 20.8258 21.564 21.1886 21.1963C21.5513 20.8286 21.7541 20.3325 21.7528 19.816V10.3552C21.7522 9.83996 21.5486 9.34569 21.186 8.97955C20.8235 8.61341 20.3312 8.4049 19.816 8.39922H14.5624C14.5094 8.40261 14.4595 8.42519 14.4219 8.46274C14.3844 8.50029 14.3618 8.55023 14.3584 8.60322V8.59362ZM9.61362 7.36962V6.32562C9.60987 6.30125 9.59752 6.27904 9.57881 6.26299C9.56011 6.24693 9.53627 6.23811 9.51162 6.23811C9.48697 6.23811 9.46313 6.24693 9.44442 6.26299C9.42571 6.27904 9.41337 6.30125 9.40962 6.32562V7.16562C9.41301 7.21861 9.43559 7.26855 9.47314 7.3061C9.51069 7.34364 9.56063 7.36623 9.61362 7.36962ZM12.4936 2.34642V4.02642C12.4984 4.09633 12.4888 4.16649 12.4653 4.23253C12.4419 4.29857 12.4051 4.35908 12.3573 4.4103C12.3094 4.46152 12.2516 4.50237 12.1873 4.53029C12.123 4.55822 12.0537 4.57262 11.9836 4.57262C11.9135 4.57262 11.8442 4.55822 11.7799 4.53029C11.7156 4.50237 11.6578 4.46152 11.61 4.4103C11.5621 4.35908 11.5254 4.29857 11.5019 4.23253C11.4784 4.16649 11.4688 4.09633 11.4736 4.02642V2.34642C11.4719 2.32024 11.4608 2.29557 11.4422 2.27703C11.4237 2.25848 11.399 2.24731 11.3728 2.24562H10.84C10.8164 2.24497 10.7929 2.2491 10.7709 2.25777C10.749 2.26643 10.729 2.27945 10.7121 2.29604C10.6953 2.31263 10.682 2.33245 10.6731 2.3543C10.6641 2.37616 10.6597 2.3996 10.66 2.42322V8.54322C10.6594 8.56704 10.6636 8.59074 10.6724 8.61288C10.6812 8.63501 10.6944 8.65512 10.7113 8.67197C10.7281 8.68882 10.7482 8.70205 10.7704 8.71087C10.7925 8.71968 10.8162 8.72388 10.84 8.72322H13.1344C13.1849 8.72467 13.2341 8.70689 13.2719 8.67347C13.3098 8.64005 13.3336 8.59349 13.3384 8.54322V2.42322C13.333 2.37338 13.309 2.32741 13.2712 2.29449C13.2334 2.26157 13.1845 2.24412 13.1344 2.24562H12.5992C12.5726 2.24674 12.5474 2.25766 12.5283 2.27626C12.5093 2.29487 12.4978 2.31985 12.496 2.34642H12.4936ZM11.9992 6.47922C12.0883 6.476 12.1772 6.49074 12.2604 6.52255C12.3437 6.55436 12.4198 6.60261 12.484 6.66441C12.5483 6.72621 12.5995 6.8003 12.6345 6.88229C12.6696 6.96427 12.6878 7.05246 12.688 7.14162C12.688 7.32112 12.6167 7.49326 12.4898 7.62019C12.3629 7.74711 12.1907 7.81842 12.0112 7.81842C11.8317 7.81842 11.6596 7.74711 11.5326 7.62019C11.4057 7.49326 11.3344 7.32112 11.3344 7.14162C11.3338 7.05425 11.3505 6.96763 11.3838 6.88681C11.417 6.806 11.466 6.73261 11.5278 6.67095C11.5897 6.60928 11.6633 6.56056 11.7442 6.52764C11.8252 6.49472 11.9119 6.47826 11.9992 6.47922Z" fill="#FF6137"/>
</svg>
