<svg width="32" height="32" viewBox="0 0 32 32" fill="none" xmlns="http://www.w3.org/2000/svg">
<mask id="mask0_404_4494" style="mask-type:alpha" maskUnits="userSpaceOnUse" x="0" y="0" width="32" height="32">
<rect width="32" height="32" fill="#D9D9D9"/>
</mask>
<g mask="url(#mask0_404_4494)">
<path d="M11.6667 29.8997C10.6444 29.8997 9.72778 29.6331 8.91667 29.0997C8.10556 28.5664 7.47778 27.8331 7.03333 26.8997C6.67778 27.3664 6.22778 27.7275 5.68333 27.9831C5.13889 28.2386 4.57778 28.3664 4 28.3664C2.86667 28.3664 1.91667 27.9775 1.15 27.1997C0.383333 26.422 0 25.4775 0 24.3664C0 23.4109 0.311111 22.5497 0.933333 21.7831C1.55556 21.0164 2.34444 20.5775 3.3 20.4664C2.98889 20.022 2.75 19.5497 2.58333 19.0497C2.41667 18.5497 2.33333 18.022 2.33333 17.4664C2.33333 16.5775 2.56111 15.7442 3.01667 14.9664C3.47222 14.1886 4.11111 13.5553 4.93333 13.0664C5.04444 13.4664 5.19444 13.8942 5.38333 14.3497C5.57222 14.8053 5.78889 15.1997 6.03333 15.5331C5.72222 15.7775 5.47778 16.072 5.3 16.4164C5.12222 16.7609 5.03333 17.122 5.03333 17.4997C5.03333 18.7442 5.54445 19.5109 6.56667 19.7997C7.58889 20.0886 8.55556 20.322 9.46667 20.4997L10.1 21.5664C9.85556 22.2775 9.64444 22.8831 9.46667 23.3831C9.28889 23.8831 9.2 24.3331 9.2 24.7331C9.2 25.3997 9.43889 25.9831 9.91667 26.4831C10.3944 26.9831 10.9778 27.2331 11.6667 27.2331C12.3778 27.2331 12.9833 26.9609 13.4833 26.4164C13.9833 25.872 14.4056 25.1942 14.75 24.3831C15.0944 23.572 15.3778 22.7109 15.6 21.7997C15.8222 20.8886 16 20.0664 16.1333 19.3331C16.2 18.9553 16.3889 18.6553 16.7 18.4331C17.0111 18.2109 17.3444 18.1553 17.7 18.2664C18.0778 18.3775 18.3611 18.6053 18.55 18.9497C18.7389 19.2942 18.7889 19.6553 18.7 20.0331C18.5 21.0553 18.2444 22.1442 17.9333 23.2997C17.6222 24.4553 17.2056 25.522 16.6833 26.4997C16.1611 27.4775 15.4944 28.2886 14.6833 28.9331C13.8722 29.5775 12.8667 29.8997 11.6667 29.8997ZM4 25.6997C4.37778 25.6997 4.69444 25.572 4.95 25.3164C5.20556 25.0609 5.33333 24.7442 5.33333 24.3664C5.33333 23.9886 5.20556 23.672 4.95 23.4164C4.69444 23.1609 4.37778 23.0331 4 23.0331C3.62222 23.0331 3.30556 23.1609 3.05 23.4164C2.79444 23.672 2.66667 23.9886 2.66667 24.3664C2.66667 24.7442 2.79444 25.0609 3.05 25.3164C3.30556 25.572 3.62222 25.6997 4 25.6997ZM14.4333 19.4664C14.1444 19.7553 13.7944 19.8831 13.3833 19.8497C12.9722 19.8164 12.6111 19.6553 12.3 19.3664C10.5889 17.8109 9.22222 16.3997 8.2 15.1331C7.17778 13.8664 6.66667 12.4997 6.66667 11.0331C6.66667 9.58863 7.16111 8.37196 8.15 7.38307C9.13889 6.39418 10.3556 5.89974 11.8 5.89974C11.8889 5.89974 11.9667 5.9053 12.0333 5.91641C12.1 5.92752 12.1778 5.93307 12.2667 5.93307C12.1778 5.71085 12.1111 5.48863 12.0667 5.26641C12.0222 5.04418 12 4.81085 12 4.56641C12 3.4553 12.3889 2.51085 13.1667 1.73307C13.9444 0.955295 14.8889 0.566406 16 0.566406C17.1111 0.566406 18.0556 0.955295 18.8333 1.73307C19.6111 2.51085 20 3.4553 20 4.56641C20 4.81085 19.9778 5.03863 19.9333 5.24974C19.8889 5.46085 19.8222 5.67752 19.7333 5.89974H20.2C21.5333 5.89974 22.6667 6.32752 23.6 7.18307C24.5333 8.03863 25.0889 9.09974 25.2667 10.3664C24.8667 10.2997 24.4167 10.2664 23.9167 10.2664C23.4167 10.2664 22.9556 10.2886 22.5333 10.3331C22.3778 9.82196 22.0944 9.39974 21.6833 9.06641C21.2722 8.73307 20.7778 8.56641 20.2 8.56641C19.4222 8.56641 18.8167 8.79418 18.3833 9.24974C17.95 9.7053 17.3556 10.3664 16.6 11.2331H15.3667C14.5889 10.322 13.9833 9.64974 13.55 9.21641C13.1167 8.78307 12.5333 8.56641 11.8 8.56641C11.0889 8.56641 10.5 8.79974 10.0333 9.26641C9.56667 9.73307 9.33333 10.322 9.33333 11.0331C9.33333 11.9664 9.77222 12.9386 10.65 13.9497C11.5278 14.9609 12.7111 16.1442 14.2 17.4997C14.5111 17.7664 14.6944 18.0942 14.75 18.4831C14.8056 18.872 14.7 19.1997 14.4333 19.4664ZM16 5.89974C16.3778 5.89974 16.6944 5.77196 16.95 5.51641C17.2056 5.26085 17.3333 4.94418 17.3333 4.56641C17.3333 4.18863 17.2056 3.87196 16.95 3.61641C16.6944 3.36085 16.3778 3.23307 16 3.23307C15.6222 3.23307 15.3056 3.36085 15.05 3.61641C14.7944 3.87196 14.6667 4.18863 14.6667 4.56641C14.6667 4.94418 14.7944 5.26085 15.05 5.51641C15.3056 5.77196 15.6222 5.89974 16 5.89974ZM20.3 29.8997C19.8111 29.8997 19.3278 29.8331 18.85 29.6997C18.3722 29.5664 17.9111 29.3553 17.4667 29.0664C17.7111 28.7553 17.9556 28.3886 18.2 27.9664C18.4444 27.5442 18.6667 27.1553 18.8667 26.7997C19.1111 26.9553 19.3556 27.0664 19.6 27.1331C19.8444 27.1997 20.0889 27.2331 20.3333 27.2331C21.0444 27.2331 21.6389 26.9831 22.1167 26.4831C22.5944 25.9831 22.8333 25.3886 22.8333 24.6997C22.8333 24.2775 22.7444 23.822 22.5667 23.3331C22.3889 22.8442 22.1778 22.2442 21.9333 21.5331L22.5667 20.4664C23.5 20.2886 24.4722 20.0553 25.4833 19.7664C26.4944 19.4775 27 18.7109 27 17.4664C27 16.5775 26.6722 15.9331 26.0167 15.5331C25.3611 15.1331 24.6444 14.9331 23.8667 14.9331C23.0889 14.9331 22.1889 15.0664 21.1667 15.3331C20.1444 15.5997 18.9778 15.9442 17.6667 16.3664C17.2889 16.4775 16.9222 16.4609 16.5667 16.3164C16.2111 16.172 15.9778 15.9109 15.8667 15.5331C15.7556 15.1553 15.8111 14.7942 16.0333 14.4497C16.2556 14.1053 16.5556 13.8775 16.9333 13.7664C18.3333 13.322 19.6 12.9609 20.7333 12.6831C21.8667 12.4053 22.9222 12.2664 23.9 12.2664C25.4333 12.2664 26.7778 12.722 27.9333 13.6331C29.0889 14.5442 29.6667 15.822 29.6667 17.4664C29.6667 18.022 29.5833 18.5497 29.4167 19.0497C29.25 19.5497 29.0111 20.022 28.7 20.4664C29.6556 20.5775 30.4444 21.0164 31.0667 21.7831C31.6889 22.5497 32 23.4109 32 24.3664C32 25.4775 31.6167 26.422 30.85 27.1997C30.0833 27.9775 29.1333 28.3664 28 28.3664C27.4222 28.3664 26.8611 28.2386 26.3167 27.9831C25.7722 27.7275 25.3222 27.3664 24.9667 26.8997C24.5222 27.8331 23.8944 28.5664 23.0833 29.0997C22.2722 29.6331 21.3444 29.8997 20.3 29.8997ZM28.0333 25.6997C28.4111 25.6997 28.7222 25.572 28.9667 25.3164C29.2111 25.0609 29.3333 24.7442 29.3333 24.3664C29.3333 23.9886 29.2056 23.6664 28.95 23.3997C28.6944 23.1331 28.3778 22.9997 28 22.9997C27.6222 22.9997 27.3056 23.1275 27.05 23.3831C26.7944 23.6386 26.6667 23.9553 26.6667 24.3331C26.6667 24.7109 26.8 25.0331 27.0667 25.2997C27.3333 25.5664 27.6556 25.6997 28.0333 25.6997Z" fill="#FF6137"/>
</g>
</svg>
