<svg width="32" height="32" viewBox="0 0 32 32" fill="none" xmlns="http://www.w3.org/2000/svg">
<mask id="mask0_404_4486" style="mask-type:alpha" maskUnits="userSpaceOnUse" x="0" y="0" width="32" height="32">
<rect width="32" height="32" fill="#D9D9D9"/>
</mask>
<g mask="url(#mask0_404_4486)">
<path d="M5.33268 22.6654V7.9987C5.33268 7.26536 5.59379 6.63759 6.11602 6.11536C6.63824 5.59314 7.26602 5.33203 7.99935 5.33203H26.666C27.0438 5.33203 27.3605 5.45981 27.616 5.71536C27.8716 5.97092 27.9993 6.28759 27.9993 6.66536C27.9993 7.04314 27.8716 7.35981 27.616 7.61536C27.3605 7.87092 27.0438 7.9987 26.666 7.9987H7.99935V22.6654H13.9993C14.5549 22.6654 15.0271 22.8598 15.416 23.2487C15.8049 23.6376 15.9993 24.1098 15.9993 24.6654C15.9993 25.2209 15.8049 25.6931 15.416 26.082C15.0271 26.4709 14.5549 26.6654 13.9993 26.6654H4.66602C4.11046 26.6654 3.63824 26.4709 3.24935 26.082C2.86046 25.6931 2.66602 25.2209 2.66602 24.6654C2.66602 24.1098 2.86046 23.6376 3.24935 23.2487C3.63824 22.8598 4.11046 22.6654 4.66602 22.6654H5.33268ZM19.9993 26.6654C19.6216 26.6654 19.3049 26.5376 19.0493 26.282C18.7938 26.0265 18.666 25.7098 18.666 25.332V11.9987C18.666 11.6209 18.7938 11.3043 19.0493 11.0487C19.3049 10.7931 19.6216 10.6654 19.9993 10.6654H27.9993C28.3771 10.6654 28.6938 10.7931 28.9493 11.0487C29.2049 11.3043 29.3327 11.6209 29.3327 11.9987V25.332C29.3327 25.7098 29.2049 26.0265 28.9493 26.282C28.6938 26.5376 28.3771 26.6654 27.9993 26.6654H19.9993ZM21.3327 22.6654H26.666V13.332H21.3327V22.6654Z" fill="#FF6137"/>
</g>
</svg>
