<svg width="29" height="26" viewBox="0 0 29 26" fill="none" xmlns="http://www.w3.org/2000/svg">
<path d="M7.33268 25.9995V8.66615L15.3327 0.732813C15.666 0.399479 16.0605 0.205035 16.516 0.149479C16.9716 0.0939236 17.4105 0.177257 17.8327 0.399479C18.2549 0.621701 18.566 0.932813 18.766 1.33281C18.966 1.73281 19.0105 2.14392 18.8993 2.56615L17.3993 8.66615H25.9993C26.7105 8.66615 27.3327 8.93281 27.866 9.46615C28.3993 9.99948 28.666 10.6217 28.666 11.3328V13.9995C28.666 14.155 28.6438 14.3217 28.5993 14.4995C28.5549 14.6773 28.5105 14.8439 28.466 14.9995L24.466 24.3995C24.266 24.8439 23.9327 25.2217 23.466 25.5328C22.9993 25.8439 22.5105 25.9995 21.9993 25.9995H7.33268ZM9.99935 9.79948V23.3328H21.9993L25.9993 13.9995V11.3328H13.9993L15.7993 3.99948L9.99935 9.79948ZM3.33268 25.9995C2.59935 25.9995 1.97157 25.7384 1.44935 25.2161C0.927127 24.6939 0.666016 24.0661 0.666016 23.3328V11.3328C0.666016 10.5995 0.927127 9.9717 1.44935 9.44948C1.97157 8.92726 2.59935 8.66615 3.33268 8.66615H7.33268V11.3328H3.33268V23.3328H7.33268V25.9995H3.33268Z" fill="#FF6137"/>
</svg>
