<svg width="24" height="24" viewBox="0 0 24 24" fill="none" xmlns="http://www.w3.org/2000/svg">
<path d="M18.0066 5.60475H17.6939C16.8141 3.05025 14.4156 1.3125 11.6706 1.3125C8.92562 1.3125 6.52712 3.05025 5.64812 5.60475H5.33537C3.09287 5.60475 1.17737 7.2825 0.972625 9.42375C0.916058 10.0124 0.982889 10.6064 1.16885 11.1678C1.35481 11.7291 1.65581 12.2455 2.05262 12.684C2.76489 13.4661 3.74359 13.954 4.79687 14.052V20.5328C4.79747 21.1039 5.02458 21.6515 5.42838 22.0555C5.83218 22.4594 6.37971 22.6867 6.95087 22.6875H16.3904C16.9617 22.6869 17.5094 22.4597 17.9134 22.0557C18.3173 21.6518 18.5445 21.104 18.5451 20.5328V14.0527C19.5982 13.9542 20.5766 13.4661 21.2886 12.684C21.6854 12.2455 21.9864 11.7291 22.1723 11.1677C22.3583 10.6064 22.4251 10.0124 22.3686 9.42375C22.1646 7.2825 20.2484 5.60475 18.0066 5.60475ZM16.3911 21.1875H6.95087C6.77748 21.1873 6.61125 21.1183 6.48865 20.9957C6.36604 20.8731 6.29707 20.7069 6.29688 20.5335V18.8542H17.0444V20.5343C17.044 20.7075 16.9749 20.8736 16.8523 20.996C16.7298 21.1184 16.5644 21.1873 16.3911 21.1875ZM20.1786 11.676C19.9222 11.9575 19.6098 12.1825 19.2616 12.3366C18.9133 12.4906 18.5367 12.5704 18.1559 12.5707H17.7951C17.5962 12.5707 17.4054 12.6498 17.2648 12.7904C17.1241 12.9311 17.0451 13.1218 17.0451 13.3207V17.3542H6.29688V13.32C6.29688 13.1211 6.21786 12.9303 6.0772 12.7897C5.93655 12.649 5.74579 12.57 5.54687 12.57H5.18537C4.80454 12.5696 4.42797 12.4899 4.0797 12.3358C3.73142 12.1818 3.41908 11.9568 3.16262 11.6753C2.90438 11.3927 2.70879 11.0587 2.58872 10.6953C2.46864 10.3318 2.42677 9.94704 2.46587 9.56625C2.59787 8.18625 3.85787 7.10475 5.33537 7.10475H6.20837C6.37643 7.10483 6.53965 7.04847 6.67184 6.9447C6.80403 6.84093 6.89754 6.69577 6.93737 6.5325C7.19381 5.4709 7.80024 4.52657 8.65891 3.85171C9.51759 3.17685 10.5785 2.81078 11.6706 2.8125C13.9229 2.8125 15.8706 4.3425 16.4046 6.5325C16.4444 6.69564 16.5378 6.84071 16.6699 6.94447C16.8019 7.04822 16.9649 7.10466 17.1329 7.10475H18.0066C19.4841 7.10475 20.7441 8.18625 20.8761 9.56625C20.9151 9.94709 20.8731 10.3319 20.7529 10.6953C20.6327 11.0588 20.437 11.3935 20.1786 11.676Z" fill="#FF6137"/>
</svg>
