<svg width="24" height="24" viewBox="0 0 24 24" fill="none" xmlns="http://www.w3.org/2000/svg">
<g clip-path="url(#clip0_1075_11616)">
<path d="M22.1588 11.1053C21.8877 11.0316 21.6047 11.0124 21.3262 11.0488C21.0477 11.0852 20.7791 11.1765 20.5361 11.3174L17.4054 13.125C17.2666 12.6929 16.9945 12.316 16.628 12.0483C16.2615 11.7807 15.8195 11.6362 15.3657 11.6357H7.93684C7.78482 11.6356 7.63639 11.6818 7.51122 11.7681L5.45139 13.1878L5.19827 12.7495C5.09881 12.5772 4.935 12.4515 4.74287 12.4001C4.55074 12.3486 4.34603 12.3755 4.17377 12.475L0.634704 14.5183C0.462475 14.6178 0.336802 14.7816 0.285325 14.9737C0.233848 15.1658 0.260782 15.3705 0.360204 15.5427L5.02638 23.625C5.07562 23.7103 5.14119 23.7851 5.21933 23.845C5.29747 23.905 5.38666 23.949 5.4818 23.9745C5.57694 23.9999 5.67616 24.0064 5.77381 23.9936C5.87146 23.9807 5.96563 23.9488 6.05092 23.8995L9.58998 21.8562C9.67528 21.8069 9.75005 21.7414 9.81 21.6632C9.86996 21.5851 9.91394 21.4959 9.93943 21.4008C9.96492 21.3056 9.97142 21.2064 9.95856 21.1087C9.9457 21.0111 9.91374 20.9169 9.86448 20.8316L9.55853 20.3016L9.69864 20.2169H14.4966C14.6422 20.2169 14.7847 20.1746 14.9066 20.095L22.7102 15.0009C23.6969 14.3568 24.0254 13.0828 23.4582 12.1004C23.3182 11.8568 23.1312 11.6435 22.9082 11.4727C22.6851 11.3019 22.4304 11.177 22.1588 11.1053ZM5.95042 22.2255L2.03411 15.4423L4.27427 14.1489L8.19058 20.9321L5.95042 22.2255ZM21.8902 13.7448L14.2735 18.7169H9.48972C9.35304 18.7169 9.21896 18.7542 9.10197 18.8249L8.80839 19.0022L6.20374 14.4909L8.17023 13.1356H15.3655C15.5357 13.1356 15.6988 13.2031 15.8191 13.3234C15.9394 13.4437 16.007 13.6069 16.007 13.777C16.007 13.9472 15.9394 14.1103 15.8191 14.2306C15.6988 14.3509 15.5357 14.4185 15.3655 14.4185H11.8837C11.6848 14.4185 11.494 14.4975 11.3534 14.6382C11.2127 14.7788 11.1337 14.9696 11.1337 15.1685C11.1337 15.3674 11.2127 15.5582 11.3534 15.6989C11.494 15.8395 11.6848 15.9185 11.8837 15.9185H15.3657C15.705 15.9184 16.0394 15.8376 16.3413 15.6828C16.6432 15.528 16.904 15.3036 17.1021 15.0281C17.1218 15.0188 17.1414 15.0094 17.1606 14.9982L21.2861 12.6163C21.4331 12.5327 21.6072 12.5103 21.7706 12.5541C21.934 12.5979 22.0736 12.7043 22.1591 12.8503C22.3309 13.148 22.2153 13.5325 21.8902 13.7448ZM21.4009 3.88834C21.3553 3.74789 21.2692 3.62405 21.1535 3.53232C21.0378 3.44059 20.8976 3.38507 20.7504 3.37271L17.8633 3.13027L16.7404 0.459384C16.6832 0.32325 16.5871 0.207037 16.4641 0.125315C16.3411 0.0435936 16.1967 0 16.049 0C15.9014 0 15.757 0.0435936 15.634 0.125315C15.511 0.207037 15.4148 0.32325 15.3576 0.459384L14.2349 3.13027L11.3477 3.37276C11.2006 3.38512 11.0603 3.44064 10.9446 3.53236C10.8289 3.62408 10.7428 3.74792 10.6972 3.88835C10.6516 4.02879 10.6484 4.17956 10.6881 4.32179C10.7278 4.46401 10.8086 4.59135 10.9204 4.68784L13.1137 6.58126L12.4521 9.40182C12.4184 9.54558 12.4278 9.69609 12.4793 9.83449C12.5308 9.97289 12.622 10.093 12.7414 10.1798C12.8609 10.2666 13.0033 10.3162 13.1508 10.3224C13.2984 10.3286 13.4444 10.2911 13.5707 10.2146L16.0493 8.71374L18.5275 10.2146C18.6539 10.2911 18.7999 10.3286 18.9475 10.3224C19.095 10.3162 19.2374 10.2666 19.3569 10.1798C19.4763 10.093 19.5675 9.97289 19.619 9.83449C19.6705 9.69609 19.6799 9.54558 19.6462 9.40182L18.9845 6.58126L21.1777 4.68802C21.2895 4.59152 21.3704 4.46415 21.4101 4.32189C21.4498 4.17962 21.4466 4.0288 21.4009 3.88834ZM17.6603 5.74238C17.5566 5.83189 17.4794 5.94809 17.4371 6.07836C17.3948 6.20863 17.3889 6.34801 17.4202 6.48137L17.7781 8.00734L16.4375 7.19542C16.3203 7.12445 16.1859 7.08694 16.049 7.08694C15.912 7.08694 15.7776 7.12445 15.6604 7.19542L14.3198 8.00734L14.6777 6.48137C14.709 6.34801 14.7032 6.20863 14.6609 6.07836C14.6185 5.94809 14.5413 5.83189 14.4377 5.74238L13.2512 4.71817L14.813 4.58692C14.9495 4.57546 15.0803 4.52683 15.1911 4.44632C15.3019 4.36581 15.3886 4.25649 15.4417 4.13021L16.0493 2.68534L16.6567 4.13026C16.7098 4.25653 16.7964 4.36586 16.9072 4.44637C17.0181 4.52688 17.1488 4.5755 17.2853 4.58696L18.8472 4.71821L17.6603 5.74238Z" fill="#FF6137"/>
</g>
<defs>
<clipPath id="clip0_1075_11616">
<rect width="24" height="24" fill="white"/>
</clipPath>
</defs>
</svg>
