<svg width="24" height="24" viewBox="0 0 24 24" fill="none" xmlns="http://www.w3.org/2000/svg">
<path d="M16.989 4.89573C16.6782 4.69034 16.3213 4.56546 15.9502 4.53234C15.5792 4.49921 15.2057 4.55888 14.8635 4.70598L6.59625 8.24898H3C1.7595 8.24898 0.75 9.25848 0.75 10.499V13.499C0.750505 13.9376 0.879196 14.3665 1.12024 14.7329C1.36129 15.0994 1.70419 15.3874 2.10675 15.5615L0.9705 20.6735C0.8715 21.1197 0.97875 21.5802 1.26525 21.9372C1.55175 22.2942 1.97775 22.499 2.436 22.499H3.14925C3.85725 22.499 4.4595 22.016 4.61325 21.3245L5.85225 15.749H6.5955L14.8612 19.3145H14.8635C15.2054 19.4623 15.5789 19.5224 15.95 19.4893C16.321 19.4561 16.6779 19.3308 16.9882 19.1247C17.2995 18.9203 17.555 18.6415 17.7316 18.3137C17.9083 17.9858 18.0005 17.6191 18 17.2467V6.77373C18.0006 6.40138 17.9085 6.03475 17.732 5.70689C17.5555 5.37903 17.3001 5.10026 16.989 4.89573ZM3 14.249C2.586 14.249 2.25 13.9122 2.25 13.499V10.499C2.25 10.0857 2.586 9.74898 3 9.74898H6V14.249H3ZM3.14775 20.999H2.43525L3.6015 15.749H4.31475L3.14775 20.999ZM16.5 17.2475C16.501 17.3716 16.4707 17.4941 16.4118 17.6034C16.353 17.7127 16.2675 17.8055 16.1632 17.873C16.0605 17.9425 15.9418 17.9848 15.8182 17.9959C15.6947 18.0071 15.5703 17.9867 15.4567 17.9367L7.50075 14.5047V9.49248L15.4545 6.08373C15.6915 5.98173 15.9495 6.00573 16.1632 6.14673C16.377 6.28773 16.5 6.51648 16.5 6.77298V17.2475ZM19.5 11.999C19.5 11.8001 19.579 11.6093 19.7197 11.4686C19.8603 11.328 20.0511 11.249 20.25 11.249H22.5C22.6989 11.249 22.8897 11.328 23.0303 11.4686C23.171 11.6093 23.25 11.8001 23.25 11.999C23.25 12.1979 23.171 12.3887 23.0303 12.5293C22.8897 12.67 22.6989 12.749 22.5 12.749H20.25C20.0511 12.749 19.8603 12.67 19.7197 12.5293C19.579 12.3887 19.5 12.1979 19.5 11.999ZM19.626 7.91523C19.5713 7.83329 19.5333 7.74138 19.5142 7.64475C19.495 7.54812 19.4951 7.44867 19.5144 7.35207C19.5337 7.25547 19.5718 7.16362 19.6266 7.08176C19.6814 6.9999 19.7518 6.92963 19.8337 6.87498L22.0837 5.37498C22.1657 5.32032 22.2576 5.28233 22.3542 5.26319C22.4509 5.24404 22.5503 5.24412 22.6469 5.26341C22.7435 5.2827 22.8353 5.32083 22.9172 5.37562C22.9991 5.43041 23.0693 5.50078 23.124 5.58273C23.1787 5.66467 23.2167 5.75658 23.2358 5.85321C23.2549 5.94983 23.2549 6.04928 23.2356 6.14588C23.2163 6.24248 23.1781 6.33433 23.1234 6.41619C23.0686 6.49805 22.9982 6.56832 22.9163 6.62298L20.6663 8.12298C20.5844 8.17785 20.4925 8.21601 20.3958 8.23527C20.2991 8.25452 20.1996 8.2545 20.103 8.2352C20.0063 8.21589 19.9144 8.17769 19.8326 8.12278C19.7507 8.06787 19.6805 7.99734 19.626 7.91523ZM22.9163 17.375C23.0817 17.4854 23.1966 17.657 23.2356 17.8521C23.2745 18.0472 23.2344 18.2497 23.124 18.4152C23.0136 18.5807 22.842 18.6956 22.6469 18.7345C22.4518 18.7735 22.2492 18.7334 22.0837 18.623L19.8337 17.123C19.7518 17.0683 19.6814 16.998 19.6266 16.9162C19.5719 16.8343 19.5337 16.7425 19.5144 16.6459C19.4951 16.5493 19.4951 16.4498 19.5142 16.3532C19.5333 16.2566 19.5713 16.1647 19.626 16.0827C19.6807 16.0008 19.7509 15.9304 19.8328 15.8756C19.9147 15.8208 20.0065 15.7827 20.1031 15.7634C20.1997 15.7441 20.2991 15.744 20.3958 15.7632C20.4924 15.7823 20.5843 15.8203 20.6663 15.875L22.9163 17.375Z" fill="#FF6137"/>
</svg>
