<svg width="24" height="22" viewBox="0 0 24 22" fill="none" xmlns="http://www.w3.org/2000/svg">
<path d="M21.8906 0.359375H2.10938C0.946266 0.359375 0 1.30564 0 2.46875V15.0312C0 16.1944 0.946266 17.1406 2.10938 17.1406H9.04688V20.2344H4.5C4.11169 20.2344 3.79688 20.5492 3.79688 20.9375C3.79688 21.3258 4.11169 21.6406 4.5 21.6406H19.5C19.8883 21.6406 20.2031 21.3258 20.2031 20.9375C20.2031 20.5492 19.8883 20.2344 19.5 20.2344H14.9531V17.1406H21.8906C23.0537 17.1406 24 16.1944 24 15.0312V2.46875C24 1.30564 23.0537 0.359375 21.8906 0.359375ZM13.5469 20.2344H10.4531V17.1406H13.5469V20.2344ZM22.5938 15.0312C22.5938 15.419 22.2783 15.7344 21.8906 15.7344H2.10938C1.72167 15.7344 1.40625 15.419 1.40625 15.0312V2.46875C1.40625 2.08105 1.72167 1.76562 2.10938 1.76562H21.8906C22.2783 1.76562 22.5938 2.08105 22.5938 2.46875V15.0312Z" fill="#FF6137"/>
<path d="M4.43942 4.30011C4.35814 3.91077 3.99246 3.67686 3.61254 3.74797C3.23342 3.82663 2.987 4.1855 3.06036 4.57484C3.1385 4.95177 3.49521 5.20044 3.88723 5.12703C4.26748 5.04734 4.51226 4.68959 4.43942 4.30011ZM10.4999 3.73438H6.74989C6.36157 3.73438 6.04676 4.04919 6.04676 4.4375C6.04676 4.82581 6.36157 5.14062 6.74989 5.14062H10.4999C10.8882 5.14062 11.203 4.82581 11.203 4.4375C11.203 4.04919 10.8882 3.73438 10.4999 3.73438ZM4.43942 7.30011C4.34998 6.87158 3.91789 6.6462 3.54551 6.76531C3.45719 6.79209 3.37502 6.83601 3.30368 6.89456C3.23234 6.95311 3.17324 7.02514 3.12976 7.10654C3.08627 7.18794 3.05925 7.27711 3.05023 7.36896C3.04122 7.46081 3.05039 7.55353 3.07723 7.64183C3.20984 8.0487 3.62032 8.21577 3.95426 8.10964C4.28487 8.00928 4.50968 7.67605 4.43942 7.30011ZM10.4999 6.73438H6.74989C6.36157 6.73438 6.04676 7.04919 6.04676 7.4375C6.04676 7.82581 6.36157 8.14062 6.74989 8.14062H10.4999C10.8882 8.14062 11.203 7.82581 11.203 7.4375C11.203 7.04919 10.8882 6.73438 10.4999 6.73438ZM3.61254 9.74797C3.0364 9.86755 2.84276 10.5922 3.30411 10.9813C3.63261 11.2405 4.06381 11.1653 4.29364 10.8833C4.70726 10.3765 4.26771 9.62534 3.61254 9.74797ZM10.4999 9.73438H6.74989C6.36157 9.73438 6.04676 10.0492 6.04676 10.4375C6.04676 10.8258 6.36157 11.1406 6.74989 11.1406H10.4999C10.8882 11.1406 11.203 10.8258 11.203 10.4375C11.203 10.0492 10.8882 9.73438 10.4999 9.73438ZM16.8749 3.35938C14.6262 3.35938 12.7968 5.18881 12.7968 7.4375C12.7968 9.68619 14.6262 11.5156 16.8749 11.5156C19.1236 11.5156 20.953 9.68619 20.953 7.4375C20.953 5.18881 19.1236 3.35938 16.8749 3.35938ZM19.4522 6.73438H17.578V4.86022C18.487 5.10842 19.2039 5.82542 19.4522 6.73438ZM16.8749 10.1094C15.4016 10.1094 14.203 8.91078 14.203 7.4375C14.203 6.20759 15.0386 5.16969 16.1718 4.86022V7.4375C16.1718 7.82581 16.4866 8.14062 16.8749 8.14062H19.4522C19.1427 9.27378 18.1048 10.1094 16.8749 10.1094ZM7.87489 12.7344H6.74989C6.36157 12.7344 6.04676 13.0492 6.04676 13.4375C6.04676 13.8258 6.36157 14.1406 6.74989 14.1406H7.87489C8.2632 14.1406 8.57801 13.8258 8.57801 13.4375C8.57801 13.0492 8.2632 12.7344 7.87489 12.7344ZM14.6249 12.7344H13.4999C13.1116 12.7344 12.7968 13.0492 12.7968 13.4375C12.7968 13.8258 13.1116 14.1406 13.4999 14.1406H14.6249C15.0132 14.1406 15.328 13.8258 15.328 13.4375C15.328 13.0492 15.0132 12.7344 14.6249 12.7344Z" fill="#FF6137"/>
</svg>
