<svg width="24" height="24" viewBox="0 0 24 24" fill="none" xmlns="http://www.w3.org/2000/svg">
<path d="M16.8006 0H7.20063C6.14103 0.00198241 5.1254 0.423783 4.37616 1.17303C3.62691 1.92228 3.20511 2.93791 3.20312 3.9975V5.6025C3.22238 5.80099 3.31485 5.9852 3.46251 6.11923C3.61018 6.25326 3.80245 6.32751 4.00188 6.32751C4.2013 6.32751 4.39357 6.25326 4.54124 6.11923C4.6889 5.9852 4.78137 5.80099 4.80063 5.6025V3.9975C4.80063 3.36098 5.05348 2.75053 5.50357 2.30044C5.95366 1.85036 6.56411 1.5975 7.20063 1.5975H16.8006C17.4371 1.5975 18.0476 1.85036 18.4977 2.30044C18.9478 2.75053 19.2006 3.36098 19.2006 3.9975V15.2025C19.2199 15.401 19.3124 15.5852 19.46 15.7192C19.6077 15.8533 19.8 15.9275 19.9994 15.9275C20.1988 15.9275 20.3911 15.8533 20.5387 15.7192C20.6864 15.5852 20.7789 15.401 20.7981 15.2025V3.9975C20.7961 2.93791 20.3743 1.92228 19.6251 1.17303C18.8758 0.423783 17.8602 0.00198241 16.8006 0ZM20.0031 17.6025C19.7903 17.6025 19.5862 17.687 19.4357 17.8375C19.2852 17.988 19.2006 18.1922 19.2006 18.405V20.0025C19.2006 20.639 18.9478 21.2495 18.4977 21.6996C18.0476 22.1496 17.4371 22.4025 16.8006 22.4025H7.20063C6.56411 22.4025 5.95366 22.1496 5.50357 21.6996C5.05348 21.2495 4.80063 20.639 4.80063 20.0025V8.7975C4.78137 8.59901 4.6889 8.4148 4.54124 8.28077C4.39357 8.14674 4.2013 8.07249 4.00188 8.07249C3.80245 8.07249 3.61018 8.14674 3.46251 8.28077C3.31485 8.4148 3.22238 8.59901 3.20312 8.7975V20.0025C3.20511 21.0621 3.62691 22.0777 4.37616 22.827C5.1254 23.5762 6.14103 23.998 7.20063 24H16.8006C17.8602 23.998 18.8758 23.5762 19.6251 22.827C20.3743 22.0777 20.7961 21.0621 20.7981 20.0025V18.3975C20.7962 18.1873 20.7118 17.9862 20.5631 17.8375C20.4144 17.6888 20.2134 17.6045 20.0031 17.6025Z" fill="#FF6137"/>
<path d="M12.0009 8.00313C11.7986 8.01638 11.6088 8.10573 11.4697 8.25322C11.3305 8.4007 11.2524 8.59538 11.2509 8.79812V9.19563C10.1761 9.38425 9.20213 9.94546 8.4999 10.7807C7.79768 11.616 7.41213 12.6719 7.41093 13.7631H7.21593C7.10453 13.7523 6.9921 13.7649 6.88587 13.8002C6.77964 13.8354 6.68195 13.8924 6.59908 13.9677C6.5162 14.0429 6.44998 14.1346 6.40467 14.2369C6.35935 14.3393 6.33594 14.45 6.33594 14.5619C6.33594 14.6738 6.35935 14.7845 6.40467 14.8868C6.44998 14.9891 6.5162 15.0809 6.59908 15.1561C6.68195 15.2313 6.77964 15.2884 6.88587 15.3236C6.9921 15.3588 7.10453 15.3714 7.21593 15.3606H16.8159C16.9273 15.3714 17.0398 15.3588 17.146 15.3236C17.2522 15.2884 17.3499 15.2313 17.4328 15.1561C17.5157 15.0809 17.5819 14.9891 17.6272 14.8868C17.6725 14.7845 17.6959 14.6738 17.6959 14.5619C17.6959 14.45 17.6725 14.3393 17.6272 14.2369C17.5819 14.1346 17.5157 14.0429 17.4328 13.9677C17.3499 13.8924 17.2522 13.8354 17.146 13.8002C17.0398 13.7649 16.9273 13.7523 16.8159 13.7631H16.6509C16.6483 12.6743 16.263 11.621 15.5624 10.7874C14.8619 9.95389 13.8906 9.3931 12.8184 9.20312V8.80562C12.8184 8.69897 12.7972 8.59337 12.7559 8.49502C12.7147 8.39666 12.6542 8.30752 12.5781 8.2328C12.502 8.15808 12.4117 8.09929 12.3126 8.05985C12.2135 8.02042 12.1076 8.00113 12.0009 8.00313ZM15.0009 13.7631H9.00093C9.00093 12.9575 9.32095 12.1849 9.89059 11.6153C10.4602 11.0456 11.2328 10.7256 12.0384 10.7256C12.844 10.7256 13.6166 11.0456 14.1863 11.6153C14.7559 12.1849 15.0759 12.9575 15.0759 13.7631H15.0009ZM7.20843 3.20312C7.00994 3.22238 6.82573 3.31485 6.6917 3.46251C6.55767 3.61018 6.48342 3.80245 6.48342 4.00188C6.48342 4.2013 6.55767 4.39357 6.6917 4.54124C6.82573 4.6889 7.00994 4.78137 7.20843 4.80063C7.40692 4.78137 7.59113 4.6889 7.72516 4.54124C7.85919 4.39357 7.93344 4.2013 7.93344 4.00188C7.93344 3.80245 7.85919 3.61018 7.72516 3.46251C7.59113 3.31485 7.40692 3.22238 7.20843 3.20312Z" fill="#FF6137"/>
</svg>
