<svg width="24" height="24" viewBox="0 0 24 24" fill="none" xmlns="http://www.w3.org/2000/svg">
<path d="M21 3.75H3C1.7595 3.75 0.75 4.7595 0.75 6V18C0.75 19.2405 1.7595 20.25 3 20.25H21C22.2405 20.25 23.25 19.2405 23.25 18V6C23.25 4.7595 22.2405 3.75 21 3.75ZM21.75 18C21.75 18.4132 21.414 18.75 21 18.75H3C2.586 18.75 2.25 18.4132 2.25 18V6C2.25 5.58675 2.586 5.25 3 5.25H21C21.414 5.25 21.75 5.58675 21.75 6V18ZM10.5 10.5C10.5 10.9132 10.836 11.25 11.25 11.25H12C13.2405 11.25 14.25 12.2595 14.25 13.5C14.2485 13.9638 14.1035 14.4158 13.835 14.7939C13.5664 15.172 13.1874 15.4578 12.75 15.612V16.5C12.75 16.6989 12.671 16.8897 12.5303 17.0303C12.3897 17.171 12.1989 17.25 12 17.25C11.8011 17.25 11.6103 17.171 11.4697 17.0303C11.329 16.8897 11.25 16.6989 11.25 16.5V15.75H9.75C9.55109 15.75 9.36032 15.671 9.21967 15.5303C9.07902 15.3897 9 15.1989 9 15C9 14.8011 9.07902 14.6103 9.21967 14.4697C9.36032 14.329 9.55109 14.25 9.75 14.25H12C12.1931 14.2414 12.3754 14.1586 12.509 14.0189C12.6426 13.8792 12.7172 13.6933 12.7172 13.5C12.7172 13.3067 12.6426 13.1208 12.509 12.9811C12.3754 12.8414 12.1931 12.7586 12 12.75H11.25C10.0095 12.75 9 11.7405 9 10.5C9 9.2595 10.0095 8.25 11.25 8.25V7.5C11.25 7.30109 11.329 7.11032 11.4697 6.96967C11.6103 6.82902 11.8011 6.75 12 6.75C12.1989 6.75 12.3897 6.82902 12.5303 6.96967C12.671 7.11032 12.75 7.30109 12.75 7.5V8.25H13.5C13.6989 8.25 13.8897 8.32902 14.0303 8.46967C14.171 8.61032 14.25 8.80109 14.25 9C14.25 9.19891 14.171 9.38968 14.0303 9.53033C13.8897 9.67098 13.6989 9.75 13.5 9.75H11.25C10.836 9.75 10.5 10.0868 10.5 10.5ZM6.75 16.5C6.75 16.6989 6.67098 16.8897 6.53033 17.0303C6.38968 17.171 6.19891 17.25 6 17.25H4.5C4.30109 17.25 4.11032 17.171 3.96967 17.0303C3.82902 16.8897 3.75 16.6989 3.75 16.5C3.75 16.3011 3.82902 16.1103 3.96967 15.9697C4.11032 15.829 4.30109 15.75 4.5 15.75H6C6.19891 15.75 6.38968 15.829 6.53033 15.9697C6.67098 16.1103 6.75 16.3011 6.75 16.5ZM20.25 7.5C20.25 7.69891 20.171 7.88968 20.0303 8.03033C19.8897 8.17098 19.6989 8.25 19.5 8.25H18C17.8011 8.25 17.6103 8.17098 17.4697 8.03033C17.329 7.88968 17.25 7.69891 17.25 7.5C17.25 7.30109 17.329 7.11032 17.4697 6.96967C17.6103 6.82902 17.8011 6.75 18 6.75H19.5C19.6989 6.75 19.8897 6.82902 20.0303 6.96967C20.171 7.11032 20.25 7.30109 20.25 7.5Z" fill="#FF6137"/>
</svg>
