<svg width="24" height="24" viewBox="0 0 24 24" fill="none" xmlns="http://www.w3.org/2000/svg">
<path d="M2.21484 18.6488C2.21584 19.6697 2.62181 20.6486 3.34368 21.3706C4.06555 22.0926 5.04436 22.4988 6.06534 22.5H17.9333C18.9543 22.4988 19.9331 22.0926 20.655 21.3706C21.3769 20.6486 21.7829 19.6697 21.7838 18.6488V6.78075C21.7827 5.7599 21.3766 4.7812 20.6547 4.05935C19.9329 3.3375 18.9542 2.93144 17.9333 2.93025H16.7588V2.25C16.7588 2.05109 16.6798 1.86032 16.5392 1.71967C16.3985 1.57902 16.2078 1.5 16.0088 1.5C15.8099 1.5 15.6192 1.57902 15.4785 1.71967C15.3379 1.86032 15.2588 2.05109 15.2588 2.25V2.93025H8.73984V2.25C8.73984 2.05109 8.66083 1.86032 8.52017 1.71967C8.37952 1.57902 8.18876 1.5 7.98984 1.5C7.79093 1.5 7.60017 1.57902 7.45951 1.71967C7.31886 1.86032 7.23984 2.05109 7.23984 2.25V2.93025H6.06534C5.04462 2.93144 4.06604 3.3374 3.34421 4.05909C2.62238 4.78077 2.21623 5.75928 2.21484 6.78V18.6488ZM3.71484 6.78075C3.71564 6.1576 3.96353 5.5602 4.40417 5.11957C4.8448 4.67894 5.4422 4.43104 6.06534 4.43025H7.23984V5.10975C7.23984 5.30866 7.31886 5.49943 7.45951 5.64008C7.60017 5.78073 7.79093 5.85975 7.98984 5.85975C8.18876 5.85975 8.37952 5.78073 8.52017 5.64008C8.66083 5.49943 8.73984 5.30866 8.73984 5.10975V4.43025H15.2588V5.10975C15.2588 5.30866 15.3379 5.49943 15.4785 5.64008C15.6192 5.78073 15.8099 5.85975 16.0088 5.85975C16.2078 5.85975 16.3985 5.78073 16.5392 5.64008C16.6798 5.49943 16.7588 5.30866 16.7588 5.10975V4.43025H17.9333C18.5565 4.43104 19.1539 4.67894 19.5945 5.11957C20.0352 5.5602 20.2831 6.1576 20.2838 6.78075V18.6488C20.2832 19.272 20.0354 19.8696 19.5948 20.3104C19.1541 20.7512 18.5566 20.9992 17.9333 21H6.06534C5.44207 20.9992 4.84456 20.7512 4.4039 20.3104C3.96325 19.8696 3.71544 19.272 3.71484 18.6488V6.78075Z" fill="#FF6137"/>
<path d="M10.1259 13.6193C10.0296 13.5985 9.93016 13.5969 9.83325 13.6145C9.73633 13.6322 9.64385 13.6688 9.56109 13.7222C9.47833 13.7756 9.40692 13.8449 9.35095 13.9259C9.29497 14.007 9.25553 14.0983 9.23488 14.1946C9.19251 14.3908 9.17139 14.5909 9.17188 14.7916C9.17188 16.0891 10.0554 17.1728 11.2486 17.5036V17.9641C11.2486 18.163 11.3277 18.3538 11.4683 18.4944C11.609 18.6351 11.7997 18.7141 11.9986 18.7141C12.1975 18.7141 12.3883 18.6351 12.529 18.4944C12.6696 18.3538 12.7486 18.163 12.7486 17.9641V17.5036C13.9419 17.1736 14.8254 16.0883 14.8254 14.7916C14.8254 14.5861 14.8051 14.3911 14.7624 14.1946C14.6234 13.5643 14.274 13.0001 13.7717 12.5949C13.2694 12.1896 12.644 11.9674 11.9986 11.9648C11.6956 11.9636 11.402 11.8592 11.1662 11.669C10.9304 11.4787 10.7664 11.2138 10.7011 10.9178C10.6594 10.7242 10.6615 10.5237 10.7073 10.331C10.7531 10.1383 10.8415 9.95835 10.9659 9.80423C11.0903 9.65012 11.2476 9.5258 11.4263 9.44038C11.605 9.35497 11.8006 9.31062 11.9986 9.31059C12.1967 9.31062 12.3922 9.35497 12.5709 9.44038C12.7496 9.5258 12.907 9.65012 13.0314 9.80423C13.1558 9.95835 13.2441 10.1383 13.2899 10.331C13.3358 10.5237 13.3379 10.7242 13.2961 10.9178C13.2542 11.1123 13.2912 11.3154 13.399 11.4826C13.5068 11.6498 13.6766 11.7672 13.871 11.8092C14.0654 11.8512 14.2686 11.8142 14.4358 11.7064C14.6029 11.5986 14.7204 11.4288 14.7624 11.2343C14.8051 11.0378 14.8254 10.8428 14.8254 10.6381C14.8254 9.34059 13.9419 8.25609 12.7486 7.92459V7.46484C12.7486 7.26593 12.6696 7.07517 12.529 6.93451C12.3883 6.79386 12.1975 6.71484 11.9986 6.71484C11.7997 6.71484 11.609 6.79386 11.4683 6.93451C11.3277 7.07517 11.2486 7.26593 11.2486 7.46484V7.92459C10.0554 8.25609 9.17188 9.34059 9.17188 10.6381C9.17188 10.8428 9.19213 11.0378 9.23488 11.2336C9.37349 11.8628 9.72186 12.4262 10.2228 12.8314C10.7238 13.2365 11.3476 13.4594 11.9919 13.4633L11.9986 13.4648C12.6196 13.4648 13.1656 13.9043 13.2961 14.5111C13.3379 14.7047 13.3358 14.9052 13.2899 15.0979C13.2441 15.2906 13.1558 15.4706 13.0314 15.6247C12.907 15.7788 12.7496 15.9031 12.5709 15.9886C12.3922 16.074 12.1967 16.1183 11.9986 16.1183C11.8006 16.1183 11.605 16.074 11.4263 15.9886C11.2476 15.9031 11.0903 15.7788 10.9659 15.6247C10.8415 15.4706 10.7531 15.2906 10.7073 15.0979C10.6615 14.9052 10.6594 14.7047 10.7011 14.5111C10.722 14.4148 10.7236 14.3153 10.706 14.2183C10.6883 14.1213 10.6518 14.0288 10.5983 13.946C10.5449 13.8632 10.4757 13.7917 10.3946 13.7357C10.3135 13.6796 10.2222 13.6401 10.1259 13.6193Z" fill="#FF6137"/>
</svg>
