<svg width="24" height="24" viewBox="0 0 24 24" fill="none" xmlns="http://www.w3.org/2000/svg">
<path d="M15.6562 19.5V22.1719C15.6562 22.7906 15.15 23.2969 14.5312 23.2969H9.46875C8.85 23.2969 8.34375 22.7906 8.34375 22.1719V19.5938M12.8438 19.5938V22.875M16.3594 0.703125V4.40625H7.64062V0.703125L8.73047 1.07817L9.82031 0.703125L10.9102 1.07817L12 0.703125L13.0898 1.07817L14.1797 0.703125L15.2695 1.07817L16.3594 0.703125ZM6.98438 4.40625H17.0156C17.7901 4.40625 18.4219 5.03808 18.4219 5.8125V11.0381C18.4219 11.3411 18.3392 11.6016 18.1645 11.8491L17.8594 12.2814V18.0469C17.8594 18.8213 17.2275 19.4531 16.4531 19.4531H7.54688C6.77245 19.4531 6.14062 18.8214 6.14062 18.0469V12.2813L5.83547 11.849C5.66072 11.6014 5.57812 11.3412 5.57812 11.0381V5.8125C5.57812 5.03794 6.20986 4.40625 6.98438 4.40625Z" stroke="#FF6137" stroke-width="1.40625" stroke-miterlimit="22.9256" stroke-linecap="round" stroke-linejoin="round"/>
<path d="M8.95312 13.8282H9.1875M11.8828 13.8282H12.1172M14.8125 13.8282H15.0469M8.95312 16.6406H9.1875M11.8828 16.6406H12.1172M14.8125 16.6406H15.0469M8.95312 7.21875H15.0469V11.0156H8.95312V7.21875Z" stroke="#FF6137" stroke-width="1.40625" stroke-miterlimit="22.9256" stroke-linecap="round" stroke-linejoin="round"/>
</svg>
