<svg width="24" height="24" viewBox="0 0 24 24" fill="none" xmlns="http://www.w3.org/2000/svg">
<g clip-path="url(#clip0_1075_11579)">
<path d="M23.25 22.5H22.7106L22.1026 20.0681C22.0621 19.9059 21.9684 19.7618 21.8366 19.6589C21.7047 19.5559 21.5423 19.5 21.375 19.5H18.75V18.375H21C21.4142 18.375 21.75 18.0392 21.75 17.625C21.75 17.2108 21.4142 16.875 21 16.875V16.5C21 11.79 17.363 7.91391 12.75 7.5315V6.375H13.875C14.2892 6.375 14.625 6.03919 14.625 5.625C14.625 5.21081 14.2892 4.875 13.875 4.875H10.125C9.71077 4.875 9.375 5.21081 9.375 5.625C9.375 6.03919 9.71077 6.375 10.125 6.375H11.25V7.5315C6.63703 7.91391 3 11.79 3 16.5V16.875C2.58577 16.875 2.25 17.2108 2.25 17.625C2.25 18.0392 2.58577 18.375 3 18.375H5.25V19.5H2.625C2.45774 19.5 2.29528 19.5559 2.16344 19.6589C2.03161 19.7618 1.93797 19.9059 1.89741 20.0681L1.28939 22.5H0.75C0.335766 22.5 0 22.8358 0 23.25C0 23.6642 0.335766 24 0.75 24H23.25C23.6642 24 24 23.6642 24 23.25C24 22.8358 23.6642 22.5 23.25 22.5ZM4.5 16.5C4.5 12.3645 7.86445 9 12 9C16.1355 9 19.5 12.3645 19.5 16.5V16.875H4.5V16.5ZM6.75 18.375H17.25V19.5H6.75V18.375ZM2.83556 22.5L3.21056 21H20.7894L21.1644 22.5H2.83556ZM0.75 12.75H2.25C2.66423 12.75 3 12.4142 3 12C3 11.5858 2.66423 11.25 2.25 11.25H0.75C0.335766 11.25 0 11.5858 0 12C0 12.4142 0.335766 12.75 0.75 12.75ZM21.75 12.75H23.25C23.6642 12.75 24 12.4142 24 12C24 11.5858 23.6642 11.25 23.25 11.25H21.75C21.3358 11.25 21 11.5858 21 12C21 12.4142 21.3358 12.75 21.75 12.75ZM4.57538 5.63606C4.86825 5.92894 5.34314 5.92898 5.63602 5.63606C5.92894 5.34314 5.92894 4.8683 5.63602 4.57542L4.57533 3.51469C4.28245 3.22181 3.80756 3.22177 3.51469 3.51469C3.22177 3.80761 3.22177 4.28245 3.51469 4.57533L4.57538 5.63606ZM18.8943 5.85572C19.0862 5.85572 19.2781 5.78245 19.4246 5.63606L20.4853 4.57542C20.7782 4.2825 20.7782 3.80766 20.4853 3.51478C20.1924 3.22191 19.7175 3.22191 19.4246 3.51478L18.3639 4.57542C17.8901 5.04919 18.2321 5.85572 18.8943 5.85572ZM12 3C12.4142 3 12.75 2.66419 12.75 2.25V0.75C12.75 0.335812 12.4142 0 12 0C11.5858 0 11.25 0.335812 11.25 0.75V2.25C11.25 2.66419 11.5858 3 12 3Z" fill="#FF6137"/>
</g>
<defs>
<clipPath id="clip0_1075_11579">
<rect width="24" height="24" fill="white"/>
</clipPath>
</defs>
</svg>
