<svg width="24" height="24" viewBox="0 0 24 24" fill="none" xmlns="http://www.w3.org/2000/svg">
<g clip-path="url(#clip0_1075_11735)">
<path d="M5.34848 6.27875C5.40886 6.40808 5.50489 6.51748 5.62529 6.59413C5.74568 6.67078 5.88545 6.71148 6.02817 6.71146H9.67504V7.99963C9.67504 8.19854 9.75406 8.38931 9.89471 8.52996C10.0354 8.67061 10.2261 8.74963 10.425 8.74963C10.624 8.74963 10.8147 8.67061 10.9554 8.52996C11.096 8.38931 11.175 8.19854 11.175 7.99963V6.71146H11.5205C11.7194 6.71146 11.9102 6.63244 12.0508 6.49179C12.1915 6.35114 12.2705 6.16037 12.2705 5.96146C12.2705 5.76255 12.1915 5.57178 12.0508 5.43113C11.9102 5.29048 11.7194 5.21146 11.5205 5.21146H11.175V0.710754C11.175 0.55681 11.1276 0.406606 11.0393 0.280534C10.9509 0.154462 10.8259 0.0586291 10.6812 0.00604593C10.5365 -0.0465372 10.3792 -0.0533235 10.2305 -0.0133916C10.0818 0.0265403 9.94904 0.111256 9.85017 0.229254L5.45301 5.47996C5.3614 5.58937 5.30291 5.72264 5.28439 5.86413C5.26588 6.00562 5.28811 6.14946 5.34848 6.27875ZM9.67504 2.77457V5.21155H7.63434L9.67504 2.77457ZM13.4705 18.7058L17.3997 12.5714H14.5066C14.3077 12.5714 14.117 12.4924 13.9763 12.3518C13.8357 12.2111 13.7566 12.0204 13.7566 11.8214C13.7566 11.6225 13.8357 11.4318 13.9763 11.2911C14.117 11.1505 14.3077 11.0714 14.5066 11.0714H18.7707C18.9053 11.0714 19.0374 11.1077 19.1532 11.1763C19.2689 11.2449 19.3641 11.3434 19.4287 11.4615C19.4933 11.5796 19.5249 11.7129 19.5203 11.8474C19.5156 11.9819 19.4749 12.1126 19.4023 12.226L14.7335 19.515C14.6805 19.5982 14.6116 19.6701 14.5308 19.7266C14.4499 19.7832 14.3587 19.8232 14.2624 19.8444C14.1661 19.8656 14.0665 19.8676 13.9694 19.8503C13.8723 19.833 13.7796 19.7967 13.6965 19.7435C13.6134 19.6903 13.5417 19.6212 13.4854 19.5403C13.429 19.4593 13.3892 19.368 13.3682 19.2716C13.3472 19.1753 13.3454 19.0757 13.363 18.9786C13.3805 18.8816 13.417 18.7889 13.4704 18.706L13.4705 18.7058ZM17.3968 4.92425C17.5374 5.06491 17.6164 5.25567 17.6164 5.45457C17.6164 5.65348 17.5374 5.84424 17.3968 5.98489L6.34092 17.0408C6.19998 17.18 6.00966 17.2578 5.81154 17.2572C5.61342 17.2566 5.42358 17.1777 5.28349 17.0376C5.14339 16.8975 5.06442 16.7076 5.06382 16.5095C5.06322 16.3114 5.14104 16.1211 5.28028 15.9801L16.336 4.92425C16.4056 4.85459 16.4883 4.79933 16.5793 4.76163C16.6703 4.72393 16.7679 4.70452 16.8664 4.70452C16.9649 4.70452 17.0624 4.72393 17.1534 4.76163C17.2444 4.79933 17.3271 4.85459 17.3968 4.92425ZM4.24223 3.35291C4.43208 2.65775 4.31175 2.13416 3.88462 1.79596C3.4065 1.41768 2.61042 1.35064 2.07225 1.6438C1.6634 1.86646 1.48223 2.25116 1.53379 2.78755C1.54321 2.8856 1.53322 2.98454 1.5044 3.07872C1.47558 3.17291 1.42849 3.26049 1.36582 3.33648C1.30315 3.41246 1.22612 3.47536 1.13914 3.52158C1.05216 3.5678 0.956933 3.59643 0.858888 3.60585C0.760843 3.61526 0.661904 3.60528 0.567719 3.57645C0.473534 3.54763 0.385948 3.50054 0.309962 3.43787C0.233976 3.3752 0.171078 3.29818 0.12486 3.2112C0.0786409 3.12422 0.0500065 3.02899 0.0405914 2.93094C-0.069143 1.79019 0.409873 0.84102 1.35473 0.326473C2.41528 -0.251027 3.87061 -0.127746 4.81523 0.619629C5.71842 1.33424 6.03689 2.47452 5.68908 3.74807C5.45433 4.60766 4.65079 5.23466 3.72033 5.9608C3.21801 6.35277 2.67623 6.77554 2.22197 7.24986H5.32879C5.52771 7.24986 5.71847 7.32888 5.85912 7.46953C5.99978 7.61019 6.07879 7.80095 6.07879 7.99986C6.07879 8.19878 5.99978 8.38954 5.85912 8.53019C5.71847 8.67085 5.52771 8.74986 5.32879 8.74986H0.765748C0.638638 8.74991 0.513604 8.71764 0.402386 8.6561C0.291168 8.59456 0.197415 8.50576 0.129932 8.39805C0.0624484 8.29033 0.0234484 8.16723 0.0165942 8.04031C0.00974005 7.91338 0.0352566 7.7868 0.0907476 7.67244C0.701294 6.41413 1.81486 5.54516 2.79731 4.77847C3.45689 4.26374 4.13864 3.73171 4.24223 3.35291ZM24 12.0384C24.0001 14.4118 23.2963 16.7319 21.9777 18.7053C20.6591 20.6787 18.785 22.2167 16.5923 23.125C14.3995 24.0332 11.9867 24.2709 9.65894 23.8079C7.33116 23.3448 5.19296 22.2019 3.51473 20.5237C2.39694 19.412 1.51075 18.0896 0.907456 16.6331C0.304159 15.1766 -0.00426173 13.6149 4.44778e-05 12.0384C4.44778e-05 11.8395 0.0790621 11.6487 0.219714 11.508C0.360367 11.3674 0.551132 11.2884 0.750044 11.2884C0.948957 11.2884 1.13972 11.3674 1.28037 11.508C1.42103 11.6487 1.50004 11.8395 1.50004 12.0384C1.50004 17.8281 6.21033 22.5384 12 22.5384C17.7898 22.5384 22.5 17.8281 22.5 12.0384C22.5 6.782 18.576 2.30633 13.3723 1.62744C13.2736 1.61594 13.1781 1.58495 13.0915 1.53626C13.0049 1.48757 12.9288 1.42216 12.8677 1.34382C12.8066 1.26548 12.7617 1.17578 12.7355 1.07992C12.7093 0.984063 12.7025 0.883965 12.7154 0.785439C12.7282 0.686913 12.7605 0.591924 12.8104 0.505989C12.8603 0.420054 12.9267 0.344887 13.0059 0.284853C13.0851 0.22482 13.1754 0.181117 13.2716 0.156283C13.3678 0.131449 13.468 0.125979 13.5663 0.140192C16.4527 0.520585 19.1024 1.93717 21.0219 4.1261C22.9414 6.31502 23.9999 9.12704 24 12.0384Z" fill="#FF6137"/>
</g>
<defs>
<clipPath id="clip0_1075_11735">
<rect width="24" height="24" fill="white"/>
</clipPath>
</defs>
</svg>
