<svg width="24" height="24" viewBox="0 0 24 24" fill="none" xmlns="http://www.w3.org/2000/svg">
<path d="M8.24992 14.9987H3.74992C3.74992 13.1237 3.59992 10.9487 2.99992 8.77374C2.84992 8.39874 2.47492 8.17375 2.09992 8.24875C1.72492 8.32375 1.49992 8.77374 1.57492 9.14874C2.24992 11.4737 2.32492 13.6487 2.32492 15.6737V21.6737C2.32492 22.1237 2.62492 22.4237 3.07492 22.4237C3.52492 22.4237 3.82492 22.1237 3.82492 21.6737V18.6737H8.32492V21.6737C8.32492 22.1237 8.62492 22.4237 9.07492 22.4237C9.52492 22.4237 9.82492 22.1237 9.82492 21.6737V16.4237C9.74992 15.6737 9.07492 14.9987 8.24992 14.9987ZM8.24992 17.2487H3.74992V16.4987H8.24992V17.2487Z" fill="#FF6137"/>
<path d="M18 13.5H12.75V21.75C12.75 22.2 12.45 22.5 12 22.5C11.55 22.5 11.25 22.2 11.25 21.75V13.5H6C5.55 13.5 5.25 13.2 5.25 12.75C5.25 12.3 5.55 12 6 12H18C18.45 12 18.75 12.3 18.75 12.75C18.75 13.2 18.45 13.5 18 13.5Z" fill="#FF6137"/>
<path d="M21.975 8.25C21.6 8.1 21.15 8.4 21.075 8.775C20.475 10.95 20.325 13.125 20.325 15H15.825C15 15 14.325 15.675 14.325 16.5V21.75C14.325 22.2 14.625 22.5 15.075 22.5C15.525 22.5 15.825 22.2 15.825 21.75V18.75H20.325V21.75C20.325 22.2 20.625 22.5 21.075 22.5C21.525 22.5 21.825 22.2 21.825 21.75V15.75C21.825 13.725 21.9 11.475 22.575 9.225C22.575 8.775 22.35 8.4 21.975 8.25ZM20.25 17.25H15.75V16.5H20.25V17.25ZM12 1.5C11.55 1.5 11.25 1.8 11.25 2.25V3.825C9.525 4.2 8.25 5.7 8.25 7.5C8.25 7.95 8.55 8.25 9 8.25H15C15.45 8.25 15.75 7.95 15.75 7.5C15.75 5.7 14.475 4.2 12.75 3.825V2.25C12.75 1.8 12.45 1.5 12 1.5ZM14.1 6.75H9.825C10.125 5.85 10.95 5.25 11.925 5.25C12.9 5.25 13.8 5.85 14.1 6.75Z" fill="#FF6137"/>
</svg>
