<svg width="24" height="24" viewBox="0 0 24 24" fill="none" xmlns="http://www.w3.org/2000/svg">
<path d="M18.75 3.1875C18.4241 3.18704 18.1027 3.26416 17.8125 3.4125V0.75C17.8125 0.600816 17.7532 0.457742 17.6477 0.352252C17.5423 0.246763 17.3992 0.1875 17.25 0.1875H6C5.85082 0.1875 5.70774 0.246763 5.60225 0.352252C5.49676 0.457742 5.4375 0.600816 5.4375 0.75V21C5.4375 21.1492 5.49676 21.2923 5.60225 21.3977C5.70774 21.5032 5.85082 21.5625 6 21.5625H8.21306C8.58382 22.2432 9.1312 22.8115 9.79761 23.2074C10.464 23.6034 11.2248 23.8124 12 23.8125H16.5C17.4934 23.8105 18.4559 23.4665 19.2255 22.8382C19.995 22.21 20.5248 21.3359 20.7256 20.363L20.7259 20.3613L20.7266 20.3578C20.7838 20.0755 20.8126 19.7881 20.8125 19.5V5.25C20.8119 4.70318 20.5944 4.17893 20.2077 3.79226C19.8211 3.4056 19.2968 3.18811 18.75 3.1875ZM18.087 4.58695C18.2181 4.45579 18.3851 4.36646 18.567 4.33026C18.7489 4.29406 18.9375 4.31263 19.1088 4.38361C19.2801 4.45459 19.4266 4.57479 19.5296 4.72901C19.6326 4.88323 19.6876 5.06454 19.6875 5.25V14.8656L17.8125 13.9875V5.25C17.8121 5.12683 17.8362 5.0048 17.8833 4.89099C17.9304 4.77718 17.9996 4.67384 18.087 4.58695ZM6.5625 1.3125H16.6875V13.461L14.1115 12.2549C14.0787 12.2396 14.0445 12.2276 14.0093 12.219C14.1443 12.0962 14.2521 11.9466 14.3258 11.7797C14.3995 11.6129 14.4376 11.4324 14.4375 11.25V11.0625H14.625C14.7742 11.0625 14.9173 11.0032 15.0227 10.8977C15.1282 10.7923 15.1875 10.6492 15.1875 10.5C15.1875 10.3508 15.1282 10.2077 15.0227 10.1023C14.9173 9.99676 14.7742 9.9375 14.625 9.9375H14.4268C14.3784 9.5093 14.168 9.11584 13.8387 8.83781C13.5095 8.55978 13.0864 8.41824 12.6561 8.44222C12.2258 8.4662 11.821 8.65388 11.5247 8.96677C11.2284 9.27967 11.063 9.69407 11.0625 10.125V10.875C11.0625 11.0242 11.0032 11.1673 10.8977 11.2727C10.7923 11.3782 10.6492 11.4375 10.5 11.4375C10.3508 11.4375 10.2077 11.3782 10.1023 11.2727C9.99676 11.1673 9.9375 11.0242 9.9375 10.875V9.75C9.9375 9.70027 9.95725 9.65258 9.99242 9.61742C10.0276 9.58225 10.0753 9.5625 10.125 9.5625C10.2742 9.5625 10.4173 9.50324 10.5227 9.39775C10.6282 9.29226 10.6875 9.14918 10.6875 9C10.6875 8.85082 10.6282 8.70774 10.5227 8.60225C10.4173 8.49676 10.2742 8.4375 10.125 8.4375C9.77703 8.4379 9.44342 8.57631 9.19736 8.82236C8.9513 9.06842 8.8129 9.40203 8.8125 9.75V9.9375H8.625C8.47582 9.9375 8.33274 9.99676 8.22725 10.1023C8.12176 10.2077 8.0625 10.3508 8.0625 10.5C8.0625 10.6492 8.12176 10.7923 8.22725 10.8977C8.33274 11.0032 8.47582 11.0625 8.625 11.0625H8.82319C8.87161 11.4907 9.08201 11.8842 9.41126 12.1622C9.7405 12.4402 10.1636 12.5818 10.5939 12.5578C11.0242 12.5338 11.429 12.3461 11.7253 12.0332C12.0216 11.7203 12.187 11.3059 12.1875 10.875V10.125C12.1875 9.97582 12.2468 9.83274 12.3523 9.72725C12.4577 9.62176 12.6008 9.5625 12.75 9.5625C12.8992 9.5625 13.0423 9.62176 13.1477 9.72725C13.2532 9.83274 13.3125 9.97582 13.3125 10.125V11.25C13.3125 11.2997 13.2927 11.3474 13.2576 11.3826C13.2224 11.4177 13.1747 11.4375 13.125 11.4375C12.9758 11.4375 12.8327 11.4968 12.7273 11.6023C12.6218 11.7077 12.5625 11.8508 12.5625 12C12.5625 12.1492 12.6218 12.2923 12.7273 12.3977C12.8327 12.5032 12.9758 12.5625 13.125 12.5625C13.194 12.5625 13.2629 12.557 13.331 12.5462C13.0885 12.8806 12.5785 13.7164 12.7419 14.6459C12.857 15.3 13.2701 15.8356 13.9697 16.2377C14.3635 16.4641 15.7111 17.2272 15.9495 17.3727C15.4551 17.9646 14.6438 18.9765 14.4711 20.4375H6.5625V1.3125ZM16.5 22.6875H12C11.5375 22.6875 11.0805 22.5869 10.6608 22.3926C10.2411 22.1984 9.86869 21.9151 9.56939 21.5625H15C15.1492 21.5625 15.2923 21.5032 15.3977 21.3977C15.5032 21.2923 15.5625 21.1492 15.5625 21C15.5625 19.5874 16.3446 18.6533 16.8621 18.0352C16.9979 17.8812 17.1237 17.7185 17.2385 17.5483C17.3107 17.4328 17.3386 17.295 17.317 17.1606C17.2954 17.0261 17.2257 16.904 17.1209 16.817C16.8003 16.5509 14.9212 15.4868 14.5303 15.2621C14.1293 15.0317 13.9068 14.7675 13.8506 14.4546C13.7902 14.12 13.9256 13.7515 14.0724 13.4785L19.6875 16.1077V19.4719L19.6182 20.1609C19.4654 20.875 19.0726 21.5152 18.5053 21.9749C17.9379 22.4346 17.2302 22.6861 16.5 22.6875Z" fill="#FF6137"/>
<path d="M8.25 8.0625C8.39918 8.0625 8.54226 8.00324 8.64775 7.89775C8.75324 7.79226 8.8125 7.64918 8.8125 7.5V5.75597C9.35244 5.64465 9.84793 5.37758 10.2378 4.98775C10.6276 4.59793 10.8946 4.10244 11.006 3.5625H12.244C12.3554 4.10244 12.6224 4.59793 13.0122 4.98775C13.4021 5.37758 13.8976 5.64465 14.4375 5.75597V7.5C14.4375 7.64918 14.4968 7.79226 14.6023 7.89775C14.7077 8.00324 14.8508 8.0625 15 8.0625C15.1492 8.0625 15.2923 8.00324 15.3977 7.89775C15.5032 7.79226 15.5625 7.64918 15.5625 7.5V5.25C15.5625 5.10082 15.5032 4.95774 15.3977 4.85225C15.2923 4.74676 15.1492 4.6875 15 4.6875C14.5526 4.687 14.1237 4.50905 13.8073 4.19269C13.4909 3.87633 13.313 3.4474 13.3125 3C13.3125 2.85082 13.2532 2.70774 13.1477 2.60225C13.0423 2.49676 12.8992 2.4375 12.75 2.4375H10.5C10.3508 2.4375 10.2077 2.49676 10.1023 2.60225C9.99676 2.70774 9.9375 2.85082 9.9375 3C9.937 3.4474 9.75905 3.87633 9.44269 4.19269C9.12633 4.50905 8.6974 4.687 8.25 4.6875C8.10082 4.6875 7.95774 4.74676 7.85225 4.85225C7.74676 4.95774 7.6875 5.10082 7.6875 5.25V7.5C7.6875 7.64918 7.74676 7.79226 7.85225 7.89775C7.95774 8.00324 8.10082 8.0625 8.25 8.0625ZM9.9375 18.75C9.9375 18.8992 9.99676 19.0423 10.1023 19.1477C10.2077 19.2532 10.3508 19.3125 10.5 19.3125H12.75C12.8992 19.3125 13.0423 19.2532 13.1477 19.1477C13.2532 19.0423 13.3125 18.8992 13.3125 18.75C13.3125 18.6008 13.2532 18.4577 13.1477 18.3523C13.0423 18.2468 12.8992 18.1875 12.75 18.1875H11.006C10.8946 17.6476 10.6276 17.1521 10.2378 16.7622C9.84793 16.3724 9.35244 16.1054 8.8125 15.994V13.5C8.8125 13.3508 8.75324 13.2077 8.64775 13.1023C8.54226 12.9968 8.39918 12.9375 8.25 12.9375C8.10082 12.9375 7.95774 12.9968 7.85225 13.1023C7.74676 13.2077 7.6875 13.3508 7.6875 13.5V16.5C7.6875 16.6492 7.74676 16.7923 7.85225 16.8977C7.95774 17.0032 8.10082 17.0625 8.25 17.0625C8.6974 17.063 9.12633 17.2409 9.44269 17.5573C9.75905 17.8737 9.937 18.3026 9.9375 18.75Z" fill="#FF6137"/>
</svg>
