<svg width="24" height="22" viewBox="0 0 24 22" fill="none" xmlns="http://www.w3.org/2000/svg">
<path d="M23.2857 15.5082C23.6555 15.4881 23.9495 15.1823 23.9495 14.807C23.9495 12.7837 22.3253 11.1988 20.252 11.1988H19.5668L18.7294 7.22367C19.5375 6.87258 20.1043 6.06623 20.1043 5.12953C20.1043 3.87131 19.0819 2.84766 17.8252 2.84766H14.5854C14.1976 2.84766 13.8832 3.16247 13.8832 3.55078V4.42641H12.1568C11.769 4.42641 11.4546 4.74122 11.4546 5.12953C11.4546 5.51784 11.769 5.83266 12.1568 5.83266H13.8832V6.70828C13.8832 7.09659 14.1976 7.41141 14.5854 7.41141H14.8973C14.3158 8.09902 13.9641 8.98725 13.9641 9.95667V13.9579C13.9641 13.9677 13.9602 13.9772 13.9532 13.9841C13.9463 13.9911 13.9368 13.995 13.927 13.995H11.0901C11.0821 13.995 11.0743 13.9924 11.0679 13.9876C11.0615 13.9828 11.0568 13.9761 11.0545 13.9684L10.2897 11.3808C10.9061 11.216 11.3615 10.6523 11.3615 9.98391C11.3615 8.39686 10.0719 7.10573 8.48686 7.10573H2.15934C0.968719 7.10569 0 8.07558 0 9.2677C0 10.3575 0.809672 11.2611 1.85831 11.4083C0.745875 12.4046 0.0443906 13.8519 0.0443906 15.4604V17.6494C0.0443906 18.0377 0.358828 18.3525 0.746672 18.3525H1.35431C1.68141 19.9856 3.12459 21.2198 4.85058 21.2198C6.57656 21.2198 8.01975 19.9856 8.34684 18.3525H16.9376C17.2647 19.9856 18.7079 21.2198 20.4339 21.2198C22.4002 21.2198 24 19.6181 24 17.6494C24 16.8467 23.7339 16.1052 23.2857 15.5082ZM22.4299 14.1039H20.849C20.7112 14.0875 20.5726 14.0792 20.4339 14.0789C20.1822 14.0789 19.9367 14.1055 19.6996 14.1554V12.605H20.2521C21.2806 12.605 22.131 13.2241 22.4299 14.1039ZM15.2877 4.25386H17.8252C18.3075 4.25386 18.6998 4.64667 18.6998 5.12948C18.6998 5.6123 18.3075 6.00511 17.8252 6.00511H15.2877V4.25386ZM11.0902 15.4013H13.927C14.722 15.4013 15.3687 14.7538 15.3687 13.9578V9.95662C15.3687 8.74809 16.2165 7.734 17.3479 7.47933L18.2951 11.9751V14.7943C17.6078 15.3118 17.1128 16.0718 16.9377 16.9462H9.95564C9.62766 14.4235 7.54444 12.5361 4.94428 12.5361C3.78483 12.5361 2.74392 12.9148 1.92267 13.5659C2.60105 12.296 3.93848 11.4298 5.47467 11.4298H8.83964L9.70786 14.3674C9.88767 14.9761 10.4561 15.4013 11.0902 15.4013ZM1.506 16.9462C1.62872 16.1982 1.94827 15.5234 2.43694 15.0006C3.07477 14.3181 3.9652 13.9423 4.94419 13.9423C6.75553 13.9423 8.21883 15.2152 8.53298 16.9462H1.506V16.9462ZM2.15934 10.0235C1.74314 10.0235 1.40452 9.68447 1.40452 9.2677C1.40452 8.85094 1.74314 8.51189 2.15934 8.51189H8.48686C9.29751 8.51189 9.957 9.17217 9.957 9.98381C9.951 10.0127 9.90469 10.0319 9.81848 10.0234H9.27956C8.44045 10.0235 2.16342 10.0235 2.15934 10.0235ZM4.85058 19.8135C3.9045 19.8135 3.099 19.2016 2.80678 18.3525H6.89437C6.60216 19.2016 5.79666 19.8135 4.85058 19.8135ZM20.4339 19.8135C19.242 19.8135 18.2724 18.8427 18.2724 17.6493C18.2724 16.456 19.2421 15.4852 20.4339 15.4852C21.6258 15.4852 22.5955 16.456 22.5955 17.6493C22.5955 18.8427 21.6258 19.8135 20.4339 19.8135Z" fill="#FF6137"/>
<path d="M20.4335 18.3569C20.8239 18.3569 21.1404 18.0401 21.1404 17.6492C21.1404 17.2583 20.8239 16.9414 20.4335 16.9414C20.0431 16.9414 19.7266 17.2583 19.7266 17.6492C19.7266 18.0401 20.0431 18.3569 20.4335 18.3569Z" fill="#FF6137"/>
<path d="M0.733531 5.06877H7.03203C7.41988 5.06877 7.73431 4.75395 7.73431 4.36564C7.73431 3.97733 7.41988 3.66252 7.03203 3.66252H0.733531C0.345687 3.66252 0.03125 3.97733 0.03125 4.36564C0.03125 4.75395 0.345687 5.06877 0.733531 5.06877ZM3.06659 2.1875H9.41938C9.80722 2.1875 10.1217 1.87269 10.1217 1.48438C10.1217 1.09606 9.80722 0.78125 9.41938 0.78125H3.06659C2.67875 0.78125 2.36431 1.09606 2.36431 1.48438C2.36431 1.87269 2.67875 2.1875 3.06659 2.1875Z" fill="#FF6137"/>
</svg>
