<svg width="731" height="609" viewBox="0 0 731 609" fill="none" xmlns="http://www.w3.org/2000/svg">
<g filter="url(#filter0_d_63_1257)">
<g clip-path="url(#clip0_63_1257)">
<rect x="213.939" y="93.2891" width="737.082" height="451.462" rx="5.75845" fill="white"/>
<rect x="213.939" y="123.809" width="737.082" height="420.943" fill="white"/>
<g filter="url(#filter1_di_63_1257)">
<path d="M213.939 99.0475C213.939 95.8672 216.517 93.2891 219.697 93.2891H945.262C948.442 93.2891 951.021 95.8672 951.021 99.0475V123.809H213.939V99.0475Z" fill="white"/>
<g clip-path="url(#clip1_63_1257)">
<path d="M302.196 112.283L298.406 108.583C298.315 108.493 298.267 108.383 298.267 108.263C298.267 108.139 298.32 108.019 298.41 107.943L302.196 104.238C302.277 104.157 302.383 104.109 302.507 104.109C302.755 104.109 302.942 104.301 302.942 104.549C302.942 104.664 302.894 104.779 302.818 104.86L299.338 108.263L302.818 111.666C302.894 111.748 302.942 111.858 302.942 111.977C302.942 112.226 302.755 112.412 302.507 112.412C302.383 112.412 302.277 112.364 302.196 112.283Z" fill="#737373"/>
<path d="M317.705 112.417C317.829 112.417 317.934 112.369 318.016 112.288L321.806 108.583C321.897 108.493 321.945 108.383 321.945 108.263C321.945 108.139 321.897 108.024 321.806 107.943L318.02 104.243C317.934 104.157 317.829 104.109 317.705 104.109C317.456 104.109 317.27 104.301 317.27 104.549C317.27 104.664 317.318 104.779 317.394 104.86L320.874 108.263L317.394 111.666C317.318 111.748 317.27 111.858 317.27 111.977C317.27 112.226 317.456 112.417 317.705 112.417Z" fill="#BFBFBF"/>
</g>
<path d="M272.284 112.671H280.553C281.557 112.671 282.054 112.174 282.054 111.189V105.353C282.054 104.368 281.557 103.871 280.553 103.871H272.284C271.285 103.871 270.783 104.363 270.783 105.353V111.189C270.783 112.179 271.285 112.671 272.284 112.671ZM272.293 111.901C271.815 111.901 271.552 111.648 271.552 111.151V105.391C271.552 104.894 271.815 104.641 272.293 104.641H274.425V111.901H272.293ZM280.543 104.641C281.017 104.641 281.284 104.894 281.284 105.391V111.151C281.284 111.648 281.017 111.901 280.543 111.901H275.176V104.641H280.543ZM273.503 106.414C273.651 106.414 273.775 106.285 273.775 106.146C273.775 106.003 273.651 105.879 273.503 105.879H272.48C272.336 105.879 272.207 106.003 272.207 106.146C272.207 106.285 272.336 106.414 272.48 106.414H273.503ZM273.503 107.652C273.651 107.652 273.775 107.523 273.775 107.38C273.775 107.236 273.651 107.117 273.503 107.117H272.48C272.336 107.117 272.207 107.236 272.207 107.38C272.207 107.523 272.336 107.652 272.48 107.652H273.503ZM273.503 108.885C273.651 108.885 273.775 108.766 273.775 108.622C273.775 108.479 273.651 108.355 273.503 108.355H272.48C272.336 108.355 272.207 108.479 272.207 108.622C272.207 108.766 272.336 108.885 272.48 108.885H273.503Z" fill="#737373"/>
<g filter="url(#filter2_i_63_1257)">
<path fill-rule="evenodd" clip-rule="evenodd" d="M229.488 111.715C231.396 111.715 232.943 110.168 232.943 108.26C232.943 106.352 231.396 104.805 229.488 104.805C227.58 104.805 226.033 106.352 226.033 108.26C226.033 110.168 227.58 111.715 229.488 111.715Z" fill="#EE6A5F"/>
</g>
<path d="M232.799 108.26C232.799 110.088 231.316 111.571 229.488 111.571C227.659 111.571 226.177 110.088 226.177 108.26C226.177 106.431 227.659 104.949 229.488 104.949C231.316 104.949 232.799 106.431 232.799 108.26Z" stroke="#CE5347" stroke-width="0.287923"/>
<g filter="url(#filter3_i_63_1257)">
<path fill-rule="evenodd" clip-rule="evenodd" d="M241.007 111.715C242.915 111.715 244.462 110.168 244.462 108.26C244.462 106.352 242.915 104.805 241.007 104.805C239.099 104.805 237.552 106.352 237.552 108.26C237.552 110.168 239.099 111.715 241.007 111.715Z" fill="#F5BD4F"/>
</g>
<path d="M244.318 108.26C244.318 110.088 242.836 111.571 241.007 111.571C239.179 111.571 237.696 110.088 237.696 108.26C237.696 106.431 239.179 104.949 241.007 104.949C242.836 104.949 244.318 106.431 244.318 108.26Z" stroke="#D6A243" stroke-width="0.287923"/>
<g filter="url(#filter4_i_63_1257)">
<path fill-rule="evenodd" clip-rule="evenodd" d="M252.523 111.715C254.431 111.715 255.978 110.168 255.978 108.26C255.978 106.352 254.431 104.805 252.523 104.805C250.615 104.805 249.068 106.352 249.068 108.26C249.068 110.168 250.615 111.715 252.523 111.715Z" fill="#61C454"/>
</g>
<path d="M255.834 108.26C255.834 110.088 254.352 111.571 252.523 111.571C250.694 111.571 249.212 110.088 249.212 108.26C249.212 106.431 250.694 104.949 252.523 104.949C254.352 104.949 255.834 106.431 255.834 108.26Z" stroke="#58A942" stroke-width="0.287923"/>
<g clip-path="url(#clip2_63_1257)">
<path d="M419.231 113.222C419.308 113.222 419.432 113.193 419.552 113.126C422.271 111.602 423.204 110.956 423.204 109.212V105.555C423.204 105.053 422.988 104.895 422.582 104.723C422.018 104.489 420.197 103.834 419.633 103.638C419.504 103.595 419.365 103.566 419.231 103.566C419.098 103.566 418.959 103.605 418.835 103.638C418.271 103.801 416.445 104.494 415.881 104.723C415.479 104.89 415.259 105.053 415.259 105.555V109.212C415.259 110.956 416.196 111.597 418.911 113.126C419.035 113.193 419.155 113.222 419.231 113.222ZM419.423 104.379C420.144 104.666 421.545 105.172 422.286 105.426C422.415 105.474 422.444 105.541 422.444 105.703V109.035C422.444 110.512 421.736 110.899 419.528 112.242C419.389 112.328 419.313 112.352 419.236 112.357V104.336C419.284 104.336 419.346 104.35 419.423 104.379Z" fill="#737373"/>
<rect x="433.912" y="100.199" width="297.136" height="16.1237" rx="3.45507" fill="black" fill-opacity="0.05"/>
<g clip-path="url(#clip3_63_1257)">
<path d="M542.446 111.552H545.658C546.094 111.552 546.306 111.336 546.306 110.863V108.387C546.306 107.962 546.131 107.742 545.77 107.705V106.855C545.77 105.583 544.936 104.969 544.052 104.969C543.168 104.969 542.335 105.583 542.335 106.855V107.722C542.004 107.773 541.798 107.989 541.798 108.387V110.863C541.798 111.336 542.011 111.552 542.446 111.552ZM542.878 106.784C542.878 105.937 543.421 105.488 544.052 105.488C544.683 105.488 545.226 105.937 545.226 106.784V107.702L542.878 107.705V106.784Z" fill="#9E9E9E"/>
<path d="M552.694 112.668C552.876 112.668 553.054 112.647 553.237 112.614V111.818C553.065 111.834 552.973 111.839 552.807 111.839C552.204 111.839 551.967 111.565 551.967 110.882V107.6H553.237V106.825H551.967V105.324H550.999V106.825H550.084V107.6H550.999V111.118C550.999 112.227 551.499 112.668 552.694 112.668ZM554.646 112.625H555.582V109.192C555.582 108.175 556.168 107.551 557.094 107.551C558.019 107.551 558.45 108.052 558.45 109.095V112.625H559.386V108.869C559.386 107.492 558.659 106.723 557.357 106.723C556.502 106.723 555.958 107.083 555.668 107.697H555.582V104.522H554.646V112.625ZM563.404 112.727C564.771 112.727 565.599 111.952 565.798 111.167L565.809 111.124H564.873L564.851 111.172C564.695 111.522 564.211 111.893 563.425 111.893C562.392 111.893 561.731 111.194 561.704 109.994H565.879V109.628C565.879 107.896 564.921 106.723 563.345 106.723C561.768 106.723 560.746 107.949 560.746 109.741V109.746C560.746 111.565 561.747 112.727 563.404 112.727ZM563.339 107.557C564.195 107.557 564.83 108.1 564.927 109.246H561.72C561.822 108.143 562.478 107.557 563.339 107.557ZM569.429 112.727C570.236 112.727 570.882 112.345 571.237 111.7H571.323V112.625H572.259V104.522H571.323V107.74H571.237C570.919 107.121 570.225 106.723 569.429 106.723C567.955 106.723 566.997 107.901 566.997 109.72V109.73C566.997 111.538 567.96 112.727 569.429 112.727ZM569.644 111.899C568.584 111.899 567.955 111.081 567.955 109.73V109.72C567.955 108.369 568.584 107.551 569.644 107.551C570.699 107.551 571.344 108.38 571.344 109.72V109.73C571.344 111.07 570.699 111.899 569.644 111.899ZM576.379 112.727C577.746 112.727 578.575 111.952 578.774 111.167L578.785 111.124H577.848L577.827 111.172C577.671 111.522 577.187 111.893 576.401 111.893C575.368 111.893 574.706 111.194 574.679 109.994H578.854V109.628C578.854 107.896 577.897 106.723 576.32 106.723C574.744 106.723 573.722 107.949 573.722 109.741V109.746C573.722 111.565 574.722 112.727 576.379 112.727ZM576.315 107.557C577.17 107.557 577.805 108.1 577.902 109.246H574.695C574.798 108.143 575.454 107.557 576.315 107.557ZM582.254 112.727C583.572 112.727 584.578 112.012 584.578 110.979V110.968C584.578 110.139 584.051 109.666 582.959 109.402L582.066 109.187C581.382 109.02 581.092 108.773 581.092 108.38V108.369C581.092 107.858 581.597 107.503 582.286 107.503C582.986 107.503 583.438 107.82 583.561 108.278H584.481C584.352 107.331 583.507 106.723 582.292 106.723C581.059 106.723 580.134 107.449 580.134 108.412V108.418C580.134 109.251 580.624 109.725 581.71 109.983L582.609 110.198C583.325 110.371 583.62 110.645 583.62 111.038V111.049C583.62 111.576 583.066 111.947 582.286 111.947C581.544 111.947 581.081 111.63 580.925 111.145H579.967C580.075 112.103 580.963 112.727 582.254 112.727ZM586.482 105.706C586.837 105.706 587.127 105.415 587.127 105.06C587.127 104.705 586.837 104.414 586.482 104.414C586.127 104.414 585.836 104.705 585.836 105.06C585.836 105.415 586.127 105.706 586.482 105.706ZM586.008 112.625H586.945V106.825H586.008V112.625ZM591.054 114.67C592.636 114.67 593.637 113.841 593.637 112.544V106.825H592.701V107.783H592.636C592.281 107.126 591.646 106.723 590.828 106.723C589.311 106.723 588.375 107.901 588.375 109.526V109.537C588.375 111.162 589.306 112.324 590.807 112.324C591.603 112.324 592.259 111.963 592.625 111.323H592.711V112.496C592.711 113.351 592.093 113.841 591.054 113.841C590.22 113.841 589.704 113.529 589.601 113.088L589.596 113.082H588.628L588.617 113.088C588.762 114.04 589.655 114.67 591.054 114.67ZM591.011 111.495C589.935 111.495 589.332 110.688 589.332 109.537V109.526C589.332 108.374 589.935 107.551 591.011 107.551C592.082 107.551 592.733 108.374 592.733 109.526V109.537C592.733 110.688 592.087 111.495 591.011 111.495ZM595.336 112.625H596.272V109.192C596.272 108.175 596.859 107.551 597.784 107.551C598.709 107.551 599.14 108.052 599.14 109.095V112.625H600.076V108.869C600.076 107.492 599.35 106.723 598.048 106.723C597.192 106.723 596.649 107.083 596.358 107.697H596.272V106.825H595.336V112.625ZM604.094 112.727C605.461 112.727 606.289 111.952 606.489 111.167L606.499 111.124H605.563L605.542 111.172C605.386 111.522 604.901 111.893 604.116 111.893C603.083 111.893 602.421 111.194 602.394 109.994H606.569V109.628C606.569 107.896 605.612 106.723 604.035 106.723C602.459 106.723 601.436 107.949 601.436 109.741V109.746C601.436 111.565 602.437 112.727 604.094 112.727ZM604.03 107.557C604.885 107.557 605.52 108.1 605.617 109.246H602.41C602.512 108.143 603.169 107.557 604.03 107.557ZM607.978 112.625H608.914V109.031C608.914 108.181 609.549 107.616 610.442 107.616C610.647 107.616 610.824 107.637 611.018 107.67V106.76C610.926 106.744 610.727 106.723 610.55 106.723C609.764 106.723 609.221 107.078 609 107.686H608.914V106.825H607.978V112.625ZM614.014 112.727C615.332 112.727 616.338 112.012 616.338 110.979V110.968C616.338 110.139 615.811 109.666 614.719 109.402L613.825 109.187C613.142 109.02 612.852 108.773 612.852 108.38V108.369C612.852 107.858 613.357 107.503 614.046 107.503C614.745 107.503 615.197 107.82 615.321 108.278H616.241C616.112 107.331 615.267 106.723 614.051 106.723C612.819 106.723 611.894 107.449 611.894 108.412V108.418C611.894 109.251 612.383 109.725 613.47 109.983L614.369 110.198C615.084 110.371 615.38 110.645 615.38 111.038V111.049C615.38 111.576 614.826 111.947 614.046 111.947C613.303 111.947 612.841 111.63 612.685 111.145H611.727C611.835 112.103 612.722 112.727 614.014 112.727ZM617.8 112.625H618.737V109.192C618.737 108.175 619.323 107.551 620.249 107.551C621.174 107.551 621.604 108.052 621.604 109.095V112.625H622.541V108.869C622.541 107.492 621.814 106.723 620.512 106.723C619.657 106.723 619.113 107.083 618.823 107.697H618.737V104.522H617.8V112.625ZM624.686 105.706C625.042 105.706 625.332 105.415 625.332 105.06C625.332 104.705 625.042 104.414 624.686 104.414C624.331 104.414 624.041 104.705 624.041 105.06C624.041 105.415 624.331 105.706 624.686 105.706ZM624.213 112.625H625.149V106.825H624.213V112.625ZM626.87 114.562H627.806V111.71H627.892C628.21 112.329 628.904 112.727 629.7 112.727C631.174 112.727 632.132 111.549 632.132 109.73V109.72C632.132 107.912 631.169 106.723 629.7 106.723C628.893 106.723 628.247 107.105 627.892 107.75H627.806V106.825H626.87V114.562ZM629.485 111.899C628.43 111.899 627.785 111.07 627.785 109.73V109.72C627.785 108.38 628.43 107.551 629.485 107.551C630.545 107.551 631.174 108.369 631.174 109.72V109.73C631.174 111.081 630.545 111.899 629.485 111.899ZM634.208 112.679C634.595 112.679 634.907 112.361 634.907 111.979C634.907 111.592 634.595 111.28 634.208 111.28C633.826 111.28 633.508 111.592 633.508 111.979C633.508 112.361 633.826 112.679 634.208 112.679ZM638.828 112.727C640.222 112.727 641.002 111.979 641.239 110.93L641.25 110.871L640.324 110.876L640.313 110.909C640.098 111.554 639.603 111.899 638.823 111.899C637.79 111.899 637.123 111.043 637.123 109.709V109.698C637.123 108.391 637.779 107.551 638.823 107.551C639.657 107.551 640.174 108.014 640.319 108.584L640.324 108.6H641.255L641.25 108.568C641.077 107.535 640.233 106.723 638.823 106.723C637.198 106.723 636.165 107.896 636.165 109.698V109.709C636.165 111.549 637.204 112.727 638.828 112.727ZM644.961 112.727C646.613 112.727 647.635 111.587 647.635 109.73V109.72C647.635 107.858 646.613 106.723 644.961 106.723C643.309 106.723 642.287 107.858 642.287 109.72V109.73C642.287 111.587 643.309 112.727 644.961 112.727ZM644.961 111.899C643.863 111.899 643.245 111.097 643.245 109.73V109.72C643.245 108.348 643.863 107.551 644.961 107.551C646.059 107.551 646.677 108.348 646.677 109.72V109.73C646.677 111.097 646.059 111.899 644.961 111.899ZM649.044 112.625H649.98V109.031C649.98 108.213 650.556 107.551 651.314 107.551C652.046 107.551 652.52 107.998 652.52 108.687V112.625H653.456V108.896C653.456 108.159 653.988 107.551 654.796 107.551C655.613 107.551 656.006 107.976 656.006 108.832V112.625H656.942V108.617C656.942 107.401 656.281 106.723 655.097 106.723C654.295 106.723 653.633 107.126 653.321 107.74H653.235C652.966 107.137 652.417 106.723 651.632 106.723C650.873 106.723 650.324 107.083 650.066 107.707H649.98V106.825H649.044V112.625Z" fill="#4C4C4C"/>
</g>
<path d="M724.301 108.039C724.385 108.039 724.449 108.012 724.496 107.961L725.887 106.564C725.947 106.507 725.971 106.439 725.971 106.362C725.971 106.288 725.941 106.213 725.887 106.159L724.496 104.749C724.449 104.695 724.382 104.668 724.301 104.668C724.149 104.668 724.034 104.789 724.034 104.945C724.034 105.016 724.061 105.083 724.108 105.137L725.009 106.021C724.817 105.987 724.621 105.967 724.426 105.967C722.772 105.967 721.443 107.293 721.443 108.946C721.443 110.603 722.772 111.932 724.426 111.932C726.079 111.932 727.405 110.603 727.405 108.946C727.405 108.784 727.29 108.666 727.125 108.666C726.966 108.666 726.862 108.784 726.862 108.946C726.862 110.303 725.779 111.389 724.426 111.389C723.073 111.389 721.986 110.303 721.986 108.946C721.986 107.593 723.073 106.51 724.426 106.51C724.682 106.51 724.918 106.53 725.121 106.574L724.112 107.576C724.061 107.63 724.034 107.698 724.034 107.769C724.034 107.924 724.149 108.039 724.301 108.039Z" fill="#797979"/>
</g>
</g>
</g>
</g>
<g filter="url(#filter5_d_63_1257)">
<path d="M81.4431 91.776C81.4431 75.0162 95.0296 61.4297 111.789 61.4297H252.894C269.653 61.4297 283.24 75.0162 283.24 91.776V153.044C284.724 153.044 285.927 154.248 285.927 155.732V188.958C285.927 190.442 284.724 191.645 283.24 191.645V445.427C283.24 462.186 269.653 475.773 252.894 475.773H111.789C95.0296 475.773 81.4431 462.186 81.4431 445.427V208.991C80.1023 208.991 79 207.904 79 206.563V178.681C79 177.34 80.1023 176.254 81.4431 176.254V170.146C80.1023 170.146 79 169.059 79 167.718V138.859C79 137.519 80.1023 136.432 81.4431 136.432V91.776Z" fill="#EEEEEE"/>
</g>
<path d="M128.837 70.2266H106.361C97.7259 70.2266 90.7256 77.2269 90.7256 85.8622V451.344C90.7256 459.979 97.7259 466.98 106.361 466.98H258.32C266.955 466.98 273.955 459.979 273.955 451.344V85.8622C273.955 77.2269 266.955 70.2266 258.32 70.2266H236.332V72.6696C236.332 78.0667 231.957 82.4419 226.56 82.4419H138.61C133.213 82.4419 128.837 78.0667 128.837 72.6696V70.2266Z" fill="white"/>
<rect opacity="0.4" x="163.531" y="70.2227" width="42.0207" height="3.9089" rx="1.95445" fill="#CCCCCC"/>
<rect opacity="0.5" x="212.39" y="67.7812" width="8.79502" height="8.79502" rx="4.39751" fill="#DDDDDD"/>
<rect opacity="0.5" x="214.347" y="69.7344" width="4.88612" height="4.88612" rx="2.44306" fill="white"/>
<rect opacity="0.5" x="140.077" y="70.2227" width="3.9089" height="3.9089" rx="1.95445" fill="#CCCCCC"/>
<defs>
<filter id="filter0_d_63_1257" x="184.579" y="83.245" width="795.801" height="510.18" filterUnits="userSpaceOnUse" color-interpolation-filters="sRGB">
<feFlood flood-opacity="0" result="BackgroundImageFix"/>
<feColorMatrix in="SourceAlpha" type="matrix" values="0 0 0 0 0 0 0 0 0 0 0 0 0 0 0 0 0 0 127 0" result="hardAlpha"/>
<feMorphology radius="9.27147" operator="erode" in="SourceAlpha" result="effect1_dropShadow_63_1257"/>
<feOffset dy="19.3156"/>
<feGaussianBlur stdDeviation="19.3156"/>
<feColorMatrix type="matrix" values="0 0 0 0 0 0 0 0 0 0 0 0 0 0 0 0 0 0 0.25 0"/>
<feBlend mode="normal" in2="BackgroundImageFix" result="effect1_dropShadow_63_1257"/>
<feBlend mode="normal" in="SourceGraphic" in2="effect1_dropShadow_63_1257" result="shape"/>
</filter>
<filter id="filter1_di_63_1257" x="213.939" y="93.2891" width="737.082" height="30.8075" filterUnits="userSpaceOnUse" color-interpolation-filters="sRGB">
<feFlood flood-opacity="0" result="BackgroundImageFix"/>
<feColorMatrix in="SourceAlpha" type="matrix" values="0 0 0 0 0 0 0 0 0 0 0 0 0 0 0 0 0 0 127 0" result="hardAlpha"/>
<feOffset dy="0.287923"/>
<feColorMatrix type="matrix" values="0 0 0 0 0 0 0 0 0 0 0 0 0 0 0 0 0 0 0.15 0"/>
<feBlend mode="normal" in2="BackgroundImageFix" result="effect1_dropShadow_63_1257"/>
<feBlend mode="normal" in="SourceGraphic" in2="effect1_dropShadow_63_1257" result="shape"/>
<feColorMatrix in="SourceAlpha" type="matrix" values="0 0 0 0 0 0 0 0 0 0 0 0 0 0 0 0 0 0 127 0" result="hardAlpha"/>
<feOffset dy="-0.287923"/>
<feComposite in2="hardAlpha" operator="arithmetic" k2="-1" k3="1"/>
<feColorMatrix type="matrix" values="0 0 0 0 0 0 0 0 0 0 0 0 0 0 0 0 0 0 0.05 0"/>
<feBlend mode="normal" in2="shape" result="effect2_innerShadow_63_1257"/>
</filter>
<filter id="filter2_i_63_1257" x="226.033" y="104.805" width="6.91016" height="6.91016" filterUnits="userSpaceOnUse" color-interpolation-filters="sRGB">
<feFlood flood-opacity="0" result="BackgroundImageFix"/>
<feBlend mode="normal" in="SourceGraphic" in2="BackgroundImageFix" result="shape"/>
<feColorMatrix in="SourceAlpha" type="matrix" values="0 0 0 0 0 0 0 0 0 0 0 0 0 0 0 0 0 0 127 0" result="hardAlpha"/>
<feOffset/>
<feGaussianBlur stdDeviation="1.72753"/>
<feComposite in2="hardAlpha" operator="arithmetic" k2="-1" k3="1"/>
<feColorMatrix type="matrix" values="0 0 0 0 0.92549 0 0 0 0 0.427451 0 0 0 0 0.384314 0 0 0 1 0"/>
<feBlend mode="normal" in2="shape" result="effect1_innerShadow_63_1257"/>
</filter>
<filter id="filter3_i_63_1257" x="237.552" y="104.805" width="6.91016" height="6.91016" filterUnits="userSpaceOnUse" color-interpolation-filters="sRGB">
<feFlood flood-opacity="0" result="BackgroundImageFix"/>
<feBlend mode="normal" in="SourceGraphic" in2="BackgroundImageFix" result="shape"/>
<feColorMatrix in="SourceAlpha" type="matrix" values="0 0 0 0 0 0 0 0 0 0 0 0 0 0 0 0 0 0 127 0" result="hardAlpha"/>
<feOffset/>
<feGaussianBlur stdDeviation="1.72753"/>
<feComposite in2="hardAlpha" operator="arithmetic" k2="-1" k3="1"/>
<feColorMatrix type="matrix" values="0 0 0 0 0.960784 0 0 0 0 0.768627 0 0 0 0 0.317647 0 0 0 1 0"/>
<feBlend mode="normal" in2="shape" result="effect1_innerShadow_63_1257"/>
</filter>
<filter id="filter4_i_63_1257" x="249.068" y="104.805" width="6.91016" height="6.91016" filterUnits="userSpaceOnUse" color-interpolation-filters="sRGB">
<feFlood flood-opacity="0" result="BackgroundImageFix"/>
<feBlend mode="normal" in="SourceGraphic" in2="BackgroundImageFix" result="shape"/>
<feColorMatrix in="SourceAlpha" type="matrix" values="0 0 0 0 0 0 0 0 0 0 0 0 0 0 0 0 0 0 127 0" result="hardAlpha"/>
<feOffset/>
<feGaussianBlur stdDeviation="1.72753"/>
<feComposite in2="hardAlpha" operator="arithmetic" k2="-1" k3="1"/>
<feColorMatrix type="matrix" values="0 0 0 0 0.407843 0 0 0 0 0.8 0 0 0 0 0.345098 0 0 0 1 0"/>
<feBlend mode="normal" in2="shape" result="effect1_innerShadow_63_1257"/>
</filter>
<filter id="filter5_d_63_1257" x="0.0997009" y="0.737152" width="449.697" height="657.114" filterUnits="userSpaceOnUse" color-interpolation-filters="sRGB">
<feFlood flood-opacity="0" result="BackgroundImageFix"/>
<feColorMatrix in="SourceAlpha" type="matrix" values="0 0 0 0 0 0 0 0 0 0 0 0 0 0 0 0 0 0 127 0" result="hardAlpha"/>
<feOffset dx="42.4848" dy="60.6925"/>
<feGaussianBlur stdDeviation="60.6925"/>
<feColorMatrix type="matrix" values="0 0 0 0 0 0 0 0 0 0 0 0 0 0 0 0 0 0 0.17 0"/>
<feBlend mode="normal" in2="BackgroundImageFix" result="effect1_dropShadow_63_1257"/>
<feBlend mode="normal" in="SourceGraphic" in2="effect1_dropShadow_63_1257" result="shape"/>
</filter>
<clipPath id="clip0_63_1257">
<rect x="213.939" y="93.2891" width="737.082" height="451.462" rx="5.75845" fill="white"/>
</clipPath>
<clipPath id="clip1_63_1257">
<rect width="38.0058" height="16.1237" fill="white" transform="translate(291.103 100.199)"/>
</clipPath>
<clipPath id="clip2_63_1257">
<rect width="345.507" height="16.1237" fill="white" transform="translate(409.728 100.199)"/>
</clipPath>
<clipPath id="clip3_63_1257">
<rect x="541.798" y="103.625" width="81.362" height="9.27147" fill="white"/>
</clipPath>
</defs>
</svg>
