<svg width="24" height="23" viewBox="0 0 24 23" fill="none" xmlns="http://www.w3.org/2000/svg">
<path d="M11.9745 0.792402L15.2515 7.45861L22.5893 8.52492C22.6825 8.53871 22.7698 8.57822 22.8416 8.63898C22.9135 8.69974 22.9668 8.77934 22.9958 8.86883C23.0247 8.95831 23.028 9.05413 23.0054 9.14547C22.9828 9.23682 22.9351 9.32008 22.8677 9.38586L17.5536 14.577L18.8006 21.9048C18.8167 21.9974 18.8064 22.0927 18.7711 22.1799C18.7357 22.2671 18.6766 22.3426 18.6004 22.398C18.5243 22.4534 18.4342 22.4864 18.3403 22.4933C18.2464 22.5001 18.1525 22.4806 18.0693 22.4368L11.508 18.9804L4.94041 22.4434C4.85713 22.4874 4.76321 22.5072 4.66931 22.5005C4.57541 22.4939 4.4853 22.461 4.40922 22.4057C4.33315 22.3504 4.27415 22.2749 4.23894 22.1877C4.20374 22.1005 4.19373 22.0052 4.21006 21.9125L5.47022 14.5822L0.164008 9.39562C0.0967279 9.32989 0.0491773 9.24667 0.0267113 9.15534C0.00424531 9.06402 0.00775628 8.9682 0.0368489 8.87869C0.0659415 8.78918 0.11946 8.70953 0.191378 8.64871C0.263295 8.58788 0.350755 8.54831 0.443908 8.53443L7.78366 7.46182L11.0741 0.792788C11.1152 0.708278 11.1792 0.636993 11.2589 0.5871C11.3385 0.537207 11.4306 0.510723 11.5246 0.510683C11.6186 0.510642 11.7106 0.537047 11.7902 0.586872C11.8698 0.636697 11.9336 0.707926 11.9745 0.792402Z" fill="#FFC559"/>
</svg>
