<svg width="797" height="512" viewBox="0 0 797 512" fill="none" xmlns="http://www.w3.org/2000/svg">
<g filter="url(#filter0_d_492_4669)">
<g clip-path="url(#clip0_492_4669)">
<rect x="30" y="11" width="737.082" height="451.462" rx="5.75845" fill="white"/>
<rect x="30" y="41.5195" width="737.082" height="420.943" fill="white"/>
<g filter="url(#filter1_di_492_4669)">
<path d="M30 16.7585C30 13.5781 32.5781 11 35.7584 11H761.323C764.503 11 767.082 13.5781 767.082 16.7585V41.5198H30V16.7585Z" fill="white"/>
<g clip-path="url(#clip1_492_4669)">
<path d="M679.84 30.8527C682.508 30.8527 684.716 28.6396 684.716 25.9771C684.716 23.3099 682.503 21.1016 679.836 21.1016C677.173 21.1016 674.965 23.3099 674.965 25.9771C674.965 28.6396 677.178 30.8527 679.84 30.8527ZM679.84 30.0401C677.584 30.0401 675.782 28.2333 675.782 25.9771C675.782 23.721 677.579 21.9142 679.836 21.9142C682.092 21.9142 683.899 23.721 683.903 25.9771C683.908 28.2333 682.097 30.0401 679.84 30.0401ZM679.84 23.5441C679.635 23.5441 679.482 23.6923 679.482 23.9026V26.2926L679.52 27.3012L679.042 26.7276L678.473 26.154C678.406 26.0918 678.32 26.0488 678.22 26.0488C678.024 26.0488 677.876 26.2018 677.876 26.393C677.876 26.4934 677.905 26.5794 677.967 26.6415L679.563 28.2333C679.659 28.3289 679.74 28.3671 679.84 28.3671C679.946 28.3671 680.032 28.3241 680.122 28.2333L681.714 26.6415C681.776 26.5794 681.815 26.4934 681.815 26.393C681.815 26.2018 681.662 26.0488 681.466 26.0488C681.36 26.0488 681.274 26.0871 681.212 26.154L680.648 26.7276L680.161 27.306L680.199 26.2926V23.9026C680.199 23.6923 680.051 23.5441 679.84 23.5441Z" fill="#737373"/>
<path d="M703.448 27.2761C703.654 27.2761 703.826 27.1041 703.826 26.9033V21.9943L703.797 21.2773L704.122 21.6167L704.844 22.391C704.911 22.4675 705.011 22.5057 705.102 22.5057C705.303 22.5057 705.451 22.3623 705.451 22.1664C705.451 22.066 705.413 21.9895 705.341 21.9178L703.725 20.3595C703.63 20.2639 703.544 20.2305 703.448 20.2305C703.353 20.2305 703.267 20.2639 703.171 20.3595L701.555 21.9178C701.484 21.9895 701.441 22.066 701.441 22.1664C701.441 22.3623 701.589 22.5057 701.785 22.5057C701.88 22.5057 701.981 22.4675 702.048 22.391L702.774 21.6167L703.099 21.2773L703.066 21.9943V26.9033C703.066 27.1041 703.243 27.2761 703.448 27.2761ZM700.705 31.0188H706.187C707.186 31.0188 707.688 30.5217 707.688 29.5371V24.7667C707.688 23.782 707.186 23.2849 706.187 23.2849H704.854V24.0544H706.173C706.646 24.0544 706.918 24.3126 706.918 24.8097V29.494C706.918 29.9912 706.646 30.2493 706.173 30.2493H700.714C700.236 30.2493 699.973 29.9912 699.973 29.494V24.8097C699.973 24.3126 700.236 24.0544 700.714 24.0544H702.038V23.2849H700.705C699.706 23.2849 699.204 23.782 699.204 24.7667V29.5371C699.204 30.5217 699.706 31.0188 700.705 31.0188Z" fill="#737373"/>
<path d="M727.061 30.0065C727.295 30.0065 727.491 29.8201 727.491 29.5906V26.412H730.579C730.809 26.412 731.005 26.216 731.005 25.9818C731.005 25.7475 730.809 25.5563 730.579 25.5563H727.491V22.3729C727.491 22.1434 727.295 21.957 727.061 21.957C726.827 21.957 726.636 22.1434 726.636 22.3729V25.5563H723.543C723.314 25.5563 723.118 25.7475 723.118 25.9818C723.118 26.216 723.314 26.412 723.543 26.412H726.636V29.5906C726.636 29.8201 726.827 30.0065 727.061 30.0065Z" fill="#737373"/>
<path d="M747.111 28.7775H747.929V29.5088C747.929 30.4935 748.426 30.9906 749.43 30.9906H754.229C755.223 30.9906 755.725 30.4935 755.725 29.5088V24.6715C755.725 23.6868 755.223 23.1897 754.229 23.1897H753.406V22.4584C753.406 21.4737 752.905 20.9766 751.91 20.9766H747.111C746.107 20.9766 745.61 21.4737 745.61 22.4584V27.2957C745.61 28.2803 746.107 28.7775 747.111 28.7775ZM747.121 28.0079C746.643 28.0079 746.38 27.7498 746.38 27.2527V22.5014C746.38 22.0043 746.643 21.7461 747.121 21.7461H751.896C752.369 21.7461 752.637 22.0043 752.637 22.5014V23.1897H749.43C748.426 23.1897 747.929 23.682 747.929 24.6715V28.0079H747.121ZM749.439 30.221C748.966 30.221 748.698 29.9629 748.698 29.4658V24.7145C748.698 24.2174 748.966 23.9593 749.439 23.9593H754.214C754.688 23.9593 754.955 24.2174 754.955 24.7145V29.4658C754.955 29.9629 754.688 30.221 754.214 30.221H749.439Z" fill="#737373"/>
</g>
<g clip-path="url(#clip2_492_4669)">
<path d="M118.257 29.994L114.467 26.2944C114.376 26.2035 114.328 26.0936 114.328 25.9741C114.328 25.8498 114.381 25.7303 114.472 25.6538L118.257 21.9494C118.339 21.8681 118.444 21.8203 118.568 21.8203C118.817 21.8203 119.003 22.0115 119.003 22.2601C119.003 22.3748 118.955 22.4895 118.879 22.5708L115.399 25.9741L118.879 29.3774C118.955 29.4587 119.003 29.5686 119.003 29.6881C119.003 29.9367 118.817 30.1231 118.568 30.1231C118.444 30.1231 118.339 30.0753 118.257 29.994Z" fill="#737373"/>
<path d="M133.766 30.1279C133.89 30.1279 133.995 30.0801 134.077 29.9988L137.867 26.2944C137.958 26.2035 138.006 26.0936 138.006 25.9741C138.006 25.8498 137.958 25.7351 137.867 25.6538L134.082 21.9542C133.995 21.8681 133.89 21.8203 133.766 21.8203C133.517 21.8203 133.331 22.0115 133.331 22.2601C133.331 22.3748 133.379 22.4895 133.455 22.5708L136.935 25.9741L133.455 29.3774C133.379 29.4587 133.331 29.5686 133.331 29.6881C133.331 29.9367 133.517 30.1279 133.766 30.1279Z" fill="#BFBFBF"/>
</g>
<path d="M88.3447 30.3819H96.614C97.6178 30.3819 98.1149 29.8848 98.1149 28.9002V23.0638C98.1149 22.0791 97.6178 21.582 96.614 21.582H88.3447C87.3456 21.582 86.8438 22.0744 86.8438 23.0638V28.9002C86.8438 29.8896 87.3456 30.3819 88.3447 30.3819ZM88.3542 29.6124C87.8762 29.6124 87.6133 29.359 87.6133 28.8619V23.1021C87.6133 22.6049 87.8762 22.3516 88.3542 22.3516H90.4861V29.6124H88.3542ZM96.6044 22.3516C97.0777 22.3516 97.3453 22.6049 97.3453 23.1021V28.8619C97.3453 29.359 97.0777 29.6124 96.6044 29.6124H91.2365V22.3516H96.6044ZM89.5635 24.125C89.7117 24.125 89.836 23.9959 89.836 23.8573C89.836 23.7139 89.7117 23.5896 89.5635 23.5896H88.5406C88.3972 23.5896 88.2682 23.7139 88.2682 23.8573C88.2682 23.9959 88.3972 24.125 88.5406 24.125H89.5635ZM89.5635 25.363C89.7117 25.363 89.836 25.2339 89.836 25.0905C89.836 24.9471 89.7117 24.8276 89.5635 24.8276H88.5406C88.3972 24.8276 88.2682 24.9471 88.2682 25.0905C88.2682 25.2339 88.3972 25.363 88.5406 25.363H89.5635ZM89.5635 26.5962C89.7117 26.5962 89.836 26.4767 89.836 26.3333C89.836 26.1899 89.7117 26.0656 89.5635 26.0656H88.5406C88.3972 26.0656 88.2682 26.1899 88.2682 26.3333C88.2682 26.4767 88.3972 26.5962 88.5406 26.5962H89.5635Z" fill="#737373"/>
<g filter="url(#filter2_i_492_4669)">
<path fill-rule="evenodd" clip-rule="evenodd" d="M45.5488 29.4258C47.457 29.4258 49.0039 27.8789 49.0039 25.9707C49.0039 24.0625 47.457 22.5156 45.5488 22.5156C43.6406 22.5156 42.0938 24.0625 42.0938 25.9707C42.0938 27.8789 43.6406 29.4258 45.5488 29.4258Z" fill="#EE6A5F"/>
</g>
<path d="M48.8599 25.9707C48.8599 27.7994 47.3775 29.2818 45.5488 29.2818C43.7201 29.2818 42.2377 27.7994 42.2377 25.9707C42.2377 24.142 43.7201 22.6596 45.5488 22.6596C47.3775 22.6596 48.8599 24.142 48.8599 25.9707Z" stroke="#CE5347" stroke-width="0.287923"/>
<g filter="url(#filter3_i_492_4669)">
<path fill-rule="evenodd" clip-rule="evenodd" d="M57.0684 29.4258C58.9765 29.4258 60.5234 27.8789 60.5234 25.9707C60.5234 24.0625 58.9765 22.5156 57.0684 22.5156C55.1602 22.5156 53.6133 24.0625 53.6133 25.9707C53.6133 27.8789 55.1602 29.4258 57.0684 29.4258Z" fill="#F5BD4F"/>
</g>
<path d="M60.3795 25.9707C60.3795 27.7994 58.897 29.2818 57.0684 29.2818C55.2397 29.2818 53.7572 27.7994 53.7572 25.9707C53.7572 24.142 55.2397 22.6596 57.0684 22.6596C58.897 22.6596 60.3795 24.142 60.3795 25.9707Z" stroke="#D6A243" stroke-width="0.287923"/>
<g filter="url(#filter4_i_492_4669)">
<path fill-rule="evenodd" clip-rule="evenodd" d="M68.584 29.4258C70.4922 29.4258 72.039 27.8789 72.039 25.9707C72.039 24.0625 70.4922 22.5156 68.584 22.5156C66.6758 22.5156 65.1289 24.0625 65.1289 25.9707C65.1289 27.8789 66.6758 29.4258 68.584 29.4258Z" fill="#61C454"/>
</g>
<path d="M71.8951 25.9707C71.8951 27.7994 70.4127 29.2818 68.584 29.2818C66.7553 29.2818 65.2729 27.7994 65.2729 25.9707C65.2729 24.142 66.7553 22.6596 68.584 22.6596C70.4127 22.6596 71.8951 24.142 71.8951 25.9707Z" stroke="#58A942" stroke-width="0.287923"/>
<g clip-path="url(#clip3_492_4669)">
<path d="M235.292 30.9329C235.369 30.9329 235.493 30.9042 235.613 30.8373C238.333 29.3125 239.265 28.6672 239.265 26.9225V23.2658C239.265 22.7639 239.05 22.6062 238.643 22.4341C238.079 22.1999 236.258 21.545 235.694 21.349C235.565 21.306 235.426 21.2773 235.292 21.2773C235.159 21.2773 235.02 21.3156 234.896 21.349C234.332 21.5116 232.506 22.2047 231.942 22.4341C231.54 22.6014 231.32 22.7639 231.32 23.2658V26.9225C231.32 28.6672 232.257 29.3077 234.972 30.8373C235.096 30.9042 235.216 30.9329 235.292 30.9329ZM235.484 22.0899C236.205 22.3767 237.606 22.8834 238.347 23.1367C238.476 23.1845 238.505 23.2515 238.505 23.414V26.7456C238.505 28.2226 237.797 28.6098 235.589 29.953C235.45 30.039 235.374 30.0629 235.297 30.0677V22.0469C235.345 22.0469 235.407 22.0613 235.484 22.0899Z" fill="#737373"/>
<rect x="249.973" y="17.9102" width="297.136" height="16.1237" rx="3.45507" fill="black" fill-opacity="0.05"/>
<g clip-path="url(#clip4_492_4669)">
<path d="M358.507 29.2625H361.719C362.155 29.2625 362.367 29.0466 362.367 28.5742V26.0976C362.367 25.6725 362.192 25.4532 361.831 25.4161V24.5658C361.831 23.2938 360.997 22.6797 360.113 22.6797C359.229 22.6797 358.396 23.2938 358.396 24.5658V25.4329C358.065 25.4836 357.859 25.6995 357.859 26.0976V28.5742C357.859 29.0466 358.072 29.2625 358.507 29.2625ZM358.939 24.4949C358.939 23.6481 359.482 23.1993 360.113 23.1993C360.744 23.1993 361.287 23.6481 361.287 24.4949V25.4127L358.939 25.4161V24.4949Z" fill="#9E9E9E"/>
<path d="M368.755 30.379C368.938 30.379 369.115 30.3575 369.298 30.3252V29.5289C369.126 29.545 369.034 29.5504 368.868 29.5504C368.265 29.5504 368.028 29.276 368.028 28.5927V25.3106H369.298V24.5358H368.028V23.0347H367.06V24.5358H366.145V25.3106H367.06V28.8294C367.06 29.9378 367.56 30.379 368.755 30.379ZM370.707 30.3359H371.643V26.9032C371.643 25.8863 372.229 25.2622 373.155 25.2622C374.08 25.2622 374.511 25.7626 374.511 26.8064V30.3359H375.447V26.5804C375.447 25.203 374.72 24.4336 373.418 24.4336C372.563 24.4336 372.019 24.7941 371.729 25.4075H371.643V22.233H370.707V30.3359ZM379.465 30.4382C380.832 30.4382 381.66 29.6634 381.859 28.8778L381.87 28.8348H380.934L380.912 28.8832C380.756 29.2329 380.272 29.6042 379.486 29.6042C378.453 29.6042 377.792 28.9047 377.765 27.7049H381.94V27.339C381.94 25.6065 380.982 24.4336 379.406 24.4336C377.829 24.4336 376.807 25.6603 376.807 27.452V27.4574C376.807 29.276 377.808 30.4382 379.465 30.4382ZM379.4 25.2676C380.256 25.2676 380.891 25.811 380.988 26.957H377.781C377.883 25.854 378.54 25.2676 379.4 25.2676ZM385.49 30.4382C386.297 30.4382 386.943 30.0562 387.298 29.4105H387.384V30.3359H388.32V22.233H387.384V25.4505H387.298C386.98 24.8318 386.286 24.4336 385.49 24.4336C384.016 24.4336 383.058 25.6119 383.058 27.4305V27.4413C383.058 29.2491 384.021 30.4382 385.49 30.4382ZM385.705 29.6096C384.645 29.6096 384.016 28.7918 384.016 27.4413V27.4305C384.016 26.08 384.645 25.2622 385.705 25.2622C386.76 25.2622 387.405 26.0908 387.405 27.4305V27.4413C387.405 28.781 386.76 29.6096 385.705 29.6096ZM392.44 30.4382C393.807 30.4382 394.636 29.6634 394.835 28.8778L394.846 28.8348H393.909L393.888 28.8832C393.732 29.2329 393.248 29.6042 392.462 29.6042C391.429 29.6042 390.767 28.9047 390.74 27.7049H394.915V27.339C394.915 25.6065 393.958 24.4336 392.381 24.4336C390.805 24.4336 389.783 25.6603 389.783 27.452V27.4574C389.783 29.276 390.783 30.4382 392.44 30.4382ZM392.376 25.2676C393.231 25.2676 393.866 25.811 393.963 26.957H390.756C390.859 25.854 391.515 25.2676 392.376 25.2676ZM398.315 30.4382C399.633 30.4382 400.639 29.7226 400.639 28.6895V28.6788C400.639 27.8502 400.112 27.3767 399.02 27.1131L398.127 26.8978C397.443 26.7311 397.153 26.4836 397.153 26.0908V26.08C397.153 25.5689 397.658 25.2138 398.347 25.2138C399.047 25.2138 399.499 25.5312 399.622 25.9886H400.542C400.413 25.0416 399.569 24.4336 398.353 24.4336C397.12 24.4336 396.195 25.16 396.195 26.1231V26.1284C396.195 26.9624 396.685 27.4359 397.771 27.6941L398.67 27.9094C399.386 28.0815 399.682 28.3559 399.682 28.7487V28.7595C399.682 29.2868 399.127 29.658 398.347 29.658C397.605 29.658 397.142 29.3406 396.986 28.8563H396.028C396.136 29.814 397.024 30.4382 398.315 30.4382ZM402.543 23.4167C402.898 23.4167 403.189 23.1262 403.189 22.7711C403.189 22.4159 402.898 22.1254 402.543 22.1254C402.188 22.1254 401.897 22.4159 401.897 22.7711C401.897 23.1262 402.188 23.4167 402.543 23.4167ZM402.069 30.3359H403.006V24.5358H402.069V30.3359ZM407.115 32.3805C408.697 32.3805 409.698 31.5519 409.698 30.2552V24.5358H408.762V25.4936H408.697C408.342 24.8371 407.707 24.4336 406.889 24.4336C405.372 24.4336 404.436 25.6119 404.436 27.2368V27.2476C404.436 28.8725 405.367 30.0346 406.868 30.0346C407.664 30.0346 408.32 29.6741 408.686 29.0339H408.772V30.2068C408.772 31.0623 408.154 31.5519 407.115 31.5519C406.281 31.5519 405.765 31.2398 405.662 30.7987L405.657 30.7933H404.689L404.678 30.7987C404.823 31.751 405.716 32.3805 407.115 32.3805ZM407.072 29.206C405.996 29.206 405.393 28.399 405.393 27.2476V27.2368C405.393 26.0854 405.996 25.2622 407.072 25.2622C408.143 25.2622 408.794 26.0854 408.794 27.2368V27.2476C408.794 28.399 408.148 29.206 407.072 29.206ZM411.397 30.3359H412.333V26.9032C412.333 25.8863 412.92 25.2622 413.845 25.2622C414.771 25.2622 415.201 25.7626 415.201 26.8064V30.3359H416.137V26.5804C416.137 25.203 415.411 24.4336 414.109 24.4336C413.253 24.4336 412.71 24.7941 412.419 25.4075H412.333V24.5358H411.397V30.3359ZM420.155 30.4382C421.522 30.4382 422.351 29.6634 422.55 28.8778L422.56 28.8348H421.624L421.603 28.8832C421.447 29.2329 420.962 29.6042 420.177 29.6042C419.144 29.6042 418.482 28.9047 418.455 27.7049H422.63V27.339C422.63 25.6065 421.673 24.4336 420.096 24.4336C418.52 24.4336 417.497 25.6603 417.497 27.452V27.4574C417.497 29.276 418.498 30.4382 420.155 30.4382ZM420.091 25.2676C420.946 25.2676 421.581 25.811 421.678 26.957H418.471C418.573 25.854 419.23 25.2676 420.091 25.2676ZM424.039 30.3359H424.975V26.7418C424.975 25.8917 425.61 25.3268 426.503 25.3268C426.708 25.3268 426.885 25.3483 427.079 25.3806V24.4713C426.987 24.4551 426.788 24.4336 426.611 24.4336C425.825 24.4336 425.282 24.7887 425.061 25.3967H424.975V24.5358H424.039V30.3359ZM430.075 30.4382C431.393 30.4382 432.399 29.7226 432.399 28.6895V28.6788C432.399 27.8502 431.872 27.3767 430.78 27.1131L429.886 26.8978C429.203 26.7311 428.913 26.4836 428.913 26.0908V26.08C428.913 25.5689 429.418 25.2138 430.107 25.2138C430.806 25.2138 431.258 25.5312 431.382 25.9886H432.302C432.173 25.0416 431.328 24.4336 430.112 24.4336C428.88 24.4336 427.955 25.16 427.955 26.1231V26.1284C427.955 26.9624 428.444 27.4359 429.531 27.6941L430.43 27.9094C431.145 28.0815 431.441 28.3559 431.441 28.7487V28.7595C431.441 29.2868 430.887 29.658 430.107 29.658C429.365 29.658 428.902 29.3406 428.746 28.8563H427.788C427.896 29.814 428.783 30.4382 430.075 30.4382ZM433.862 30.3359H434.798V26.9032C434.798 25.8863 435.384 25.2622 436.31 25.2622C437.235 25.2622 437.665 25.7626 437.665 26.8064V30.3359H438.602V26.5804C438.602 25.203 437.875 24.4336 436.573 24.4336C435.718 24.4336 435.174 24.7941 434.884 25.4075H434.798V22.233H433.862V30.3359ZM440.747 23.4167C441.103 23.4167 441.393 23.1262 441.393 22.7711C441.393 22.4159 441.103 22.1254 440.747 22.1254C440.392 22.1254 440.102 22.4159 440.102 22.7711C440.102 23.1262 440.392 23.4167 440.747 23.4167ZM440.274 30.3359H441.21V24.5358H440.274V30.3359ZM442.931 32.2729H443.867V29.4213H443.953C444.271 30.04 444.965 30.4382 445.761 30.4382C447.235 30.4382 448.193 29.2599 448.193 27.4413V27.4305C448.193 25.6227 447.23 24.4336 445.761 24.4336C444.954 24.4336 444.308 24.8156 443.953 25.4613H443.867V24.5358H442.931V32.2729ZM445.546 29.6096C444.491 29.6096 443.846 28.781 443.846 27.4413V27.4305C443.846 26.0908 444.491 25.2622 445.546 25.2622C446.606 25.2622 447.235 26.08 447.235 27.4305V27.4413C447.235 28.7918 446.606 29.6096 445.546 29.6096ZM450.269 30.3897C450.656 30.3897 450.968 30.0723 450.968 29.6903C450.968 29.3029 450.656 28.9908 450.269 28.9908C449.887 28.9908 449.569 29.3029 449.569 29.6903C449.569 30.0723 449.887 30.3897 450.269 30.3897ZM454.889 30.4382C456.283 30.4382 457.063 29.6903 457.3 28.6411L457.311 28.5819L456.385 28.5873L456.374 28.6196C456.159 29.2652 455.664 29.6096 454.884 29.6096C453.851 29.6096 453.184 28.7541 453.184 27.4197V27.409C453.184 26.1015 453.84 25.2622 454.884 25.2622C455.718 25.2622 456.235 25.7249 456.38 26.2952L456.385 26.3114H457.316L457.311 26.2791C457.139 25.2461 456.294 24.4336 454.884 24.4336C453.259 24.4336 452.226 25.6065 452.226 27.409V27.4197C452.226 29.2599 453.265 30.4382 454.889 30.4382ZM461.022 30.4382C462.674 30.4382 463.696 29.2975 463.696 27.4413V27.4305C463.696 25.5689 462.674 24.4336 461.022 24.4336C459.37 24.4336 458.348 25.5689 458.348 27.4305V27.4413C458.348 29.2975 459.37 30.4382 461.022 30.4382ZM461.022 29.6096C459.925 29.6096 459.306 28.8079 459.306 27.4413V27.4305C459.306 26.0585 459.925 25.2622 461.022 25.2622C462.12 25.2622 462.738 26.0585 462.738 27.4305V27.4413C462.738 28.8079 462.12 29.6096 461.022 29.6096ZM465.105 30.3359H466.041V26.7418C466.041 25.924 466.617 25.2622 467.375 25.2622C468.107 25.2622 468.581 25.7088 468.581 26.3975V30.3359H469.517V26.6073C469.517 25.8702 470.049 25.2622 470.857 25.2622C471.674 25.2622 472.067 25.6872 472.067 26.5427V30.3359H473.003V26.3275C473.003 25.1115 472.342 24.4336 471.158 24.4336C470.356 24.4336 469.694 24.8371 469.382 25.4505H469.296C469.027 24.8479 468.478 24.4336 467.693 24.4336C466.934 24.4336 466.385 24.7941 466.127 25.4182H466.041V24.5358H465.105V30.3359Z" fill="#4C4C4C"/>
</g>
<path d="M540.362 25.7496C540.446 25.7496 540.51 25.7226 540.557 25.672L541.948 24.2751C542.008 24.2178 542.032 24.1503 542.032 24.0727C542.032 23.9985 542.002 23.9242 541.948 23.8703L540.557 22.4599C540.51 22.4059 540.443 22.3789 540.362 22.3789C540.21 22.3789 540.095 22.5004 540.095 22.6556C540.095 22.7264 540.122 22.7939 540.169 22.8479L541.07 23.7319C540.878 23.6982 540.682 23.6779 540.487 23.6779C538.833 23.6779 537.504 25.0039 537.504 26.6573C537.504 28.3139 538.833 29.6433 540.487 29.6433C542.14 29.6433 543.466 28.3139 543.466 26.6573C543.466 26.4953 543.351 26.3772 543.186 26.3772C543.027 26.3772 542.923 26.4953 542.923 26.6573C542.923 28.0136 541.84 29.1001 540.487 29.1001C539.134 29.1001 538.047 28.0136 538.047 26.6573C538.047 25.3042 539.134 24.2212 540.487 24.2212C540.743 24.2212 540.979 24.2414 541.182 24.2853L540.173 25.2874C540.122 25.3414 540.095 25.4088 540.095 25.4797C540.095 25.6349 540.21 25.7496 540.362 25.7496Z" fill="#797979"/>
</g>
</g>
</g>
</g>
<defs>
<filter id="filter0_d_492_4669" x="0.640359" y="0.955913" width="795.801" height="510.18" filterUnits="userSpaceOnUse" color-interpolation-filters="sRGB">
<feFlood flood-opacity="0" result="BackgroundImageFix"/>
<feColorMatrix in="SourceAlpha" type="matrix" values="0 0 0 0 0 0 0 0 0 0 0 0 0 0 0 0 0 0 127 0" result="hardAlpha"/>
<feMorphology radius="9.27147" operator="erode" in="SourceAlpha" result="effect1_dropShadow_492_4669"/>
<feOffset dy="19.3156"/>
<feGaussianBlur stdDeviation="19.3156"/>
<feColorMatrix type="matrix" values="0 0 0 0 0 0 0 0 0 0 0 0 0 0 0 0 0 0 0.25 0"/>
<feBlend mode="normal" in2="BackgroundImageFix" result="effect1_dropShadow_492_4669"/>
<feBlend mode="normal" in="SourceGraphic" in2="effect1_dropShadow_492_4669" result="shape"/>
</filter>
<filter id="filter1_di_492_4669" x="30" y="11" width="737.082" height="30.8075" filterUnits="userSpaceOnUse" color-interpolation-filters="sRGB">
<feFlood flood-opacity="0" result="BackgroundImageFix"/>
<feColorMatrix in="SourceAlpha" type="matrix" values="0 0 0 0 0 0 0 0 0 0 0 0 0 0 0 0 0 0 127 0" result="hardAlpha"/>
<feOffset dy="0.287923"/>
<feColorMatrix type="matrix" values="0 0 0 0 0 0 0 0 0 0 0 0 0 0 0 0 0 0 0.15 0"/>
<feBlend mode="normal" in2="BackgroundImageFix" result="effect1_dropShadow_492_4669"/>
<feBlend mode="normal" in="SourceGraphic" in2="effect1_dropShadow_492_4669" result="shape"/>
<feColorMatrix in="SourceAlpha" type="matrix" values="0 0 0 0 0 0 0 0 0 0 0 0 0 0 0 0 0 0 127 0" result="hardAlpha"/>
<feOffset dy="-0.287923"/>
<feComposite in2="hardAlpha" operator="arithmetic" k2="-1" k3="1"/>
<feColorMatrix type="matrix" values="0 0 0 0 0 0 0 0 0 0 0 0 0 0 0 0 0 0 0.05 0"/>
<feBlend mode="normal" in2="shape" result="effect2_innerShadow_492_4669"/>
</filter>
<filter id="filter2_i_492_4669" x="42.0938" y="22.5156" width="6.91016" height="6.91016" filterUnits="userSpaceOnUse" color-interpolation-filters="sRGB">
<feFlood flood-opacity="0" result="BackgroundImageFix"/>
<feBlend mode="normal" in="SourceGraphic" in2="BackgroundImageFix" result="shape"/>
<feColorMatrix in="SourceAlpha" type="matrix" values="0 0 0 0 0 0 0 0 0 0 0 0 0 0 0 0 0 0 127 0" result="hardAlpha"/>
<feOffset/>
<feGaussianBlur stdDeviation="1.72753"/>
<feComposite in2="hardAlpha" operator="arithmetic" k2="-1" k3="1"/>
<feColorMatrix type="matrix" values="0 0 0 0 0.92549 0 0 0 0 0.427451 0 0 0 0 0.384314 0 0 0 1 0"/>
<feBlend mode="normal" in2="shape" result="effect1_innerShadow_492_4669"/>
</filter>
<filter id="filter3_i_492_4669" x="53.6133" y="22.5156" width="6.91016" height="6.91016" filterUnits="userSpaceOnUse" color-interpolation-filters="sRGB">
<feFlood flood-opacity="0" result="BackgroundImageFix"/>
<feBlend mode="normal" in="SourceGraphic" in2="BackgroundImageFix" result="shape"/>
<feColorMatrix in="SourceAlpha" type="matrix" values="0 0 0 0 0 0 0 0 0 0 0 0 0 0 0 0 0 0 127 0" result="hardAlpha"/>
<feOffset/>
<feGaussianBlur stdDeviation="1.72753"/>
<feComposite in2="hardAlpha" operator="arithmetic" k2="-1" k3="1"/>
<feColorMatrix type="matrix" values="0 0 0 0 0.960784 0 0 0 0 0.768627 0 0 0 0 0.317647 0 0 0 1 0"/>
<feBlend mode="normal" in2="shape" result="effect1_innerShadow_492_4669"/>
</filter>
<filter id="filter4_i_492_4669" x="65.1289" y="22.5156" width="6.91016" height="6.91016" filterUnits="userSpaceOnUse" color-interpolation-filters="sRGB">
<feFlood flood-opacity="0" result="BackgroundImageFix"/>
<feBlend mode="normal" in="SourceGraphic" in2="BackgroundImageFix" result="shape"/>
<feColorMatrix in="SourceAlpha" type="matrix" values="0 0 0 0 0 0 0 0 0 0 0 0 0 0 0 0 0 0 127 0" result="hardAlpha"/>
<feOffset/>
<feGaussianBlur stdDeviation="1.72753"/>
<feComposite in2="hardAlpha" operator="arithmetic" k2="-1" k3="1"/>
<feColorMatrix type="matrix" values="0 0 0 0 0.407843 0 0 0 0 0.8 0 0 0 0 0.345098 0 0 0 1 0"/>
<feBlend mode="normal" in2="shape" result="effect1_innerShadow_492_4669"/>
</filter>
<clipPath id="clip0_492_4669">
<rect x="30" y="11" width="737.082" height="451.462" rx="5.75845" fill="white"/>
</clipPath>
<clipPath id="clip1_492_4669">
<rect width="89.8318" height="16.1237" fill="white" transform="translate(670.34 17.9102)"/>
</clipPath>
<clipPath id="clip2_492_4669">
<rect width="38.0058" height="16.1237" fill="white" transform="translate(107.164 17.9102)"/>
</clipPath>
<clipPath id="clip3_492_4669">
<rect width="345.507" height="16.1237" fill="white" transform="translate(225.789 17.9102)"/>
</clipPath>
<clipPath id="clip4_492_4669">
<rect x="357.859" y="21.3359" width="81.362" height="9.27147" fill="white"/>
</clipPath>
</defs>
</svg>
