<svg width="32" height="33" viewBox="0 0 32 33" fill="none" xmlns="http://www.w3.org/2000/svg">
<path d="M25.3333 2.88574H6.66667C2.99067 2.88574 0 5.87641 0 9.55241V22.8857C0 26.5617 2.99067 29.5524 6.66667 29.5524H25.3333C29.0093 29.5524 32 26.5617 32 22.8857V9.55241C32 5.87641 29.0093 2.88574 25.3333 2.88574ZM29.3333 22.8857C29.3333 25.0911 27.5387 26.8857 25.3333 26.8857H6.66667C4.46133 26.8857 2.66667 25.0911 2.66667 22.8857V9.55241C2.66667 7.34708 4.46133 5.55241 6.66667 5.55241H25.3333C27.5387 5.55241 29.3333 7.34708 29.3333 9.55241V22.8857ZM25.3333 8.21908C24.5973 8.21908 24 8.81641 24 9.55241V15.3364C23.3933 15.0471 22.7147 14.8857 22 14.8857C19.4267 14.8857 17.3333 16.9791 17.3333 19.5524C17.3333 22.1257 19.4267 24.2191 22 24.2191C22.8107 24.2191 23.5733 24.0111 24.2387 23.6457C24.48 23.9924 24.88 24.2191 25.3333 24.2191C26.0693 24.2191 26.6667 23.6217 26.6667 22.8857V9.55241C26.6667 8.81641 26.0693 8.21908 25.3333 8.21908ZM22 21.5524C20.8973 21.5524 20 20.6551 20 19.5524C20 18.4497 20.8973 17.5524 22 17.5524C23.1027 17.5524 24 18.4497 24 19.5524C24 20.6551 23.1027 21.5524 22 21.5524ZM11.944 9.16974C11.7747 8.60574 11.2547 8.21908 10.6667 8.21908C10.0787 8.21908 9.55867 8.60574 9.38933 9.16974L5.38933 22.5031C5.17733 23.2084 5.57867 23.9511 6.284 24.1631C6.98933 24.3751 7.732 23.9751 7.944 23.2684L8.45867 21.5524H12.8747L13.3893 23.2684C13.5627 23.8471 14.092 24.2191 14.6667 24.2191C14.7933 24.2191 14.9227 24.2004 15.0507 24.1631C15.756 23.9511 16.1573 23.2084 15.9453 22.5031L11.944 9.16974ZM9.25867 18.8857L10.6667 14.1924L12.0747 18.8857H9.25867Z" fill="#FF6137"/>
</svg>
