<svg width="40" height="41" viewBox="0 0 40 41" fill="none" xmlns="http://www.w3.org/2000/svg">
<g clip-path="url(#clip0_1107_26072)">
<path d="M39.3685 12.1595L37.1151 7.44953C36.5335 6.23287 35.4651 5.28953 34.1851 4.86286L23.6901 1.36453C21.3101 0.571198 18.6901 0.571198 16.3101 1.36453L5.8168 4.86286C4.53514 5.28953 3.4668 6.23453 2.88514 7.45287L0.741803 11.9645C-0.0531968 13.2845 -0.203197 14.8679 0.330137 16.3129C0.845137 17.7129 1.9368 18.7962 3.33347 19.3062L3.32514 29.8295C3.3218 33.4262 5.6118 36.6062 9.0218 37.7429L16.2968 40.1679C17.4868 40.5645 18.7368 40.7629 19.9868 40.7629C21.2368 40.7629 22.4868 40.5645 23.6768 40.1679L30.9585 37.7395C34.3635 36.6045 36.6535 33.4312 36.6568 29.8412L36.6651 19.3079C38.0751 18.8129 39.1785 17.7312 39.6968 16.3245C40.2251 14.8945 40.0785 13.3262 39.3685 12.1595ZM17.3651 4.52786C19.0651 3.9612 20.9368 3.9612 22.6351 4.52786L29.7151 6.88787L20.0118 10.1379L10.2885 6.88787L17.3651 4.52786ZM3.67347 13.5429L5.88514 8.9062C5.96514 8.94786 17.6468 12.8612 17.6468 12.8612L14.9451 18.2912C14.5468 18.9545 13.7201 19.2612 12.9901 19.0145L4.5218 16.1929C4.0268 16.0279 3.63847 15.6512 3.4568 15.1612C3.27514 14.6712 3.3268 14.1345 3.6718 13.5445L3.67347 13.5429ZM10.0751 34.5812C8.02847 33.8995 6.65514 31.9912 6.6568 29.8345L6.66514 20.4212L11.9351 22.1779C14.1751 22.9245 16.5885 22.0329 17.8668 19.8929L18.3301 18.9645L18.3218 37.2662C17.9935 37.1995 17.6701 37.1145 17.3535 37.0079L10.0768 34.5829L10.0751 34.5812ZM29.9035 34.5795L22.6201 37.0079C22.3035 37.1129 21.9801 37.1995 21.6518 37.2662L21.6601 18.9412L22.1918 20.0079C23.1185 21.5545 24.7451 22.4395 26.4601 22.4395C26.9918 22.4395 27.5318 22.3545 28.0601 22.1779L33.3285 20.4229L33.3201 29.8412C33.3201 31.9945 31.9435 33.8995 29.9001 34.5812L29.9035 34.5795ZM36.5701 15.1729C36.3951 15.6479 36.0185 16.0129 35.5385 16.1729L27.0085 19.0162C26.2785 19.2612 25.4518 18.9579 25.1151 18.4079L22.3568 12.8695C22.3568 12.8695 34.0335 8.9512 34.1135 8.90787L36.4351 13.7429C36.6968 14.1779 36.7451 14.6995 36.5701 15.1745V15.1729Z" fill="#FF6137"/>
</g>
<defs>
<clipPath id="clip0_1107_26072">
<rect width="40" height="40" fill="white" transform="translate(0 0.765625)"/>
</clipPath>
</defs>
</svg>
