<svg width="32" height="33" viewBox="0 0 32 33" fill="none" xmlns="http://www.w3.org/2000/svg">
<g clip-path="url(#clip0_1_2779)">
<path d="M30.6667 29.5521H6.66667C5.6058 29.5521 4.58839 29.1307 3.83824 28.3805C3.08809 27.6304 2.66667 26.6129 2.66667 25.5521V1.55208C2.66667 1.19846 2.52619 0.859323 2.27614 0.609274C2.02609 0.359226 1.68696 0.21875 1.33333 0.21875C0.979711 0.21875 0.640573 0.359226 0.390524 0.609274C0.140476 0.859323 0 1.19846 0 1.55208L0 25.5521C0.00211714 27.3195 0.705176 29.014 1.95496 30.2638C3.20474 31.5136 4.89921 32.2166 6.66667 32.2188H30.6667C31.0203 32.2188 31.3594 32.0783 31.6095 31.8282C31.8595 31.5782 32 31.239 32 30.8854C32 30.5318 31.8595 30.1927 31.6095 29.9426C31.3594 29.6926 31.0203 29.5521 30.6667 29.5521Z" fill="#FF6137"/>
<path d="M7.99935 26.8857C8.35297 26.8857 8.69211 26.7453 8.94216 26.4952C9.19221 26.2452 9.33268 25.906 9.33268 25.5524V16.2191C9.33268 15.8655 9.19221 15.5263 8.94216 15.2763C8.69211 15.0262 8.35297 14.8857 7.99935 14.8857C7.64573 14.8857 7.30659 15.0262 7.05654 15.2763C6.80649 15.5263 6.66602 15.8655 6.66602 16.2191V25.5524C6.66602 25.906 6.80649 26.2452 7.05654 26.4952C7.30659 26.7453 7.64573 26.8857 7.99935 26.8857Z" fill="#FF6137"/>
<path d="M13.334 13.5521V25.5521C13.334 25.9057 13.4745 26.2448 13.7245 26.4949C13.9746 26.7449 14.3137 26.8854 14.6673 26.8854C15.0209 26.8854 15.3601 26.7449 15.6101 26.4949C15.8602 26.2448 16.0007 25.9057 16.0007 25.5521V13.5521C16.0007 13.1985 15.8602 12.8593 15.6101 12.6093C15.3601 12.3592 15.0209 12.2188 14.6673 12.2188C14.3137 12.2188 13.9746 12.3592 13.7245 12.6093C13.4745 12.8593 13.334 13.1985 13.334 13.5521Z" fill="#FF6137"/>
<path d="M20 17.5521V25.5521C20 25.9057 20.1405 26.2448 20.3905 26.4949C20.6406 26.7449 20.9797 26.8854 21.3333 26.8854C21.687 26.8854 22.0261 26.7449 22.2761 26.4949C22.5262 26.2448 22.6667 25.9057 22.6667 25.5521V17.5521C22.6667 17.1985 22.5262 16.8593 22.2761 16.6093C22.0261 16.3592 21.687 16.2188 21.3333 16.2188C20.9797 16.2188 20.6406 16.3592 20.3905 16.6093C20.1405 16.8593 20 17.1985 20 17.5521Z" fill="#FF6137"/>
<path d="M26.666 12.2191V25.5524C26.666 25.906 26.8065 26.2452 27.0565 26.4952C27.3066 26.7453 27.6457 26.8857 27.9993 26.8857C28.353 26.8857 28.6921 26.7453 28.9422 26.4952C29.1922 26.2452 29.3327 25.906 29.3327 25.5524V12.2191C29.3327 11.8655 29.1922 11.5263 28.9422 11.2763C28.6921 11.0262 28.353 10.8857 27.9993 10.8857C27.6457 10.8857 27.3066 11.0262 27.0565 11.2763C26.8065 11.5263 26.666 11.8655 26.666 12.2191Z" fill="#FF6137"/>
<path d="M7.99907 12.219C8.35266 12.2189 8.69174 12.0784 8.94173 11.8283L13.7231 7.04697C13.9772 6.80487 14.3147 6.66982 14.6657 6.66982C15.0167 6.66982 15.3543 6.80487 15.6084 7.04697L18.5044 9.94297C19.2545 10.6929 20.2717 11.1141 21.3324 11.1141C22.3931 11.1141 23.4103 10.6929 24.1604 9.94297L31.6084 2.49497C31.8513 2.2435 31.9857 1.90669 31.9826 1.5571C31.9796 1.2075 31.8394 0.873087 31.5922 0.625876C31.3449 0.378665 31.0105 0.23844 30.6609 0.235402C30.3113 0.232364 29.9745 0.366757 29.7231 0.609634L22.2751 8.0563C22.025 8.30626 21.686 8.44668 21.3324 8.44668C20.9788 8.44668 20.6398 8.30626 20.3897 8.0563L17.4937 5.16163C16.7436 4.41175 15.7264 3.99049 14.6657 3.99049C13.6051 3.99049 12.5878 4.41175 11.8377 5.16163L7.0564 9.94297C6.86999 10.1294 6.74304 10.367 6.69162 10.6256C6.6402 10.8842 6.6666 11.1522 6.76749 11.3958C6.86839 11.6394 7.03924 11.8477 7.25845 11.9942C7.47767 12.1407 7.7354 12.2189 7.99907 12.219Z" fill="#FF6137"/>
</g>
<defs>
<clipPath id="clip0_1_2779">
<rect width="32" height="32" fill="white" transform="translate(0 0.21875)"/>
</clipPath>
</defs>
</svg>
