<svg width="56" height="56" viewBox="0 0 56 56" fill="none" xmlns="http://www.w3.org/2000/svg">
<rect width="56" height="56" rx="8" fill="#93A3B0" fill-opacity="0.16"/>
<g clip-path="url(#clip0_933_11037)">
<path d="M30.1211 28L39.5608 18.5614C40.1467 17.9754 40.1467 17.0254 39.5608 16.4395C38.9748 15.8535 38.0248 15.8535 37.4389 16.4395L28.0002 25.8791L18.5616 16.4395C17.9757 15.8535 17.0256 15.8535 16.4397 16.4395C15.8538 17.0254 15.8538 17.9755 16.4397 18.5614L25.8793 28L16.4397 37.4386C15.8538 38.0246 15.8538 38.9746 16.4397 39.5605C17.0257 40.1464 17.9757 40.1465 18.5616 39.5605L28.0002 30.1209L37.4388 39.5605C38.0248 40.1465 38.9748 40.1465 39.5607 39.5605C40.1467 38.9745 40.1467 38.0245 39.5607 37.4386L30.1211 28Z" fill="#1E1E1E"/>
</g>
<defs>
<clipPath id="clip0_933_11037">
<rect width="24" height="24" fill="white" transform="translate(16 16)"/>
</clipPath>
</defs>
</svg>
