<svg width="32" height="33" viewBox="0 0 32 33" fill="none" xmlns="http://www.w3.org/2000/svg">
<g clip-path="url(#clip0_1_2798)">
<path d="M28.3996 18.7251L27.7996 18.3784C27.9329 17.6584 27.9996 16.9251 27.9996 16.2051C27.9996 15.4851 27.9329 14.7651 27.7996 14.0317L28.3996 13.6851C30.3062 12.5917 30.9729 10.1384 29.8796 8.21841C29.3462 7.29841 28.4796 6.63175 27.4529 6.35175C26.4262 6.07174 25.3462 6.21841 24.4129 6.75175L23.8129 7.09841C22.6929 6.13841 21.3996 5.39175 19.9996 4.89841V4.20508C19.9996 2.00508 18.1996 0.205078 15.9996 0.205078C13.7996 0.205078 11.9996 2.00508 11.9996 4.20508V4.89841C10.5996 5.39175 9.30624 6.13841 8.18624 7.09841L7.58624 6.75175C6.66624 6.21841 5.58624 6.08508 4.54624 6.35175C3.51957 6.63175 2.6529 7.29841 2.11957 8.21841C1.02624 10.1251 1.67957 12.5784 3.58624 13.6851L4.18624 14.0317C4.0529 14.7517 3.98624 15.4851 3.98624 16.2051C3.98624 16.9251 4.0529 17.6451 4.18624 18.3784L3.58624 18.7251C1.67957 19.8184 1.0129 22.2717 2.10624 24.1917C2.63957 25.1117 3.50624 25.7784 4.5329 26.0584C5.55957 26.3384 6.63957 26.1917 7.5729 25.6584L8.1729 25.3117C9.2929 26.2717 10.5862 27.0184 11.9862 27.5117V28.2051C11.9862 30.4051 13.7862 32.2051 15.9862 32.2051C18.1862 32.2051 19.9862 30.4051 19.9862 28.2051V27.5117C21.3862 27.0184 22.6796 26.2717 23.7996 25.3117L24.3996 25.6584C25.3196 26.1917 26.3996 26.3384 27.4396 26.0584C28.4662 25.7784 29.3329 25.1117 29.8662 24.1917C30.9596 22.2851 30.3062 19.8317 28.3996 18.7251ZM24.9862 13.7384C25.2129 14.5651 25.3329 15.4051 25.3329 16.2184C25.3329 17.0317 25.2129 17.8584 24.9862 18.6984C24.8262 19.2851 25.0796 19.8984 25.6129 20.2051L27.0662 21.0451C27.7062 21.4184 27.9196 22.2317 27.5596 22.8717C27.3862 23.1784 27.0929 23.4051 26.7462 23.4984C26.3996 23.5917 26.0396 23.5517 25.7329 23.3651L24.2796 22.5251C23.7462 22.2184 23.0929 22.3117 22.6662 22.7517C21.4796 23.9651 19.9862 24.8317 18.3329 25.2584C17.7462 25.4051 17.3329 25.9384 17.3329 26.5517V28.2317C17.3329 28.9651 16.7329 29.5651 15.9996 29.5651C15.2662 29.5651 14.6662 28.9651 14.6662 28.2317V26.5517C14.6662 25.9384 14.2529 25.4184 13.6662 25.2584C12.0129 24.8317 10.5196 23.9651 9.3329 22.7517C9.07957 22.4851 8.7329 22.3517 8.3729 22.3517C8.14624 22.3517 7.91957 22.4051 7.70624 22.5251L6.2529 23.3651C5.94624 23.5384 5.58624 23.5917 5.23957 23.4984C4.8929 23.4051 4.6129 23.1784 4.42624 22.8717C4.06624 22.2317 4.27957 21.4184 4.91957 21.0451L6.3729 20.2051C6.90624 19.8984 7.15957 19.2851 6.99957 18.6984C6.7729 17.8717 6.6529 17.0317 6.6529 16.2184C6.6529 15.4051 6.7729 14.5784 6.99957 13.7384C7.15957 13.1517 6.90624 12.5384 6.3729 12.2317L4.91957 11.3917C4.27957 11.0184 4.06624 10.2051 4.42624 9.56508C4.59957 9.25841 4.8929 9.03174 5.23957 8.93841C5.58624 8.84508 5.94624 8.89841 6.2529 9.07174L7.70624 9.91175C8.23957 10.2184 8.8929 10.1251 9.31957 9.68508C10.5062 8.47175 11.9996 7.60508 13.6529 7.17841C14.2396 7.03174 14.6529 6.49841 14.6529 5.88508V4.20508C14.6529 3.47174 15.2529 2.87174 15.9862 2.87174C16.7196 2.87174 17.3196 3.47174 17.3196 4.20508V5.88508C17.3196 6.49841 17.7329 7.01841 18.3196 7.17841C19.9729 7.60508 21.4662 8.47175 22.6529 9.68508C23.0796 10.1251 23.7462 10.2184 24.2662 9.91175L25.7196 9.07174C26.0262 8.89841 26.3862 8.84508 26.7329 8.93841C27.0796 9.03174 27.3596 9.25841 27.5462 9.56508C27.9062 10.2051 27.6929 11.0184 27.0529 11.3917L25.5996 12.2317C25.0662 12.5384 24.8129 13.1517 24.9729 13.7384H24.9862ZM18.3729 11.1517L16.2396 21.8184C16.1196 22.4584 15.5596 22.8851 14.9329 22.8851C14.8529 22.8851 14.7596 22.8851 14.6662 22.8584C13.9462 22.7117 13.4796 22.0184 13.6262 21.2851L15.7596 10.6184C15.9062 9.89841 16.5996 9.43175 17.3329 9.57841C18.0529 9.72508 18.5196 10.4184 18.3729 11.1517ZM12.2796 14.6851L10.6662 16.2984L12.2796 17.8851C12.7996 18.4051 12.7996 19.2451 12.2796 19.7651C12.0129 20.0317 11.6796 20.1517 11.3329 20.1517C10.9862 20.1517 10.6529 20.0184 10.3862 19.7651L8.7729 18.1517C7.7329 17.1117 7.7329 15.4317 8.7729 14.4051L10.3862 12.7917C10.9062 12.2717 11.7462 12.2717 12.2662 12.7917C12.7862 13.3117 12.7862 14.1517 12.2662 14.6717L12.2796 14.6851ZM23.2262 14.4184C24.2662 15.4584 24.2662 17.1384 23.2262 18.1651L21.6129 19.7784C21.3462 20.0451 21.0129 20.1651 20.6662 20.1651C20.3196 20.1651 19.9862 20.0317 19.7196 19.7784C19.1996 19.2584 19.1996 18.4184 19.7196 17.8984L21.3329 16.2851L19.7196 14.6851C19.1996 14.1651 19.1996 13.3251 19.7196 12.8051C20.2396 12.2851 21.0796 12.2851 21.5996 12.8051L23.2129 14.4184H23.2262Z" fill="#FF6137"/>
</g>
<defs>
<clipPath id="clip0_1_2798">
<rect width="32" height="32" fill="white" transform="translate(0 0.21875)"/>
</clipPath>
</defs>
</svg>
