<svg width="40" height="40" viewBox="0 0 40 40" fill="none" xmlns="http://www.w3.org/2000/svg">
<g clip-path="url(#clip0_60_638)">
<path d="M37.2919 6.308C34.7987 4.88885 32.0563 3.96151 29.2135 3.57633C28.7831 2.74813 28.1842 2.01916 27.4552 1.43633C26.6701 0.812046 25.7532 0.374616 24.7741 0.15718C23.7949 -0.0602568 22.779 -0.0519977 21.8035 0.181332C19.7185 0.707454 17.6963 1.45678 15.7719 2.41633C14.4057 1.7668 12.8798 1.5298 11.381 1.73435C9.88223 1.93891 8.47564 2.57614 7.33352 3.568C6.72186 4.093 6.10686 4.64133 5.50019 5.20633C4.86352 5.80467 4.21519 6.48466 3.56852 7.223C2.75826 8.14936 2.18 9.25519 1.8815 10.4492C1.58301 11.6431 1.57285 12.891 1.85186 14.0897C1.98066 14.6555 2.17125 15.2055 2.42019 15.7297C1.45413 17.6677 0.698696 19.7038 0.166855 21.803C-0.0674745 22.7785 -0.0762358 23.7945 0.141238 24.7739C0.358711 25.7532 0.79669 26.6701 1.42186 27.4547C2.01075 28.1913 2.74924 28.7946 3.58852 29.2247C3.97471 32.0633 4.90143 34.8016 6.31852 37.2913C6.86833 38.279 7.72061 39.0642 8.74998 39.5313C9.77936 39.9985 10.9315 40.1229 12.0369 39.8863C13.1803 39.6599 14.2205 39.0716 15.0039 38.2084C15.7872 37.3452 16.2721 36.253 16.3869 35.093C16.698 32.9474 17.2619 30.8461 18.0669 28.833C18.0669 28.833 18.9752 28.273 19.3902 27.9347C20.3894 27.0965 21.0987 25.9644 21.4169 24.6997C22.1874 24.4446 22.8881 24.0138 23.4635 23.4413C24.024 22.8709 24.448 22.1808 24.7035 21.423C25.964 21.1032 27.0917 20.3947 27.9269 19.398C28.2602 18.983 28.8269 18.073 28.8269 18.073C30.8356 17.2464 32.9414 16.6791 35.0935 16.3847C36.2535 16.2699 37.3458 15.785 38.2089 15.0017C39.0721 14.2183 39.6604 13.1781 39.8869 12.0347C40.1273 10.928 40.0047 9.77332 39.5372 8.7418C39.0698 7.71029 38.2824 6.85685 37.2919 6.308ZM13.0652 34.7213C13.0251 35.181 12.8363 35.6151 12.5275 35.9579C12.2186 36.3007 11.8065 36.5336 11.3535 36.6213C10.9367 36.7162 10.5002 36.6713 10.1114 36.4936C9.72253 36.3159 9.40294 36.0153 9.20186 35.638C8.19952 33.8825 7.4812 31.9796 7.07352 29.9997H13.5735C13.7552 29.9997 13.9319 29.963 14.1119 29.953C13.6352 31.4247 13.0652 34.7147 13.0652 34.7213ZM17.2819 25.3447C16.2354 26.1979 14.927 26.6646 13.5769 26.6663H6.66686C6.15987 26.6674 5.65931 26.5528 5.20328 26.3313C4.74724 26.1098 4.34775 25.7872 4.03519 25.388C3.72342 24.9974 3.50479 24.5408 3.39592 24.0531C3.28704 23.5653 3.29078 23.0591 3.40686 22.573C3.74052 21.2274 4.18653 19.9123 4.74019 18.6413C5.25471 19.044 5.81807 19.38 6.41686 19.6413L17.5452 24.5147C17.6485 24.563 17.7585 24.5813 17.8635 24.6213C17.7144 24.8952 17.5174 25.1402 17.2819 25.3447ZM21.0902 21.0913C20.8117 21.3737 20.4526 21.5628 20.0622 21.6327C19.6718 21.7025 19.2693 21.6496 18.9102 21.4813L7.75519 16.5963C7.09009 16.3049 6.50374 15.8597 6.04446 15.2972C5.58518 14.7348 5.2661 14.0713 5.11352 13.3613C4.95176 12.6732 4.95597 11.9564 5.12578 11.2702C5.2956 10.584 5.62616 9.94797 6.09019 9.41467C6.66686 8.758 7.23686 8.158 7.79519 7.633C8.35352 7.108 8.93186 6.59133 9.50686 6.09967C10.0375 5.63784 10.6696 5.30761 11.3517 5.1358C12.0339 4.96398 12.747 4.95541 13.4331 5.11078C14.1192 5.26615 14.759 5.58109 15.3006 6.03003C15.8422 6.47898 16.2703 7.04928 16.5502 7.69466L21.4902 18.8447C21.6555 19.2163 21.7057 19.6289 21.6344 20.0293C21.5631 20.4297 21.3736 20.7996 21.0902 21.0913ZM26.6669 13.5763C26.6657 14.9263 26.1996 16.2347 25.3469 17.2813C25.152 17.507 24.9204 17.698 24.6619 17.8463C24.6185 17.7297 24.5869 17.6097 24.5369 17.4947L19.5985 6.34633C19.3489 5.78031 19.0346 5.24509 18.6619 4.75133C19.9265 4.19908 21.2349 3.75309 22.5735 3.418C23.0596 3.30168 23.5659 3.29781 24.0537 3.40669C24.5415 3.51558 24.998 3.73434 25.3885 4.04633C25.7886 4.35958 26.1118 4.76015 26.3333 5.21742C26.5549 5.67469 26.669 6.17655 26.6669 6.68467V13.5763ZM36.6219 11.353C36.5341 11.806 36.3013 12.2181 35.9584 12.5269C35.6156 12.8358 35.1815 13.0245 34.7219 13.0647C34.7219 13.0647 31.4252 13.6347 29.9535 14.1147C29.9652 13.9347 30.0002 13.758 30.0002 13.5763V7.07633C31.9801 7.48401 33.8831 8.20233 35.6385 9.20466C36.0146 9.40623 36.3143 9.72536 36.4918 10.1133C36.6694 10.5012 36.7151 10.9367 36.6219 11.353Z" fill="#1E1E1E"/>
</g>
<defs>
<clipPath id="clip0_60_638">
<rect width="40" height="40" fill="white"/>
</clipPath>
</defs>
</svg>
