<svg width="40" height="40" viewBox="0 0 40 40" fill="none" xmlns="http://www.w3.org/2000/svg">
<g clip-path="url(#clip0_60_650)">
<path d="M40.0006 23.3433C39.9986 22.6443 39.8491 21.9536 39.5619 21.3163C39.2747 20.679 38.8563 20.1095 38.334 19.645V16.6667C38.3291 12.2479 36.5716 8.01147 33.4471 4.88691C30.3225 1.76236 26.0861 0.00485266 21.6673 0L18.334 0C13.9152 0.00485266 9.67877 1.76236 6.55421 4.88691C3.42966 8.01147 1.67215 12.2479 1.6673 16.6667V19.7283C1.14941 20.2171 0.736809 20.8064 0.454807 21.4603C0.172805 22.1142 0.0273438 22.8187 0.0273438 23.5308C0.0273438 24.2429 0.172805 24.9475 0.454807 25.6014C0.736809 26.2552 1.14941 26.8446 1.6673 27.3333V28.3333C1.67083 31.4264 2.90112 34.3919 5.08828 36.579C7.27544 38.7662 10.2409 39.9965 13.334 40H26.6673C29.7604 39.9965 32.7258 38.7662 34.913 36.579C37.1001 34.3919 38.3304 31.4264 38.334 28.3333V27.0433C38.8565 26.5786 39.2751 26.0088 39.5623 25.3713C39.8495 24.7337 39.9989 24.0426 40.0006 23.3433ZM4.6873 25.2633C4.27173 25.1373 3.9144 24.8678 3.67897 24.5029C3.44353 24.138 3.34528 23.7013 3.4017 23.2707C3.45813 22.8402 3.66557 22.4436 3.98707 22.1516C4.30858 21.8597 4.72328 21.6914 5.1573 21.6767H35.0006C35.4427 21.6767 35.8666 21.8523 36.1791 22.1648C36.4917 22.4774 36.6673 22.9013 36.6673 23.3433C36.6673 23.7854 36.4917 24.2093 36.1791 24.5218C35.8666 24.8344 35.4427 25.01 35.0006 25.01H28.334C25.074 25.01 21.7023 26.3233 17.7273 29.145C16.927 29.7009 15.9759 29.9988 15.0015 29.9988C14.0271 29.9988 13.0759 29.7009 12.2756 29.145C11.8956 28.875 11.5306 28.5933 11.164 28.3117C9.3484 26.6859 7.09719 25.6264 4.6873 25.2633ZM5.00063 16.6667C5.0046 13.1317 6.41063 9.74259 8.91026 7.24296C11.4099 4.74334 14.799 3.3373 18.334 3.33333H21.6673C25.2023 3.3373 28.5914 4.74334 31.091 7.24296C33.5906 9.74259 34.9967 13.1317 35.0006 16.6667V18.3433L5.00063 18.36V16.6667ZM26.6673 36.6667H13.334C11.1993 36.661 9.14835 35.8353 7.60515 34.3604C6.06195 32.8854 5.14445 30.8739 5.0423 28.7417C6.55507 29.1608 7.95335 29.9169 9.1323 30.9533C9.53063 31.2617 9.93063 31.5683 10.3473 31.8633C11.7134 32.8125 13.3371 33.3213 15.0006 33.3213C16.6641 33.3213 18.2879 32.8125 19.654 31.8633C22.1198 29.8309 25.149 28.6025 28.334 28.3433H35.0006C34.998 30.5517 34.1188 32.6688 32.5563 34.2294C30.9938 35.7901 28.8757 36.6667 26.6673 36.6667ZM15.0006 8.33333C15.0006 7.89131 15.1762 7.46738 15.4888 7.15482C15.8013 6.84226 16.2253 6.66667 16.6673 6.66667C17.1093 6.66667 17.5332 6.84226 17.8458 7.15482C18.1584 7.46738 18.334 7.89131 18.334 8.33333C18.334 8.77536 18.1584 9.19928 17.8458 9.51184C17.5332 9.8244 17.1093 10 16.6673 10C16.2253 10 15.8013 9.8244 15.4888 9.51184C15.1762 9.19928 15.0006 8.77536 15.0006 8.33333ZM10.0006 13.3333C10.0006 12.8913 10.1762 12.4674 10.4888 12.1548C10.8013 11.8423 11.2253 11.6667 11.6673 11.6667C12.1093 11.6667 12.5332 11.8423 12.8458 12.1548C13.1584 12.4674 13.334 12.8913 13.334 13.3333C13.334 13.7754 13.1584 14.1993 12.8458 14.5118C12.5332 14.8244 12.1093 15 11.6673 15C11.2253 15 10.8013 14.8244 10.4888 14.5118C10.1762 14.1993 10.0006 13.7754 10.0006 13.3333Z" fill="#1E1E1E"/>
</g>
<defs>
<clipPath id="clip0_60_650">
<rect width="40" height="40" fill="white"/>
</clipPath>
</defs>
</svg>
