<svg width="32" height="33" viewBox="0 0 32 33" fill="none" xmlns="http://www.w3.org/2000/svg">
<g clip-path="url(#clip0_1_2791)">
<path d="M11.9533 32.2188H5.33333C3.91885 32.2188 2.56229 31.6568 1.5621 30.6567C0.561903 29.6565 0 28.2999 0 26.8854V20.2188C0 18.8043 0.561903 17.4477 1.5621 16.4475C2.56229 15.4473 3.91885 14.8854 5.33333 14.8854H17.1427C17.8643 14.8858 18.5736 15.0724 19.2019 15.4272C19.8303 15.782 20.3564 16.293 20.7293 16.9108L25.0187 12.1974C25.3735 11.8073 25.8017 11.4909 26.2788 11.2663C26.7559 11.0417 27.2726 10.9134 27.7994 10.8886C28.3262 10.8639 28.8526 10.9432 29.3487 11.122C29.8448 11.3008 30.3008 11.5756 30.6907 11.9308C31.4685 12.6453 31.9346 13.6367 31.9887 14.6916C32.0429 15.7464 31.6806 16.7803 30.98 17.5708L21.9133 27.7534C20.6615 29.1574 19.127 30.281 17.4106 31.0506C15.6941 31.8201 13.8344 32.2182 11.9533 32.2188ZM5.33333 17.5521C4.62609 17.5521 3.94781 17.833 3.44772 18.3331C2.94762 18.8332 2.66667 19.5115 2.66667 20.2188V26.8854C2.66667 27.5927 2.94762 28.2709 3.44772 28.771C3.94781 29.2711 4.62609 29.5521 5.33333 29.5521H11.9533C13.4572 29.5515 14.944 29.2331 16.3163 28.6177C17.6885 28.0024 18.9152 27.104 19.916 25.9814L28.9893 15.7974C29.2249 15.5321 29.3468 15.1848 29.3289 14.8304C29.3109 14.4761 29.1545 14.1429 28.8933 13.9028C28.6278 13.664 28.2795 13.5382 27.9227 13.5521C27.7458 13.5596 27.5721 13.6022 27.4119 13.6775C27.2516 13.7528 27.108 13.8593 26.9893 13.9908L21.088 20.4854C20.8289 21.2024 20.38 21.8357 19.7892 22.3175C19.1984 22.7994 18.4878 23.1118 17.7333 23.2214L10.852 24.2054C10.5019 24.2556 10.1462 24.1647 9.86316 23.9527C9.58011 23.7406 9.39288 23.4248 9.34267 23.0748C9.29245 22.7247 9.38337 22.369 9.59541 22.0859C9.80745 21.8029 10.1232 21.6156 10.4733 21.5654L17.356 20.5828C17.738 20.5293 18.0856 20.3329 18.3284 20.0331C18.5712 19.7334 18.6912 19.3526 18.6641 18.9678C18.637 18.583 18.4649 18.2228 18.1825 17.96C17.9001 17.6973 17.5284 17.5514 17.1427 17.5521H5.33333ZM14.6667 12.3174C14.0623 12.319 13.4757 12.1139 13.004 11.7361C10.7213 9.90408 8 7.15208 8 4.48542C7.96726 3.3899 8.36971 2.32601 9.11931 1.52644C9.86891 0.726861 10.9047 0.256686 12 0.21875C12.9965 0.222631 13.9525 0.613173 14.6667 1.30808C15.3808 0.613173 16.3369 0.222631 17.3333 0.21875C18.4287 0.256686 19.4644 0.726861 20.214 1.52644C20.9636 2.32601 21.3661 3.3899 21.3333 4.48542C21.3333 7.15208 18.612 9.90408 16.328 11.7374C15.8565 12.1145 15.2704 12.3191 14.6667 12.3174ZM12 2.88542C11.6125 2.9243 11.2557 3.11371 11.0063 3.41292C10.757 3.71212 10.635 4.09723 10.6667 4.48542C10.6667 5.68542 12.2013 7.67208 14.6747 9.65742C17.132 7.67208 18.6667 5.68542 18.6667 4.48542C18.6983 4.09723 18.5763 3.71212 18.327 3.41292C18.0777 3.11371 17.7209 2.9243 17.3333 2.88542C16.9458 2.9243 16.589 3.11371 16.3397 3.41292C16.0903 3.71212 15.9684 4.09723 16 4.48542C16 4.83904 15.8595 5.17818 15.6095 5.42823C15.3594 5.67827 15.0203 5.81875 14.6667 5.81875C14.313 5.81875 13.9739 5.67827 13.7239 5.42823C13.4738 5.17818 13.3333 4.83904 13.3333 4.48542C13.365 4.09723 13.243 3.71212 12.9937 3.41292C12.7443 3.11371 12.3875 2.9243 12 2.88542Z" fill="#FF6137"/>
</g>
<defs>
<clipPath id="clip0_1_2791">
<rect width="32" height="32" fill="white" transform="translate(0 0.21875)"/>
</clipPath>
</defs>
</svg>
