<svg width="40" height="40" viewBox="0 0 40 40" fill="none" xmlns="http://www.w3.org/2000/svg">
<g clip-path="url(#clip0_60_614)">
<path d="M39.7265 7.84163C38.4549 2.65329 31.3099 -0.0900417 26.9332 2.70163C25.0402 0.96826 22.5666 0.00683594 19.9999 0.00683594C17.4331 0.00683594 14.9595 0.96826 13.0665 2.70163C2.3482 -2.76338 -5.97847 12.8833 5.54319 17.855C5.85487 17.9449 6.13068 18.1299 6.33208 18.3842C6.53348 18.6385 6.65041 18.9493 6.66653 19.2733V32.5C6.66653 34.4891 7.4567 36.3967 8.86323 37.8033C10.2698 39.2098 12.1774 40 14.1665 40H25.8332C26.8181 40 27.7934 39.806 28.7033 39.4291C29.6133 39.0521 30.4401 38.4997 31.1365 37.8033C31.8329 37.1068 32.3854 36.28 32.7623 35.3701C33.1392 34.4601 33.3332 33.4849 33.3332 32.5V19.2733C33.3493 18.9493 33.4662 18.6385 33.6676 18.3842C33.869 18.1299 34.1449 17.9449 34.4565 17.855C36.4299 17.1499 38.0666 15.7295 39.0426 13.8751C40.0185 12.0207 40.2626 9.86744 39.7265 7.84163ZM29.9999 32.5C29.9999 33.605 29.5609 34.6648 28.7795 35.4462C27.9981 36.2276 26.9383 36.6666 25.8332 36.6666H14.1665C13.5498 36.6535 12.943 36.5083 12.3872 36.2407C11.8313 35.9732 11.3394 35.5895 10.9444 35.1156C10.5495 34.6417 10.2608 34.0886 10.0979 33.4936C9.93495 32.8986 9.90152 32.2756 9.99986 31.6666H29.9999V32.5ZM33.3332 14.7133C32.3712 15.0305 31.5326 15.6407 30.9348 16.4584C30.3371 17.2762 30.0101 18.2604 29.9999 19.2733V28.3333H9.99986V19.2733C9.98958 18.2604 9.66266 17.2762 9.0649 16.4584C8.46714 15.6407 7.62851 15.0305 6.66653 14.7133C5.47718 14.2853 4.4918 13.4265 3.90538 12.3068C3.31897 11.187 3.17425 9.88797 3.49986 8.66663C4.47653 5.16663 9.71486 3.70162 12.1382 6.16663C12.312 6.34153 12.5223 6.47593 12.7541 6.56025C12.9858 6.64457 13.2333 6.67674 13.4789 6.65445C13.7245 6.63217 13.9621 6.55599 14.1749 6.43133C14.3877 6.30668 14.5703 6.13663 14.7099 5.93329C16.7882 2.46662 23.2015 2.46662 25.2799 5.93329C25.4196 6.13638 25.6023 6.3062 25.8151 6.43068C26.0279 6.55516 26.2654 6.63124 26.5109 6.65351C26.7564 6.67579 27.0038 6.64371 27.2355 6.55956C27.4672 6.47541 27.6775 6.34125 27.8515 6.16663C28.5085 5.60714 29.2926 5.21721 30.1352 5.03096C30.9778 4.84472 31.8533 4.86784 32.6849 5.09829C33.7442 5.33314 34.699 5.90481 35.4063 6.72771C36.1136 7.55061 36.5353 8.58047 36.6083 9.66309C36.6813 10.7457 36.4017 11.8229 35.8113 12.7333C35.2209 13.6437 34.3514 14.3384 33.3332 14.7133Z" fill="#1E1E1E"/>
</g>
<defs>
<clipPath id="clip0_60_614">
<rect width="40" height="40" fill="white"/>
</clipPath>
</defs>
</svg>
