<svg width="32" height="33" viewBox="0 0 32 33" fill="none" xmlns="http://www.w3.org/2000/svg">
<g clip-path="url(#clip0_1_2820)">
<path d="M23.6833 32.2188C12.842 32.5855 -6.68867 13.2121 2.37933 2.70813L3.91266 1.3748C4.68882 0.624485 5.72922 0.209968 6.8087 0.220947C7.88818 0.231927 8.91992 0.66752 9.68066 1.43346C9.72178 1.47534 9.76008 1.51988 9.79533 1.5668L12.1953 4.68546C12.9247 5.45725 13.3299 6.47957 13.3275 7.54146C13.325 8.60335 12.915 9.62377 12.182 10.3921L10.638 12.3335C11.4928 14.4096 12.7492 16.2964 14.3351 17.8857C15.921 19.475 17.8051 20.7355 19.8793 21.5948L21.8313 20.0415C22.6097 19.3266 23.6276 18.9293 24.6844 18.9278C25.7413 18.9263 26.7603 19.3208 27.5407 20.0335L30.6607 22.4335C30.7073 22.4686 30.7518 22.5065 30.794 22.5468C31.5634 23.3233 31.9951 24.3723 31.9951 25.4655C31.9951 26.5586 31.5634 27.6076 30.794 28.3841L29.5793 29.7841C28.8089 30.563 27.8902 31.1797 26.8776 31.5979C25.865 32.016 24.7789 32.2271 23.6833 32.2188ZM6.76199 2.88546C6.57038 2.88532 6.38062 2.92292 6.20355 2.99613C6.02647 3.06934 5.86556 3.17672 5.72999 3.31213L4.19533 4.64546C-3.33267 13.6961 19.7033 35.4495 27.6273 27.9628L28.8433 26.5615C28.9879 26.4328 29.1055 26.2768 29.1895 26.1025C29.2735 25.9282 29.3222 25.739 29.3327 25.5457C29.3433 25.3525 29.3155 25.1591 29.2509 24.9767C29.1864 24.7943 29.0864 24.6264 28.9567 24.4828L25.854 22.1001C25.8065 22.0652 25.7619 22.0264 25.7207 21.9841C25.4425 21.719 25.0729 21.5712 24.6887 21.5712C24.3044 21.5712 23.9349 21.719 23.6567 21.9841C23.6213 22.02 23.5839 22.0538 23.5447 22.0855L20.934 24.1655C20.7528 24.3097 20.5371 24.4043 20.3082 24.4398C20.0793 24.4754 19.8451 24.4506 19.6287 24.3681C16.9408 23.3668 14.4996 21.7995 12.4704 19.7724C10.4412 17.7452 8.87137 15.3056 7.86733 12.6188C7.77844 12.3993 7.74962 12.1601 7.78384 11.9257C7.81805 11.6914 7.91406 11.4704 8.06199 11.2855L10.134 8.67747C10.1648 8.63796 10.1982 8.60054 10.234 8.56547C10.5064 8.29078 10.6592 7.91962 10.6592 7.5328C10.6592 7.14598 10.5064 6.77482 10.234 6.50013C10.1924 6.45867 10.1541 6.41409 10.1193 6.3668L7.74199 3.26813C7.47337 3.02542 7.12402 2.89139 6.76199 2.89213V2.88546ZM30.086 16.9868C36.7393 7.19347 25.0193 -4.51454 15.2367 2.13746C15.0891 2.23596 14.9627 2.3629 14.8649 2.51086C14.767 2.65882 14.6997 2.82481 14.6668 2.99912C14.6339 3.17342 14.6361 3.35254 14.6733 3.52598C14.7105 3.69942 14.782 3.8637 14.8835 4.00918C14.9849 4.15467 15.1144 4.27844 15.2644 4.37325C15.4143 4.46806 15.5816 4.53201 15.7566 4.56134C15.9315 4.59067 16.1105 4.5848 16.2832 4.54406C16.4558 4.50333 16.6186 4.42856 16.762 4.32413C24.0607 -0.687869 32.9087 8.16947 27.8993 15.4628C27.7926 15.6061 27.7158 15.7693 27.6734 15.9428C27.6311 16.1163 27.624 16.2966 27.6526 16.4729C27.6812 16.6492 27.745 16.818 27.8401 16.9692C27.9353 17.1204 28.0598 17.2509 28.2063 17.3531C28.3529 17.4552 28.5184 17.5268 28.6932 17.5637C28.868 17.6006 29.0484 17.6021 29.2237 17.5679C29.399 17.5337 29.5657 17.4647 29.7138 17.3649C29.862 17.265 29.9885 17.1365 30.086 16.9868ZM24.942 14.5001C25.192 14.2501 25.3324 13.911 25.3324 13.5575C25.3324 13.2039 25.192 12.8648 24.942 12.6148L22.6673 10.3388V6.88547C22.6673 6.53184 22.5269 6.1927 22.2768 5.94266C22.0268 5.69261 21.6876 5.55213 21.334 5.55213C20.9804 5.55213 20.6412 5.69261 20.3912 5.94266C20.1411 6.1927 20.0007 6.53184 20.0007 6.88547V10.8855C20.0007 11.2391 20.1413 11.5781 20.3913 11.8281L23.058 14.4948C23.308 14.7448 23.6471 14.8852 24.0007 14.8852C24.3542 14.8852 24.6933 14.7448 24.9433 14.4948L24.942 14.5001Z" fill="#FF6137"/>
</g>
<defs>
<clipPath id="clip0_1_2820">
<rect width="32" height="32" fill="white" transform="translate(0 0.21875)"/>
</clipPath>
</defs>
</svg>
