<svg width="40" height="40" viewBox="0 0 40 40" fill="none" xmlns="http://www.w3.org/2000/svg">
<g clip-path="url(#clip0_60_626)">
<path d="M19.9975 26.6672C20.7736 26.6687 21.5393 26.4895 22.2341 26.1438L25.5675 24.4772C27.2665 23.6336 28.3382 21.8974 28.3309 20.0005V15.0555C28.3367 13.1603 27.2652 11.4264 25.5675 10.5839L22.2341 8.91725C20.8258 8.21725 19.1709 8.21725 17.7625 8.91725L14.4292 10.5839C12.7309 11.4259 11.6586 13.16 11.6641 15.0555V20.0005C11.6581 21.8962 12.7295 23.6308 14.4275 24.4739L17.7609 26.1405C18.4554 26.4873 19.2212 26.6676 19.9975 26.6672ZM14.9975 20.0005V15.0555C15.0002 14.8855 15.0288 14.7169 15.0825 14.5555L18.7159 16.3722C19.5227 16.7754 20.4724 16.7754 21.2792 16.3722L24.9126 14.5555C24.9663 14.7169 24.9949 14.8855 24.9976 15.0555V20.0005C25.0002 20.6329 24.6427 21.2116 24.0759 21.4922L20.7426 23.1588C20.2726 23.3914 19.7209 23.3914 19.2509 23.1588L15.9176 21.4922C15.3514 21.2112 14.9945 20.6326 14.9975 20.0005ZM31.6642 36.6672H27.1491L32.9608 31.2972C40.1206 24.1376 40.1207 12.5297 32.9612 5.3699C25.8017 -1.78986 14.1938 -1.78994 7.03399 5.36951C-0.125771 12.529 -0.125928 24.1371 7.0336 31.2968C7.04931 31.3125 12.8459 36.6672 12.8459 36.6672H8.33087C7.4104 36.6672 6.66423 37.4133 6.66423 38.3338C6.66423 39.2543 7.4104 40.0005 8.33087 40.0005H31.6642C32.5847 40.0005 33.3309 39.2543 33.3309 38.3338C33.3309 37.4134 32.5846 36.6672 31.6642 36.6672ZM9.39087 7.72717C15.2359 1.85592 24.7338 1.83467 30.605 7.67967C36.4763 13.5247 36.4975 23.0226 30.6525 28.8938L24.0109 35.0288C21.744 37.1654 18.201 37.153 15.9492 35.0005L9.39087 28.9404C3.54204 23.0788 3.54212 13.5889 9.39087 7.72717Z" fill="#1E1E1E"/>
</g>
<defs>
<clipPath id="clip0_60_626">
<rect width="40" height="40" fill="white"/>
</clipPath>
</defs>
</svg>
