<svg width="40" height="41" viewBox="0 0 40 41" fill="none" xmlns="http://www.w3.org/2000/svg">
<g clip-path="url(#clip0_1107_26068)">
<path d="M31.6667 0.765625H8.33333C3.73333 0.765625 0 4.49896 0 9.09896V32.4323C0 37.0323 3.73333 40.7656 8.33333 40.7656H31.6667C36.2667 40.7656 40 37.0323 40 32.4323V9.09896C40 4.49896 36.2667 0.765625 31.6667 0.765625ZM36.6667 32.4323C36.6667 35.1823 34.4167 37.4323 31.6667 37.4323H8.33333C5.58333 37.4323 3.33333 35.1823 3.33333 32.4323V9.09896C3.33333 6.34896 5.58333 4.09896 8.33333 4.09896H31.6667C34.4167 4.09896 36.6667 6.34896 36.6667 9.09896V32.4323ZM8.33333 13.2656C8.33333 10.9656 10.2 9.09896 12.5 9.09896C14.8 9.09896 16.6667 10.9656 16.6667 13.2656C16.6667 15.5656 14.8 17.4323 12.5 17.4323C10.2 17.4323 8.33333 15.5656 8.33333 13.2656ZM23.3333 15.7656V10.7656C23.3333 9.84896 24.0833 9.09896 25 9.09896H30C30.9167 9.09896 31.6667 9.84896 31.6667 10.7656V15.7656C31.6667 16.6823 30.9167 17.4323 30 17.4323H25C24.0833 17.4323 23.3333 16.6823 23.3333 15.7656ZM16.95 26.3323C17.6 26.9823 17.6 28.0323 16.95 28.6823L13.6167 32.0156C12.9667 32.6656 11.9167 32.6656 11.2667 32.0156L7.93333 28.6823C7.28333 28.0323 7.28333 26.9823 7.93333 26.3323L11.2667 22.999C11.9167 22.349 12.9667 22.349 13.6167 22.999L16.95 26.3323ZM32.4167 29.9823C33.0833 31.049 32.3167 32.4323 31.0667 32.4323H23.9333C22.6833 32.4323 21.9167 31.049 22.5833 29.9823L26.15 24.2823C26.7833 23.2823 28.2333 23.2823 28.8667 24.2823L32.4333 29.9823H32.4167Z" fill="#FF6137"/>
</g>
<defs>
<clipPath id="clip0_1107_26068">
<rect width="40" height="40" fill="white" transform="translate(0 0.765625)"/>
</clipPath>
</defs>
</svg>
