<svg width="21" height="21" viewBox="0 0 21 21" fill="none" xmlns="http://www.w3.org/2000/svg">
<path d="M18.3077 16.2763C18.3077 16.5763 18.241 16.8846 18.0993 17.1846C17.9577 17.4846 17.7744 17.768 17.5327 18.0346C17.1244 18.4846 16.6743 18.8096 16.166 19.018C15.666 19.2263 15.1244 19.3346 14.541 19.3346C13.691 19.3346 12.7827 19.1346 11.8243 18.7263C10.866 18.318 9.90768 17.768 8.95768 17.0763C7.99935 16.3763 7.09102 15.6013 6.22435 14.743C5.36602 13.8763 4.59102 12.968 3.89935 12.018C3.21602 11.068 2.66602 10.118 2.26602 9.1763C1.86602 8.2263 1.66602 7.31797 1.66602 6.4513C1.66602 5.88464 1.76602 5.34297 1.96602 4.84297C2.16602 4.33464 2.48268 3.86797 2.92435 3.4513C3.45768 2.9263 4.04102 2.66797 4.65768 2.66797C4.89102 2.66797 5.12435 2.71797 5.33268 2.81797C5.54935 2.91797 5.74102 3.06797 5.89102 3.28464L7.82435 6.00964C7.97435 6.21797 8.08268 6.40964 8.15768 6.59297C8.23268 6.76797 8.27435 6.94297 8.27435 7.1013C8.27435 7.3013 8.21602 7.5013 8.09935 7.69297C7.99102 7.88464 7.83268 8.08464 7.63268 8.28464L6.99935 8.94297C6.90768 9.03464 6.86602 9.14297 6.86602 9.2763C6.86602 9.34297 6.87435 9.4013 6.89102 9.46797C6.91602 9.53464 6.94102 9.58464 6.95768 9.63464C7.10768 9.90964 7.36602 10.268 7.73268 10.7013C8.10768 11.1346 8.50768 11.5763 8.94102 12.018C9.39102 12.4596 9.82435 12.868 10.266 13.243C10.6993 13.6096 11.0577 13.8596 11.341 14.0096C11.3827 14.0263 11.4327 14.0513 11.491 14.0763C11.5577 14.1013 11.6243 14.1096 11.6993 14.1096C11.841 14.1096 11.9493 14.0596 12.041 13.968L12.6743 13.343C12.8827 13.1346 13.0827 12.9763 13.2743 12.8763C13.466 12.7596 13.6577 12.7013 13.866 12.7013C14.0243 12.7013 14.191 12.7346 14.3743 12.8096C14.5577 12.8846 14.7494 12.993 14.9577 13.1346L17.716 15.093C17.9327 15.243 18.0827 15.418 18.1743 15.6263C18.2577 15.8346 18.3077 16.043 18.3077 16.2763Z" stroke="#FF6137" stroke-width="1.7" stroke-miterlimit="10"/>
<path d="M15.4167 8.5026C15.4167 8.0026 15.025 7.23594 14.4417 6.61094C13.9083 6.03594 13.2 5.58594 12.5 5.58594" stroke="#FF6137" stroke-width="1.7" stroke-linecap="round" stroke-linejoin="round"/>
<path d="M18.3333 8.5013C18.3333 5.2763 15.725 2.66797 12.5 2.66797" stroke="#FF6137" stroke-width="1.7" stroke-linecap="round" stroke-linejoin="round"/>
</svg>
