<svg width="40" height="40" viewBox="0 0 40 40" fill="none" xmlns="http://www.w3.org/2000/svg">
<g clip-path="url(#clip0_60_662)">
<path d="M2.2204 12.0628C0.805401 9.2028 -2.00127 2.11446 1.99873 0.249463C2.59343 0.00190097 3.24831 -0.0632541 3.88013 0.0622787C4.51195 0.187811 5.09218 0.498363 5.54707 0.954463L13.8137 9.7878C13.9699 9.94122 14.0943 10.1239 14.1799 10.3254C14.2654 10.5269 14.3105 10.7433 14.3124 10.9622C14.3143 11.1811 14.2731 11.3983 14.1912 11.6013C14.1092 11.8043 13.988 11.9891 13.8346 12.1453C13.6811 12.3015 13.4985 12.4259 13.2969 12.5114C13.0954 12.597 12.879 12.642 12.6601 12.644C12.4412 12.6459 12.2241 12.6047 12.0211 12.5227C11.8181 12.4407 11.6332 12.3196 11.4771 12.1661L3.33207 3.46613C3.5304 9.76113 7.23707 14.4661 11.4004 19.1978C11.72 19.505 11.9044 19.9266 11.9132 20.3698C11.9219 20.813 11.7543 21.2415 11.4471 21.5611C11.1399 21.8807 10.7183 22.0652 10.2751 22.0739C9.83186 22.0827 9.40332 21.915 9.08374 21.6078C6.34791 18.7735 4.03622 15.5586 2.2204 12.0628ZM30.0071 26.9995C29.78 26.7507 29.4964 26.5602 29.1802 26.4442C28.864 26.3282 28.5245 26.29 28.1904 26.3328C26.257 26.5923 24.2902 26.4274 22.4271 25.8495C22.1418 25.7653 21.8389 25.7602 21.551 25.8348C21.263 25.9093 21.0007 26.0607 20.7921 26.2728C18.3021 30.0328 26.2487 29.7945 27.9787 29.7395L37.1171 39.4711C37.2671 39.6307 37.4471 39.7591 37.6468 39.8491C37.8464 39.9391 38.0619 39.9889 38.2808 39.9956C38.4997 40.0024 38.7178 39.9659 38.9226 39.8884C39.1275 39.8108 39.315 39.6937 39.4746 39.5436C39.6341 39.3936 39.7626 39.2136 39.8526 39.0139C39.9426 38.8143 39.9923 38.5988 39.9991 38.3799C40.0058 38.161 39.9694 37.9429 39.8918 37.7381C39.8142 37.5332 39.6971 37.3457 39.5471 37.1861L30.0071 26.9995ZM24.9987 23.3328C26.0931 23.3343 27.1769 23.1199 28.1882 22.7018C29.1995 22.2836 30.1184 21.67 30.8921 20.8961L39.5104 12.2761C39.6654 12.1214 39.7883 11.9376 39.8723 11.7354C39.9562 11.5331 39.9995 11.3163 39.9997 11.0973C39.9998 10.8783 39.9568 10.6614 39.8732 10.4591C39.7895 10.2567 39.6668 10.0728 39.5121 9.9178C39.3573 9.76284 39.1736 9.63987 38.9713 9.55593C38.7691 9.47198 38.5522 9.42869 38.3332 9.42854C38.1143 9.42838 37.8974 9.47136 37.695 9.55502C37.4926 9.63868 37.3087 9.76139 37.1537 9.91613L28.5354 18.5361C27.8035 19.2617 26.8653 19.7433 25.8491 19.9152C24.833 20.087 23.7885 19.9406 22.8587 19.4961L34.5104 7.84446C34.6696 7.69072 34.7966 7.50681 34.8839 7.30347C34.9713 7.10013 35.0172 6.88143 35.0192 6.66013C35.0211 6.43883 34.9789 6.21937 34.8951 6.01454C34.8113 5.80971 34.6875 5.62363 34.5311 5.46714C34.3746 5.31065 34.1885 5.18689 33.9837 5.10309C33.7788 5.01929 33.5594 4.97712 33.3381 4.97905C33.1168 4.98097 32.8981 5.02695 32.6947 5.11429C32.4914 5.20164 32.3075 5.32861 32.1537 5.4878L20.4987 17.1395C20.0542 16.2097 19.9079 15.1652 20.0797 14.1491C20.2516 13.1329 20.7332 12.1947 21.4587 11.4628L30.0821 2.84446C30.3857 2.53013 30.5537 2.10912 30.5499 1.67213C30.5461 1.23513 30.3708 0.817112 30.0618 0.508098C29.7528 0.199085 29.3347 0.0238031 28.8977 0.0200058C28.4607 0.0162084 28.0397 0.184199 27.7254 0.487796L19.1054 9.10613C17.75 10.4662 16.9047 12.2518 16.7119 14.1622C16.5191 16.0726 16.9907 17.9911 18.0471 19.5945L0.487068 37.1545C0.183471 37.4688 0.0154805 37.8898 0.0192779 38.3268C0.0230752 38.7638 0.198357 39.1818 0.50737 39.4908C0.816384 39.7998 1.2344 39.9751 1.6714 39.9789C2.10839 39.9827 2.5294 39.8147 2.84373 39.5111L20.4037 21.9511C21.7668 22.8522 23.3647 23.3327 24.9987 23.3328Z" fill="#1E1E1E"/>
</g>
<defs>
<clipPath id="clip0_60_662">
<rect width="40" height="40" fill="white"/>
</clipPath>
</defs>
</svg>
