<svg width="40" height="41" viewBox="0 0 40 41" fill="none" xmlns="http://www.w3.org/2000/svg">
<g clip-path="url(#clip0_1107_26070)">
<path d="M35.2582 33.6672C38.3192 30.0653 39.9998 25.4924 39.9998 20.7655C39.9998 16.0387 38.3192 11.4658 35.2582 7.86385L36.6916 6.43052C37.0041 6.11778 37.1796 5.69371 37.1794 5.2516C37.1792 4.80948 37.0035 4.38553 36.6907 4.07302C36.378 3.76051 35.9539 3.58503 35.5118 3.58518C35.0697 3.58534 34.6457 3.76112 34.3332 4.07385L32.8999 5.50719C29.298 2.44623 24.7251 0.765625 19.9982 0.765625C15.2714 0.765625 10.6985 2.44623 7.09656 5.50719L5.66323 4.07385C5.34868 3.77047 4.92755 3.60277 4.49056 3.60688C4.05356 3.61098 3.63566 3.78656 3.32686 4.09579C3.01806 4.40503 2.84308 4.82317 2.83959 5.26018C2.83611 5.69718 3.0044 6.11807 3.30823 6.43219L4.74156 7.86552C1.68061 11.4674 0 16.0403 0 20.7672C0 25.4941 1.68061 30.0669 4.74156 33.6689L3.30823 35.1022C3.14916 35.256 3.02232 35.44 2.93512 35.6434C2.84792 35.8468 2.8021 36.0656 2.80033 36.2869C2.79857 36.5082 2.84089 36.7276 2.92484 36.9324C3.00879 37.1371 3.13267 37.3231 3.28927 37.4795C3.44586 37.6359 3.63204 37.7595 3.83692 37.8432C4.04181 37.9268 4.2613 37.9688 4.48259 37.9668C4.70389 37.9647 4.92256 37.9185 5.12583 37.8311C5.32911 37.7436 5.51293 37.6165 5.66656 37.4572L7.09989 36.0239C10.7018 39.0848 15.2747 40.7654 20.0016 40.7654C24.7284 40.7654 29.3013 39.0848 32.9032 36.0239L34.3366 37.4572C34.6511 37.7606 35.0722 37.9283 35.5092 37.9242C35.9462 37.9201 36.3641 37.7445 36.6729 37.4352C36.9817 37.126 37.1567 36.7079 37.1602 36.2709C37.1637 35.8339 36.9954 35.413 36.6916 35.0989L35.2582 33.6672ZM36.6666 20.7655C36.6696 24.6096 35.337 28.3354 32.8966 31.3055L26.9449 25.3539C27.8501 23.9948 28.3331 22.3984 28.3331 20.7655C28.3331 19.1326 27.8501 17.5362 26.9449 16.1772L32.8966 10.2255C35.337 13.1956 36.6696 16.9214 36.6666 20.7655ZM14.9999 20.7655C14.9999 19.7766 15.2931 18.8099 15.8425 17.9877C16.392 17.1654 17.1728 16.5246 18.0865 16.1461C19.0001 15.7677 20.0054 15.6687 20.9753 15.8616C21.9453 16.0545 22.8362 16.5307 23.5354 17.23C24.2347 17.9292 24.7109 18.8202 24.9038 19.7901C25.0967 20.76 24.9977 21.7653 24.6193 22.6789C24.2409 23.5926 23.6 24.3735 22.7777 24.9229C21.9555 25.4723 20.9888 25.7655 19.9999 25.7655C18.6738 25.7655 17.402 25.2387 16.4644 24.3011C15.5267 23.3634 14.9999 22.0916 14.9999 20.7655ZM19.9999 4.09885C23.844 4.09579 27.5698 5.42844 30.5399 7.86885L24.5882 13.8205C23.2292 12.9153 21.6328 12.4323 19.9999 12.4323C18.367 12.4323 16.7706 12.9153 15.4116 13.8205L9.45989 7.86885C12.43 5.42844 16.1558 4.09579 19.9999 4.09885ZM3.33323 20.7655C3.33016 16.9214 4.66281 13.1956 7.10323 10.2255L13.0549 16.1772C12.1497 17.5362 11.6667 19.1326 11.6667 20.7655C11.6667 22.3984 12.1497 23.9948 13.0549 25.3539L7.10323 31.3055C4.66281 28.3354 3.33016 24.6096 3.33323 20.7655ZM19.9999 37.4322C16.1558 37.4353 12.43 36.1026 9.45989 33.6622L15.4116 27.7105C16.7706 28.6157 18.367 29.0988 19.9999 29.0988C21.6328 29.0988 23.2292 28.6157 24.5882 27.7105L30.5399 33.6622C27.5698 36.1026 23.844 37.4353 19.9999 37.4322Z" fill="#FF6137"/>
</g>
<defs>
<clipPath id="clip0_1107_26070">
<rect width="40" height="40" fill="white" transform="translate(0 0.765625)"/>
</clipPath>
</defs>
</svg>
