<svg width="40" height="40" viewBox="0 0 40 40" fill="none" xmlns="http://www.w3.org/2000/svg">
<g clip-path="url(#clip0_60_668)">
<path d="M38.3333 31.6665V28.3331C38.3273 23.762 36.6153 19.3577 33.5327 15.9825C30.45 12.6073 26.2185 10.5041 21.6667 10.0848V7.87145C22.3021 7.50456 22.7988 6.93824 23.0796 6.26031C23.3604 5.58239 23.4097 4.83075 23.2198 4.12197C23.0298 3.41319 22.6114 2.78689 22.0292 2.34019C21.4471 1.89349 20.7338 1.65137 20 1.65137C19.2662 1.65137 18.5529 1.89349 17.9708 2.34019C17.3886 2.78689 16.9702 3.41319 16.7802 4.12197C16.5903 4.83075 16.6396 5.58239 16.9204 6.26031C17.2012 6.93824 17.6979 7.50456 18.3333 7.87145V10.0848C13.7815 10.5041 9.55003 12.6073 6.46734 15.9825C3.38466 19.3577 1.67272 23.762 1.66667 28.3331V31.6665C1.22464 31.6665 0.800716 31.842 0.488155 32.1546C0.175595 32.4672 0 32.8911 0 33.3331C0 33.7751 0.175595 34.1991 0.488155 34.5116C0.800716 34.8242 1.22464 34.9998 1.66667 34.9998H38.3333C38.7754 34.9998 39.1993 34.8242 39.5118 34.5116C39.8244 34.1991 40 33.7751 40 33.3331C40 32.8911 39.8244 32.4672 39.5118 32.1546C39.1993 31.842 38.7754 31.6665 38.3333 31.6665ZM5 28.3331C5.78833 8.44312 34.2183 8.45812 35 28.3331V31.6665H5V28.3331Z" fill="#1E1E1E"/>
</g>
<defs>
<clipPath id="clip0_60_668">
<rect width="40" height="40" fill="white"/>
</clipPath>
</defs>
</svg>
