<svg width="32" height="33" viewBox="0 0 32 33" fill="none" xmlns="http://www.w3.org/2000/svg">
<g clip-path="url(#clip0_1_2806)">
<path d="M16.0133 31.7788C15.3733 31.7788 14.7333 31.5521 14.2267 31.0988L9.22667 26.8854H5.33333C2.38667 26.8854 0 24.4988 0 21.5521V5.55208C0 2.60542 2.38667 0.21875 5.33333 0.21875H26.6667C29.6133 0.21875 32 2.60542 32 5.55208V21.5521C32 24.4988 29.6133 26.8854 26.6667 26.8854H22.8667L17.7333 31.1254C17.2533 31.5521 16.6267 31.7788 16.0133 31.7788ZM5.33333 2.88542C3.86667 2.88542 2.66667 4.08542 2.66667 5.55208V21.5521C2.66667 23.0188 3.86667 24.2188 5.33333 24.2188H9.72C10.04 24.2188 10.3333 24.3254 10.5733 24.5387L15.9733 29.0854L21.5333 24.5254C21.7733 24.3254 22.0667 24.2188 22.3867 24.2188H26.6667C28.1333 24.2188 29.3333 23.0188 29.3333 21.5521V5.55208C29.3333 4.08542 28.1333 2.88542 26.6667 2.88542H5.33333ZM12.0133 20.6854C11.76 20.6854 11.4933 20.6054 11.28 20.4454C10.8667 20.1388 10.6933 19.5921 10.8533 19.0988L12 15.4187L9.09333 13.0588C8.70667 12.7254 8.56 12.1921 8.73333 11.7121C8.90667 11.2321 9.37333 10.9121 9.88 10.9121H13.5467L14.84 7.43208C15.0133 6.95208 15.48 6.63208 15.9867 6.63208C16.4933 6.63208 16.96 6.95208 17.1333 7.43208L18.4267 10.9121H22.0933C22.6 10.9121 23.0667 11.2321 23.24 11.7121C23.4133 12.1921 23.2667 12.7388 22.88 13.0721L19.9867 15.4321L21.1867 19.0721C21.3467 19.5654 21.1867 20.1121 20.7733 20.4188C20.36 20.7388 19.8 20.7521 19.36 20.4721L16 18.2854L12.6933 20.4988C12.4933 20.6321 12.2533 20.6987 12.0133 20.6987V20.6854Z" fill="#FF6137"/>
</g>
<defs>
<clipPath id="clip0_1_2806">
<rect width="32" height="32" fill="white" transform="translate(0 0.21875)"/>
</clipPath>
</defs>
</svg>
