<svg width="40" height="40" viewBox="0 0 40 40" fill="none" xmlns="http://www.w3.org/2000/svg">
<g clip-path="url(#clip0_1_1409)">
<path d="M37.2919 6.30836C34.7987 4.88921 32.0563 3.96188 29.2135 3.5767C28.7831 2.74849 28.1842 2.01953 27.4552 1.4367C26.6701 0.812412 25.7532 0.374983 24.7741 0.157546C23.7949 -0.0598906 22.779 -0.0516315 21.8035 0.181698C19.7185 0.70782 17.6963 1.45715 15.7719 2.4167C14.4057 1.76717 12.8798 1.53017 11.381 1.73472C9.88223 1.93928 8.47564 2.57651 7.33352 3.56836C6.72186 4.09336 6.10686 4.6417 5.50019 5.2067C4.86352 5.80503 4.21519 6.48503 3.56852 7.22336C2.75826 8.14972 2.18 9.25555 1.8815 10.4495C1.58301 11.6435 1.57285 12.8914 1.85186 14.09C1.98066 14.6559 2.17125 15.2058 2.42019 15.73C1.45413 17.6681 0.698696 19.7042 0.166855 21.8034C-0.0674745 22.7788 -0.0762358 23.7949 0.141238 24.7742C0.358711 25.7536 0.79669 26.6704 1.42186 27.455C2.01075 28.1916 2.74924 28.7949 3.58852 29.225C3.97471 32.0637 4.90143 34.802 6.31852 37.2917C6.86833 38.2794 7.72061 39.0646 8.74998 39.5317C9.77936 39.9988 10.9315 40.1233 12.0369 39.8867C13.1803 39.6602 14.2205 39.072 15.0039 38.2088C15.7872 37.3456 16.2721 36.2533 16.3869 35.0934C16.698 32.9477 17.2619 30.8465 18.0669 28.8334C18.0669 28.8334 18.9752 28.2734 19.3902 27.935C20.3894 27.0969 21.0987 25.9648 21.4169 24.7C22.1874 24.4449 22.8881 24.0141 23.4635 23.4417C24.024 22.8712 24.448 22.1812 24.7035 21.4234C25.964 21.1036 27.0917 20.3951 27.9269 19.3984C28.2602 18.9834 28.8269 18.0734 28.8269 18.0734C30.8356 17.2468 32.9414 16.6794 35.0935 16.385C36.2535 16.2703 37.3458 15.7854 38.2089 15.002C39.0721 14.2187 39.6604 13.1785 39.8869 12.035C40.1273 10.9284 40.0047 9.77368 39.5372 8.74217C39.0698 7.71065 38.2824 6.85721 37.2919 6.30836ZM13.0652 34.7217C13.0251 35.1814 12.8363 35.6155 12.5275 35.9583C12.2186 36.3011 11.8065 36.534 11.3535 36.6217C10.9367 36.7166 10.5002 36.6717 10.1114 36.494C9.72253 36.3163 9.40294 36.0156 9.20186 35.6384C8.19952 33.8829 7.4812 31.98 7.07352 30H13.5735C13.7552 30 13.9319 29.9634 14.1119 29.9534C13.6352 31.425 13.0652 34.715 13.0652 34.7217ZM17.2819 25.345C16.2354 26.1982 14.927 26.665 13.5769 26.6667H6.66686C6.15987 26.6678 5.65931 26.5532 5.20328 26.3317C4.74724 26.1102 4.34775 25.7875 4.03519 25.3884C3.72342 24.9977 3.50479 24.5412 3.39592 24.0534C3.28704 23.5657 3.29078 23.0595 3.40686 22.5734C3.74052 21.2278 4.18653 19.9126 4.74019 18.6417C5.25471 19.0443 5.81807 19.3803 6.41686 19.6417L17.5452 24.515C17.6485 24.5634 17.7585 24.5817 17.8635 24.6217C17.7144 24.8956 17.5174 25.1406 17.2819 25.345ZM21.0902 21.0917C20.8117 21.3741 20.4526 21.5632 20.0622 21.633C19.6718 21.7029 19.2693 21.65 18.9102 21.4817L7.75519 16.5967C7.09009 16.3053 6.50374 15.86 6.04446 15.2976C5.58518 14.7351 5.2661 14.0716 5.11352 13.3617C4.95176 12.6735 4.95597 11.9568 5.12578 11.2706C5.2956 10.5843 5.62616 9.94833 6.09019 9.41503C6.66686 8.75836 7.23686 8.15836 7.79519 7.63336C8.35352 7.10836 8.93186 6.5917 9.50686 6.10003C10.0375 5.6382 10.6696 5.30798 11.3517 5.13616C12.0339 4.96435 12.747 4.95578 13.4331 5.11115C14.1192 5.26652 14.759 5.58145 15.3006 6.0304C15.8422 6.47934 16.2703 7.04965 16.5502 7.69503L21.4902 18.845C21.6555 19.2166 21.7057 19.6292 21.6344 20.0296C21.5631 20.4301 21.3736 20.8 21.0902 21.0917ZM26.6669 13.5767C26.6657 14.9267 26.1996 16.2351 25.3469 17.2817C25.152 17.5073 24.9204 17.6984 24.6619 17.8467C24.6185 17.73 24.5869 17.61 24.5369 17.495L19.5985 6.3467C19.3489 5.78068 19.0346 5.24545 18.6619 4.7517C19.9265 4.19944 21.2349 3.75346 22.5735 3.41837C23.0596 3.30204 23.5659 3.29818 24.0537 3.40706C24.5415 3.51595 24.998 3.73471 25.3885 4.0467C25.7886 4.35995 26.1118 4.76051 26.3333 5.21778C26.5549 5.67505 26.669 6.17692 26.6669 6.68503V13.5767ZM36.6219 11.3534C36.5341 11.8064 36.3013 12.2185 35.9584 12.5273C35.6156 12.8362 35.1815 13.0249 34.7219 13.065C34.7219 13.065 31.4252 13.635 29.9535 14.115C29.9652 13.935 30.0002 13.7584 30.0002 13.5767V7.0767C31.9801 7.48437 33.8831 8.2027 35.6385 9.20503C36.0146 9.40659 36.3143 9.72573 36.4918 10.1137C36.6694 10.5016 36.7151 10.937 36.6219 11.3534Z" fill="white"/>
</g>
<defs>
<clipPath id="clip0_1_1409">
<rect width="40" height="40" fill="white"/>
</clipPath>
</defs>
</svg>
