<svg width="40" height="40" viewBox="0 0 40 40" fill="none" xmlns="http://www.w3.org/2000/svg">
<g clip-path="url(#clip0_1_1433)">
<path d="M2.2204 12.0633C0.805401 9.20329 -2.00127 2.11495 1.99873 0.249951C2.59343 0.00238925 3.24831 -0.0627658 3.88013 0.062767C4.51195 0.1883 5.09218 0.498852 5.54707 0.954951L13.8137 9.78829C13.9699 9.94171 14.0943 10.1244 14.1799 10.3259C14.2654 10.5274 14.3105 10.7438 14.3124 10.9627C14.3143 11.1816 14.2731 11.3988 14.1912 11.6018C14.1092 11.8048 13.988 11.9896 13.8346 12.1458C13.6811 12.3019 13.4985 12.4264 13.2969 12.5119C13.0954 12.5975 12.879 12.6425 12.6601 12.6445C12.4412 12.6464 12.2241 12.6052 12.0211 12.5232C11.8181 12.4412 11.6332 12.32 11.4771 12.1666L3.33207 3.46662C3.5304 9.76162 7.23707 14.4666 11.4004 19.1983C11.72 19.5055 11.9044 19.9271 11.9132 20.3703C11.9219 20.8135 11.7543 21.242 11.4471 21.5616C11.1399 21.8812 10.7183 22.0657 10.2751 22.0744C9.83186 22.0832 9.40332 21.9155 9.08374 21.6083C6.34791 18.774 4.03622 15.5591 2.2204 12.0633ZM30.0071 27C29.78 26.7512 29.4964 26.5607 29.1802 26.4447C28.864 26.3287 28.5245 26.2904 28.1904 26.3333C26.257 26.5928 24.2902 26.4279 22.4271 25.85C22.1418 25.7658 21.8389 25.7607 21.551 25.8352C21.263 25.9098 21.0007 26.0612 20.7921 26.2733C18.3021 30.0333 26.2487 29.795 27.9787 29.74L37.1171 39.4716C37.2671 39.6312 37.4471 39.7596 37.6468 39.8496C37.8464 39.9396 38.0619 39.9894 38.2808 39.9961C38.4997 40.0029 38.7178 39.9664 38.9226 39.8889C39.1275 39.8113 39.315 39.6942 39.4746 39.5441C39.6341 39.3941 39.7626 39.2141 39.8526 39.0144C39.9426 38.8147 39.9923 38.5993 39.9991 38.3804C40.0058 38.1615 39.9694 37.9434 39.8918 37.7385C39.8142 37.5337 39.6971 37.3462 39.5471 37.1866L30.0071 27ZM24.9987 23.3333C26.0931 23.3348 27.1769 23.1204 28.1882 22.7023C29.1995 22.2841 30.1184 21.6705 30.8921 20.8966L39.5104 12.2766C39.6654 12.1219 39.7883 11.9381 39.8723 11.7359C39.9562 11.5336 39.9995 11.3168 39.9997 11.0978C39.9998 10.8788 39.9568 10.6619 39.8732 10.4595C39.7895 10.2572 39.6668 10.0732 39.5121 9.91829C39.3573 9.76333 39.1736 9.64036 38.9713 9.55641C38.7691 9.47247 38.5522 9.42918 38.3332 9.42902C38.1143 9.42887 37.8974 9.47185 37.695 9.55551C37.4926 9.63917 37.3087 9.76188 37.1537 9.91662L28.5354 18.5366C27.8035 19.2622 26.8653 19.7438 25.8491 19.9156C24.833 20.0875 23.7885 19.9411 22.8587 19.4966L34.5104 7.84495C34.6696 7.69121 34.7966 7.5073 34.8839 7.30396C34.9713 7.10062 35.0172 6.88192 35.0192 6.66062C35.0211 6.43932 34.9789 6.21985 34.8951 6.01503C34.8113 5.8102 34.6875 5.62411 34.5311 5.46763C34.3746 5.31114 34.1885 5.18738 33.9837 5.10358C33.7788 5.01978 33.5594 4.97761 33.3381 4.97953C33.1168 4.98146 32.8981 5.02743 32.6947 5.11478C32.4914 5.20213 32.3075 5.3291 32.1537 5.48828L20.4987 17.14C20.0542 16.2102 19.9079 15.1657 20.0797 14.1496C20.2516 13.1334 20.7332 12.1952 21.4587 11.4633L30.0821 2.84495C30.3857 2.53061 30.5537 2.10961 30.5499 1.67262C30.5461 1.23562 30.3708 0.8176 30.0618 0.508587C29.7528 0.199573 29.3347 0.0242914 28.8977 0.0204941C28.4607 0.0166967 28.0397 0.184687 27.7254 0.488284L19.1054 9.10662C17.75 10.4666 16.9047 12.2522 16.7119 14.1627C16.5191 16.0731 16.9907 17.9916 18.0471 19.595L0.487068 37.155C0.183471 37.4693 0.0154805 37.8903 0.0192779 38.3273C0.0230752 38.7643 0.198357 39.1823 0.50737 39.4913C0.816384 39.8003 1.2344 39.9756 1.6714 39.9794C2.10839 39.9832 2.5294 39.8152 2.84373 39.5116L20.4037 21.9516C21.7668 22.8527 23.3647 23.3332 24.9987 23.3333Z" fill="white"/>
</g>
<defs>
<clipPath id="clip0_1_1433">
<rect width="40" height="40" fill="white"/>
</clipPath>
</defs>
</svg>
